<?xml version="1.0" encoding="utf-8"?>
<!-- Generator: Adobe Illustrator 25.4.2, SVG Export Plug-In . SVG Version: 6.00 Build 0)  -->
<svg version="1.1" id="Calque_1" xmlns="http://www.w3.org/2000/svg" xmlns:xlink="http://www.w3.org/1999/xlink" x="0px" y="0px"
	 viewBox="0 0 30 30" style="enable-background:new 0 0 30 30;" xml:space="preserve">
<style type="text/css">
	.st0{fill:#0075A4;}
	.st1{enable-background:new    ;}
	.st2{fill:#FFFFFF;}
</style>
<g id="_2" transform="translate(-1 -1)">
	<g id="Ellipse_39" transform="translate(1 1)">
		<circle class="st0" cx="15" cy="15" r="15"/>
	</g>
	<g class="st1">
		<path class="st2" d="M19,21.8h-7.5l0.3-1.7l3.7-3.3c0.9-0.8,1.6-1.5,1.9-2c0.4-0.5,0.5-1,0.5-1.4c0-0.4-0.1-0.7-0.3-0.9
			c-0.2-0.2-0.5-0.3-0.9-0.3c-0.3,0-0.7,0.1-1.1,0.3c-0.4,0.2-0.8,0.5-1.3,0.9l-1.1-1.6c0.7-0.6,1.3-1,2-1.2s1.3-0.4,2-0.4
			c1,0,1.8,0.3,2.4,0.8s0.9,1.2,0.9,2c0,0.6-0.1,1.1-0.3,1.6c-0.2,0.5-0.5,1-1,1.5c-0.4,0.5-1.1,1.1-2.1,1.9L15,19.7v0.1h4.4
			L19,21.8z"/>
	</g>
</g>
</svg>
