<svg id="baisse" xmlns="http://www.w3.org/2000/svg" width="32" height="20" viewBox="0 0 32 20">
  <rect id="Rectangle_Copy_2" data-name="Rectangle Copy 2" width="32" height="20" rx="8" fill="rgba(193,33,33,0.2)"/>
  <path id="Mask" d="M19,10.214V5.5a.792.792,0,0,0-1.583,0V8.329L11.242,2.2a.769.769,0,0,0-1.108,0l-3.4,3.379L1.346.236A.721.721,0,0,0,.792,0,.721.721,0,0,0,.237.236a.756.756,0,0,0,0,1.1L6.175,7.229a.769.769,0,0,0,1.108,0l3.4-3.379,5.621,5.579h-2.85a.786.786,0,1,0,0,1.571h4.75a.479.479,0,0,0,.317-.079.95.95,0,0,0,.4-.393A.47.47,0,0,0,19,10.214Z" transform="translate(7 5)" fill="#c12121"/>
</svg>
