<svg id="check" xmlns="http://www.w3.org/2000/svg" xmlns:xlink="http://www.w3.org/1999/xlink" width="16" height="16" viewBox="0 0 16 16">
  <defs>
    <clipPath id="clip-path">
      <path id="Mask" d="M15.733,2.092,5.956,15.631a.709.709,0,0,1-1.244,0L.267,9.477a1.525,1.525,0,0,1,0-1.723.709.709,0,0,1,1.244,0l3.822,5.292L14.489.369a.709.709,0,0,1,1.244,0A1.525,1.525,0,0,1,15.733,2.092Z" fill="#51b748"/>
    </clipPath>
  </defs>
  <g id="Groupe_51" data-name="Groupe 51">
    <path id="Mask-2" data-name="Mask" d="M15.733,2.092,5.956,15.631a.709.709,0,0,1-1.244,0L.267,9.477a1.525,1.525,0,0,1,0-1.723.709.709,0,0,1,1.244,0l3.822,5.292L14.489.369a.709.709,0,0,1,1.244,0A1.525,1.525,0,0,1,15.733,2.092Z" fill="#51b748"/>
    <g id="Groupe_de_masques_68" data-name="Groupe de masques 68" clip-path="url(#clip-path)">
      <g id="Icon_Color" data-name="Icon Color" transform="translate(-3.2 -12.8)">
        <rect id="Shape" width="27.2" height="51.2" fill="#51b748"/>
      </g>
    </g>
  </g>
</svg>
