<svg xmlns="http://www.w3.org/2000/svg" width="36.928" height="21.944" viewBox="0 0 36.928 21.944">
  <g id="couv_nuageuse" transform="translate(-147.954 -582.333)" fill="#fff" stroke-linejoin="round">
    <path d="M180.284,594.358c0-.005,0-.011,0-.016a5.432,5.432,0,0,0-.51-1.976c0-.006-.007-.011-.01-.017a5.569,5.569,0,0,0-5.028-3.186c-.049,0-.1,0-.146,0l0,0c0-.042-.006-.084-.01-.127s-.007-.084-.012-.126-.012-.095-.018-.142-.011-.079-.017-.118-.017-.1-.026-.147-.013-.072-.021-.107c-.011-.052-.023-.1-.036-.155-.008-.031-.015-.063-.023-.094-.015-.056-.031-.111-.047-.166-.008-.026-.015-.052-.023-.078-.019-.06-.04-.119-.061-.178-.007-.02-.014-.041-.022-.061-.024-.065-.05-.128-.076-.192l-.017-.042q-.045-.1-.094-.208l-.009-.021a5.3,5.3,0,0,0-4.762-2.983,5.142,5.142,0,0,0-2.7.758,7.156,7.156,0,0,0-12.027,1.461c0,.006-.007.011-.01.017a6.96,6.96,0,0,0-.66,2.6c0,.005,0,.01,0,.015a6.383,6.383,0,0,0-4,10.971c.178.171.351.347.513.514a4.162,4.162,0,0,0,3,1.268h5a4.906,4.906,0,0,0,4.236,2.452h.162c.173,0,.378-.007.581,0l.194,0h17.007a3.255,3.255,0,0,0,2.349-.991c.126-.129.26-.266.394-.395a4.966,4.966,0,0,0-3.073-8.533Zm-29.24,5.6c-.167-.171-.346-.354-.533-.534a5.52,5.52,0,0,1,3.476-9.489,1.736,1.736,0,0,0,.216.553.431.431,0,1,0,.727-.463,1.64,1.64,0,0,1-.155-.834,6.293,6.293,0,0,1,11.145-3.7c-.1.088-.2.179-.3.276a.431.431,0,1,0,.613.606,4.445,4.445,0,0,1,.619-.52,4.4,4.4,0,0,1,3.783-.567c.055.017.109.036.163.055l.033.011a4.419,4.419,0,0,1,2.9,3.906,5.589,5.589,0,0,0-3.289,1.93,4.012,4.012,0,0,0-2.068-.57,4.119,4.119,0,0,0-1.194.177l-.019.005-.092.03-.106.036-.032.012a4.125,4.125,0,0,0-1.972,1.551l0,0c-.035.052-.069.1-.1.158l-.009.014c-.031.05-.06.1-.088.153l-.013.025c-.026.049-.051.1-.076.147l-.017.035q-.033.07-.064.141l-.019.046q-.028.067-.053.134l-.02.056c-.015.043-.03.086-.044.129l-.02.065c-.012.041-.024.082-.035.123-.007.025-.013.049-.019.074s-.019.079-.027.118-.012.054-.017.081-.014.077-.02.115-.01.059-.014.088-.01.074-.014.112-.007.062-.01.094-.006.074-.009.111,0,.064-.006.1c0,.013,0,.025,0,.038a5.008,5.008,0,0,0-1.557-.242h-.029a4.939,4.939,0,0,0-4.878,4.369c0,.015,0,.03-.006.045-.006.054-.011.109-.015.164,0,.032-.005.065-.007.1s0,.089-.005.134,0,.06,0,.09c0,.011,0,.022,0,.033s0,.022,0,.033c0,.03,0,.059,0,.089s0,.087,0,.131,0,.079.007.119.006.088.01.133.008.076.012.114.011.09.017.135.012.073.018.109.015.09.024.134.015.073.023.11.019.086.029.128.02.078.031.117.021.077.032.115.028.089.042.133c.01.029.019.057.029.086h-4.605A3.307,3.307,0,0,1,151.044,599.956Zm31.787,2.387c-.143.137-.282.279-.411.412a2.5,2.5,0,0,1-1.8.761H163.608l-.172,0c-.087,0-.173,0-.257,0-.129,0-.252,0-.363,0h-.093a4.213,4.213,0,0,1-3.972-2.816l-.013-.039c-.017-.049-.032-.1-.047-.148-.007-.023-.013-.046-.02-.07-.012-.041-.023-.082-.033-.123s-.014-.06-.02-.09-.016-.073-.023-.109-.012-.068-.018-.1-.012-.068-.017-.1-.009-.072-.013-.108-.008-.067-.011-.1-.006-.073-.008-.111,0-.067-.006-.1,0-.075,0-.112,0-.068,0-.1,0-.071,0-.106,0-.075,0-.111,0-.055.006-.083c0-.046.007-.093.012-.139,0-.012,0-.024,0-.037a4.229,4.229,0,0,1,4.138-3.7,4.089,4.089,0,0,1,2.431.8.38.38,0,0,0,.451-.612,4.923,4.923,0,0,0-.544-.348c-.005-.076-.008-.151-.008-.226a3.355,3.355,0,0,1,2.205-3.145l.05-.017.1-.033a3.3,3.3,0,0,1,3.344.826.38.38,0,0,0,.54-.534c-.063-.064-.128-.124-.195-.183a4.828,4.828,0,0,1,2.038-1.423l-.1.07.556-.212a4.791,4.791,0,0,1,5.974,4.386,1.261,1.261,0,0,1-.11.651.38.38,0,1,0,.641.408,1.34,1.34,0,0,0,.162-.4,4.2,4.2,0,0,1,2.609,7.226Z" stroke="none"/>
    <path d="M 180.6141967773438 604.277099609375 L 163.607666015625 604.277099609375 C 163.5422668457031 604.277099609375 163.4773254394531 604.2759399414062 163.413330078125 604.274169921875 C 163.2104644775391 604.2686157226562 163.0057067871094 604.2719116210938 162.8323211669922 604.2757568359375 C 162.7824859619141 604.2769165039062 162.7313079833984 604.2770385742188 162.6801147460938 604.2759399414062 C 162.6766662597656 604.2759399414062 162.6734313964844 604.277099609375 162.6699829101562 604.277099609375 C 160.8673858642578 604.277099609375 159.2895355224609 603.2908325195312 158.4342956542969 601.824951171875 L 153.4308776855469 601.824951171875 C 152.2903137207031 601.824951171875 151.2234497070312 601.3746948242188 150.4269256591797 600.5572509765625 C 150.2645874023438 600.3907470703125 150.0914306640625 600.214111328125 149.9138793945312 600.0432739257812 C 148.64990234375 598.828125 147.9539947509766 597.194091796875 147.9539947509766 595.441650390625 C 147.9539947509766 592.0628662109375 150.5929565429688 589.2886962890625 153.9181518554688 589.072265625 C 153.9183654785156 589.0671997070312 153.9190673828125 589.0621337890625 153.9192810058594 589.0570678710938 C 153.949462890625 588.2091674804688 154.2080688476562 587.2314453125 154.5794830322266 586.4552001953125 C 154.5824737548828 586.44921875 154.5866394042969 586.4443359375 154.5896148681641 586.4385986328125 C 155.7370910644531 584.0142822265625 158.2072448730469 582.3330078125 161.0626678466797 582.3330078125 C 163.2166442871094 582.3330078125 165.2631225585938 583.314208984375 166.6169128417969 584.977294921875 C 167.4226379394531 584.4833374023438 168.3488159179688 584.21923828125 169.3152770996094 584.21923828125 C 169.8941955566406 584.21923828125 170.4507751464844 584.3135986328125 170.9723510742188 584.48583984375 C 172.33740234375 584.9332885742188 173.4579162597656 585.9241943359375 174.0771179199219 587.201904296875 C 174.0803527832031 587.2088623046875 174.0833740234375 587.2157592773438 174.0865783691406 587.222412109375 C 174.1195068359375 587.290771484375 174.1510620117188 587.3599853515625 174.1807556152344 587.429931640625 C 174.1867370605469 587.4439697265625 174.1922912597656 587.4580078125 174.1980285644531 587.4718017578125 C 174.2244873046875 587.535400390625 174.2500610351562 587.59912109375 174.2740173339844 587.6638793945312 C 174.2816162109375 587.6839599609375 174.2882995605469 587.704345703125 174.295654296875 587.7247314453125 C 174.3166198730469 587.7838745117188 174.3373413085938 587.843017578125 174.3562316894531 587.9031372070312 C 174.364501953125 587.9291381835938 174.3718872070312 587.9554443359375 174.3796997070312 587.9814453125 C 174.3963012695312 588.0364990234375 174.4124145507812 588.0916748046875 174.4271545410156 588.147705078125 C 174.4354553222656 588.1787719726562 174.4428100585938 588.2103271484375 174.4504089355469 588.2416381835938 C 174.4630737304688 588.293212890625 174.4755249023438 588.3450317382812 174.486572265625 588.3970947265625 C 174.4941711425781 588.4327392578125 174.5006103515625 588.468505859375 174.5075378417969 588.50439453125 C 174.5167236328125 588.55322265625 174.5259399414062 588.6022338867188 174.5339965820312 588.6517944335938 C 174.5402221679688 588.690673828125 174.5455017089844 588.7300415039062 174.5508117675781 588.7694091796875 C 174.5572509765625 588.81640625 174.563720703125 588.8636474609375 174.5690002441406 588.9110107421875 C 174.5736083984375 588.9525146484375 174.5770568847656 588.99462890625 174.5807495117188 589.0365600585938 C 174.5841979980469 589.0787353515625 174.5876770019531 589.120849609375 174.5904235839844 589.1632080078125 L 174.5883483886719 589.1666259765625 C 174.63671875 589.16552734375 174.68505859375 589.1625366210938 174.73388671875 589.1625366210938 C 176.9512023925781 589.1625366210938 178.8689270019531 590.467041015625 179.761962890625 592.3486328125 C 179.7651672363281 592.3546142578125 179.7693176269531 592.3596801757812 179.7723083496094 592.3658447265625 C 180.0539245605469 592.9542236328125 180.2514953613281 593.6922607421875 180.2825927734375 594.34228515625 C 180.2830505371094 594.34765625 180.2837524414062 594.3529052734375 180.2839965820312 594.3582153320312 C 182.85107421875 594.5472412109375 184.8821105957031 596.6964111328125 184.8821105957031 599.3106689453125 C 184.8821105957031 600.6741943359375 184.3407287597656 601.945556640625 183.3574829101562 602.890869140625 C 183.2227478027344 603.020263671875 183.0889587402344 603.1567993164062 182.9632263183594 603.2857666015625 C 182.34033203125 603.9249877929688 181.5060424804688 604.277099609375 180.6141967773438 604.277099609375 Z M 163.177734375 603.51123046875 C 163.2617797851562 603.51123046875 163.34814453125 603.5121459960938 163.4351806640625 603.5146484375 C 163.4923095703125 603.5162963867188 163.5496368408203 603.5169677734375 163.607666015625 603.5169677734375 L 180.6141967773438 603.5169677734375 C 181.2992858886719 603.5169677734375 181.9403381347656 603.24658203125 182.4190979003906 602.7554931640625 C 182.5489501953125 602.6220703125 182.6880493164062 602.4802856445312 182.8305969238281 602.343017578125 C 183.6635131835938 601.5422973632812 184.1222229003906 600.46533203125 184.1222229003906 599.3106689453125 C 184.1222229003906 597.0943603515625 182.3983764648438 595.2739868164062 180.2211303710938 595.1170043945312 C 180.1840515136719 595.267822265625 180.1317749023438 595.4043579101562 180.0592346191406 595.51806640625 C 179.9464416503906 595.6949462890625 179.71142578125 595.74755859375 179.53466796875 595.6346435546875 C 179.3576049804688 595.5220336914062 179.3055419921875 595.2871704101562 179.4181518554688 595.1100463867188 C 179.4985046386719 594.98388671875 179.5355834960938 594.7503662109375 179.5282287597656 594.4588623046875 C 179.3898010253906 591.93408203125 177.29248046875 589.922607421875 174.73388671875 589.922607421875 C 174.3320617675781 589.922607421875 173.9362182617188 589.9751586914062 173.553955078125 590.07275390625 L 172.9978332519531 590.284423828125 C 173.0303039550781 590.2604370117188 173.0634765625 590.2376708984375 173.0964050292969 590.2141723632812 C 172.3116149902344 590.5006103515625 171.6046752929688 590.9879150390625 171.0579833984375 591.6375122070312 C 171.1243286132812 591.6964111328125 171.1897277832031 591.757080078125 171.2528076171875 591.82080078125 C 171.4001770019531 591.969970703125 171.3988037109375 592.210693359375 171.2495727539062 592.3582763671875 C 171.1005859375 592.5055541992188 170.8599395751953 592.5042114257812 170.7123413085938 592.355224609375 C 170.5765075683594 592.2177734375 170.4302673339844 592.0946044921875 170.2764282226562 591.9847412109375 C 169.7127380371094 591.58935546875 169.0511474609375 591.37939453125 168.3594055175781 591.37939453125 C 168.0142211914062 591.37939453125 167.6812286376953 591.43212890625 167.3678436279297 591.529541015625 C 167.3348999023438 591.5398559570312 167.3024291992188 591.5512084960938 167.2699584960938 591.5624389648438 C 167.2533874511719 591.5684204101562 167.2363433837891 591.573486328125 167.2195434570312 591.5797119140625 C 165.9338989257812 592.0501708984375 165.0141754150391 593.2824096679688 165.0141754150391 594.724609375 C 165.0141754150391 594.7994384765625 165.0173950195312 594.874755859375 165.0224761962891 594.950439453125 C 165.2096862792969 595.0538940429688 165.3913879394531 595.16943359375 165.566162109375 595.2984619140625 C 165.7349395751953 595.4232177734375 165.7708740234375 595.660888671875 165.6460571289062 595.8298950195312 C 165.5217132568359 595.9989624023438 165.2838592529297 596.0348510742188 165.1148223876953 595.9100341796875 C 164.4051208496094 595.3861083984375 163.5648193359375 595.1082153320312 162.6838073730469 595.105224609375 C 160.5648193359375 595.1241455078125 158.7967529296875 596.743408203125 158.5462188720703 598.806396484375 C 158.5448303222656 598.8186645507812 158.5429992675781 598.830810546875 158.5416259765625 598.843017578125 C 158.5365295410156 598.88916015625 158.5328521728516 598.9356689453125 158.5291748046875 598.9821166992188 C 158.527099609375 599.0098266601562 158.5245666503906 599.0374145507812 158.52294921875 599.0653076171875 C 158.5208740234375 599.1021728515625 158.5199584960938 599.139404296875 158.5188293457031 599.1767578125 C 158.5176696777344 599.212158203125 158.5162963867188 599.2476196289062 158.5160522460938 599.2831420898438 C 158.5158081054688 599.3174438476562 158.5167236328125 599.3515014648438 158.5171813964844 599.3855590820312 C 158.5178833007812 599.4228515625 158.5183410644531 599.46044921875 158.5199584960938 599.49755859375 C 158.5215759277344 599.5313720703125 158.5238647460938 599.565185546875 158.5261840820312 599.5988159179688 C 158.5287170410156 599.6359252929688 158.531005859375 599.6727294921875 158.5344848632812 599.7093505859375 C 158.5376892089844 599.7432861328125 158.5416259765625 599.77685546875 158.5457458496094 599.8104248046875 C 158.5498962402344 599.8463134765625 158.5540466308594 599.88232421875 158.5591125488281 599.91796875 C 158.5641632080078 599.9522705078125 158.5699157714844 599.986572265625 158.57568359375 600.0206298828125 C 158.5814514160156 600.0548095703125 158.5872039794922 600.088623046875 158.5936584472656 600.1224975585938 C 158.6007690429688 600.1590576171875 158.6088562011719 600.1954345703125 158.6169128417969 600.2318725585938 C 158.6235656738281 600.2618408203125 158.6300201416016 600.2919921875 158.6374053955078 600.3216552734375 C 158.6475219726562 600.3631591796875 158.6585845947266 600.4041137695312 158.6701049804688 600.445068359375 C 158.6765441894531 600.4683837890625 158.6827697753906 600.4915771484375 158.6896667480469 600.5146484375 C 158.7044067382812 600.5643310546875 158.7200622558594 600.6134033203125 158.7366485595703 600.6624755859375 C 158.7410278320312 600.6753540039062 158.7451782226562 600.6884765625 158.7497863769531 600.701416015625 C 158.9524078369141 601.2816162109375 159.2828674316406 601.8145141601562 159.7277679443359 602.265380859375 C 160.5245056152344 603.072509765625 161.5876922607422 603.5169677734375 162.7215576171875 603.5169677734375 C 162.7526550292969 603.5169677734375 162.7835083007812 603.5167236328125 162.8143615722656 603.5157470703125 C 162.9255981445312 603.5135498046875 163.0487823486328 603.51123046875 163.177734375 603.51123046875 Z M 158.0359191894531 600.9627685546875 C 158.0260162353516 600.9342041015625 158.0168151855469 600.9056396484375 158.0071411132812 600.8768310546875 C 157.9926300048828 600.8326416015625 157.9781188964844 600.7882080078125 157.9647674560547 600.7435302734375 C 157.9532470703125 600.70556640625 157.9428863525391 600.6673583984375 157.9325256347656 600.6290283203125 C 157.9219360351562 600.5904541015625 157.9113464355469 600.5514526367188 157.9016723632812 600.5123291015625 C 157.8910827636719 600.469970703125 157.8816223144531 600.4271240234375 157.8721923828125 600.384033203125 C 157.8643798828125 600.34765625 157.8563079833984 600.311279296875 157.8489379882812 600.2744140625 C 157.8404235839844 600.22998046875 157.8328247070312 600.18505859375 157.8252258300781 600.1401977539062 C 157.8192443847656 600.1038818359375 157.8130187988281 600.0674438476562 157.8077087402344 600.0308227539062 C 157.80126953125 599.9862060546875 157.7959899902344 599.9410400390625 157.7906799316406 599.8961181640625 C 157.7863006591797 599.8583374023438 157.7817077636719 599.820556640625 157.7782592773438 599.7825927734375 C 157.7740936279297 599.7384033203125 157.7711181640625 599.6942138671875 157.7680969238281 599.6499633789062 C 157.7655639648438 599.6103515625 157.7626037597656 599.5709838867188 157.7609558105469 599.5313720703125 C 157.7591247558594 599.48779296875 157.7584228515625 599.444091796875 157.7577514648438 599.4003295898438 C 157.7570495605469 599.370361328125 157.7554626464844 599.3409423828125 157.7554626464844 599.3109741210938 C 157.7554626464844 599.2999267578125 157.7561492919922 599.2889404296875 157.7563781738281 599.277587890625 C 157.7563781738281 599.2665405273438 157.7556762695312 599.2557373046875 157.7558898925781 599.24462890625 C 157.7563781738281 599.2144775390625 157.7584228515625 599.1845703125 157.7593688964844 599.1544189453125 C 157.7607421875 599.1097412109375 157.7619018554688 599.0648193359375 157.7644195556641 599.0203857421875 C 157.7665100097656 598.9879150390625 157.7692565917969 598.9556884765625 157.7718048095703 598.9232177734375 C 157.7759399414062 598.868408203125 157.7805480957031 598.8135986328125 157.7865295410156 598.75927734375 C 157.7881469726562 598.7440185546875 157.7904357910156 598.72900390625 157.7922821044922 598.7138671875 C 158.0851898193359 596.2564086914062 160.1602172851562 594.3450927734375 162.6699829101562 594.3450927734375 L 162.6817321777344 594.3453369140625 C 162.6874847412109 594.3453369140625 162.6932373046875 594.3448486328125 162.6989898681641 594.3448486328125 C 163.234619140625 594.3450927734375 163.7561950683594 594.42333984375 164.25634765625 594.58642578125 C 164.2568054199219 594.57373046875 164.2582092285156 594.5611572265625 164.2586517333984 594.5484008789062 C 164.2600402832031 594.5159301757812 164.2621154785156 594.4837646484375 164.2641906738281 594.4514770507812 C 164.2667236328125 594.4146728515625 164.2692565917969 594.3775634765625 164.272705078125 594.3409423828125 C 164.2756958007812 594.3096923828125 164.2791442871094 594.278564453125 164.2828369140625 594.2474365234375 C 164.2872009277344 594.210205078125 164.2918090820312 594.1728515625 164.297119140625 594.1358032226562 C 164.3014831542969 594.1060791015625 164.3063201904297 594.0767822265625 164.3111572265625 594.04736328125 C 164.3176116943359 594.0091552734375 164.3242797851562 593.9708862304688 164.3316497802734 593.9326171875 C 164.3371887207031 593.905517578125 164.3429260253906 593.8782958984375 164.3489227294922 593.8511352539062 C 164.3574523925781 593.8115234375 164.3664245605469 593.77197265625 164.3763275146484 593.7328491210938 C 164.3825378417969 593.7078857421875 164.3889770507812 593.6832275390625 164.3956604003906 593.65869140625 C 164.4067077636719 593.6171875 164.41845703125 593.576171875 164.4308929443359 593.5352172851562 C 164.4375762939453 593.5135498046875 164.4442596435547 593.49169921875 164.4513854980469 593.4700317382812 C 164.4652099609375 593.427001953125 164.4797058105469 593.3839111328125 164.4951477050781 593.34130859375 C 164.5018310546875 593.3226928710938 164.5087280273438 593.3040771484375 164.515625 593.2853393554688 C 164.5326843261719 593.240234375 164.5504150390625 593.1953735351562 164.5690612792969 593.15087890625 C 164.5752868652344 593.135498046875 164.5817260742188 593.1202392578125 164.5884094238281 593.1050415039062 C 164.60888671875 593.0576171875 164.6303100585938 593.0106201171875 164.6524200439453 592.964111328125 C 164.657958984375 592.952392578125 164.6636962890625 592.940673828125 164.6692504882812 592.92919921875 C 164.6936340332031 592.87939453125 164.71875 592.830322265625 164.7449951171875 592.78173828125 C 164.7496032714844 592.7734375 164.7539672851562 592.765380859375 164.7583465576172 592.757080078125 C 164.7866821289062 592.70556640625 164.8161315917969 592.6544189453125 164.8467712402344 592.6041870117188 L 164.8553009033203 592.5897216796875 C 164.8882141113281 592.5362548828125 164.9220581054688 592.4835205078125 164.9573059082031 592.4315185546875 L 164.9600677490234 592.4273681640625 C 165.4365234375 591.7245483398438 166.1243438720703 591.1767578125 166.9321594238281 590.876220703125 C 166.9427337646484 590.872314453125 166.9533386230469 590.867919921875 166.9639282226562 590.864013671875 C 166.9989318847656 590.851318359375 167.0346069335938 590.83984375 167.0700988769531 590.828125 C 167.1007080078125 590.8179321289062 167.1308898925781 590.80712890625 167.1617279052734 590.7977294921875 C 167.1679534912109 590.7958984375 167.1744079589844 590.7942504882812 167.1806030273438 590.7924194335938 C 167.5589599609375 590.677978515625 167.9598693847656 590.61572265625 168.3750610351562 590.61572265625 C 169.1144714355469 590.61572265625 169.82373046875 590.8142700195312 170.4433898925781 591.185302734375 C 171.2811584472656 590.1723022460938 172.4523010253906 589.4918212890625 173.7326354980469 589.2557373046875 C 173.6377868652344 587.45849609375 172.4585266113281 585.9428100585938 170.8355407714844 585.349365234375 C 170.8247375488281 585.345458984375 170.8136596679688 585.342041015625 170.8028564453125 585.338134765625 C 170.7489624023438 585.3190307617188 170.6948547363281 585.30029296875 170.6402893066406 585.2833251953125 C 170.2278442382812 585.155029296875 169.7896423339844 585.0859375 169.3357543945312 585.0859375 C 168.4436950683594 585.0859375 167.5891418457031 585.3505249023438 166.8568420410156 585.8504638671875 C 166.6376342773438 586.0031127929688 166.4301452636719 586.17626953125 166.2376403808594 586.3706665039062 C 166.0704498291016 586.5399780273438 165.7975616455078 586.5415649414062 165.6283264160156 586.3741455078125 C 165.4590759277344 586.2066650390625 165.4574737548828 585.933837890625 165.6248779296875 585.7645874023438 C 165.72021484375 585.6680908203125 165.8196868896484 585.5771484375 165.9210205078125 585.4889526367188 C 164.7297973632812 584.0460205078125 162.9430847167969 583.1949462890625 161.0626678466797 583.1949462890625 C 157.6925659179688 583.1949462890625 154.9331970214844 585.857421875 154.7756805419922 589.189208984375 C 154.7720031738281 589.558349609375 154.8240356445312 589.8555908203125 154.9306640625 590.0233154296875 C 155.0586853027344 590.2238159179688 154.99951171875 590.490234375 154.7987060546875 590.6182861328125 C 154.5971984863281 590.746337890625 154.3314361572266 590.6865234375 154.2036743164062 590.4862060546875 C 154.1046600341797 590.3306884765625 154.0342102050781 590.142578125 153.9872283935547 589.9329833984375 C 151.1053161621094 590.1142578125 148.81591796875 592.5150146484375 148.81591796875 595.441650390625 C 148.81591796875 596.9573364257812 149.4180908203125 598.3707275390625 150.5111999511719 599.4217529296875 C 150.6981811523438 599.6016235351562 150.8771057128906 599.7841796875 151.0440673828125 599.95556640625 C 151.6770935058594 600.6051025390625 152.5247344970703 600.9627685546875 153.4308776855469 600.9627685546875 L 158.0359191894531 600.9627685546875 Z" stroke="none" fill="#fff"/>
  </g>
</svg>
