<?xml version="1.0" encoding="utf-8"?>
<!-- Generator: Adobe Illustrator 26.3.1, SVG Export Plug-In . SVG Version: 6.00 Build 0)  -->
<svg version="1.1" id="Calque_1" xmlns="http://www.w3.org/2000/svg" xmlns:xlink="http://www.w3.org/1999/xlink" x="0px" y="0px"
	 viewBox="0 0 66.2 63" style="enable-background:new 0 0 66.2 63;" xml:space="preserve">
<style type="text/css">
	.st0{fill:#7A7F83;}
</style>
<g>
	<path class="st0" d="M31.3,15.8c-7.9,0-14.3,6.4-14.3,14.3c0,4,1.7,7.6,4.3,10.2c1.1-1.3,2.6-2.3,4.2-2.8c2.6-0.8,5.4-0.4,7.7,1.2
		c1.6-5.4,6.8-8.8,12.4-8c0-0.2,0-0.4,0-0.5V30c0-3.8-1.5-7.4-4.2-10C38.7,17.3,35.1,15.8,31.3,15.8C31.3,15.8,31.3,15.8,31.3,15.8z
		"/>
	<path class="st0" d="M31.3,15L31.3,15L31.3,15c0.5,0,0.8-0.4,0.8-0.8V2.5c0-0.5-0.4-0.8-0.8-0.8c-0.5,0-0.8,0.4-0.8,0.8v11.7
		C30.4,14.6,30.8,15,31.3,15z"/>
	<path class="st0" d="M23.8,15.3c0.1,0.3,0.4,0.5,0.8,0.5c0.1,0,0.2,0,0.4-0.1l0,0c0.4-0.2,0.6-0.7,0.4-1.1L22.6,9
		c-0.2-0.4-0.7-0.6-1.1-0.4c-0.4,0.2-0.6,0.7-0.4,1.1L23.8,15.3z"/>
	<path class="st0" d="M37,15.5L37,15.5c0.1,0,0.2,0,0.3,0c0.3,0,0.7-0.2,0.8-0.6l2-5.8C40.2,8.7,40,8.2,39.6,8
		c-0.4-0.1-0.9,0.1-1.1,0.5l-2,5.8C36.3,14.8,36.6,15.3,37,15.5z"/>
	<path class="st0" d="M46.3,23.8L46.3,23.8c0.1,0.3,0.4,0.5,0.8,0.5c0.1,0,0.2,0,0.4-0.1l5.6-2.7c0.4-0.2,0.6-0.7,0.4-1.1
		c-0.2-0.4-0.7-0.6-1.1-0.4l-5.6,2.7C46.3,22.8,46.1,23.3,46.3,23.8z"/>
	<path class="st0" d="M10.5,40.5l5.6-2.7c0.4-0.2,0.6-0.7,0.4-1.1c-0.2-0.4-0.7-0.6-1.1-0.4l-5.6,2.7c-0.4,0.2-0.6,0.7-0.4,1.1l0,0
		c0.1,0.3,0.4,0.5,0.8,0.5C10.3,40.5,10.4,40.5,10.5,40.5z"/>
	<path class="st0" d="M9.4,23.1l5.8,2c0.1,0,0.2,0,0.3,0c0.3,0,0.7-0.2,0.8-0.6c0.1-0.4-0.1-0.9-0.5-1.1l-5.8-2
		C9.5,21.3,9,21.6,8.8,22v0C8.7,22.4,8.9,22.9,9.4,23.1z"/>
	<path class="st0" d="M46.7,30.1L46.7,30.1c0,0.5,0.4,0.8,0.8,0.8c0,0,0,0,0,0h11.7c0.5,0,0.8-0.4,0.8-0.8c0-0.5-0.4-0.8-0.8-0.8
		H47.6C47.1,29.3,46.7,29.7,46.7,30.1z"/>
	<path class="st0" d="M15.1,30.5c0-0.5-0.4-0.8-0.8-0.8H2.5c-0.5,0-0.8,0.4-0.8,0.8v0c0,0.5,0.4,0.8,0.8,0.8h11.7
		C14.7,31.3,15.1,30.9,15.1,30.5z"/>
	<path class="st0" d="M18.7,19.6c0.2,0.2,0.4,0.2,0.6,0.2c0.2,0,0.4-0.1,0.6-0.2c0.3-0.3,0.3-0.9,0-1.2l-8.3-8.3
		c-0.3-0.3-0.9-0.3-1.2,0l0,0c-0.3,0.3-0.3,0.9,0,1.2L18.7,19.6z"/>
	<path class="st0" d="M19.8,41.6L19.8,41.6c-0.3-0.3-0.9-0.3-1.2,0l-8.3,8.3c-0.3,0.3-0.3,0.9,0,1.2c0.2,0.2,0.4,0.2,0.6,0.2
		c0.2,0,0.4-0.1,0.6-0.2l8.3-8.3C20.2,42.5,20.2,42,19.8,41.6z"/>
	<path class="st0" d="M42.6,19.2c0.2,0,0.4-0.1,0.6-0.2l8.3-8.3c0.3-0.3,0.3-0.9,0-1.2l0,0c-0.2-0.2-0.4-0.2-0.6-0.2c0,0,0,0,0,0
		c-0.2,0-0.4,0.1-0.6,0.2L42,17.8c-0.3,0.3-0.3,0.9,0,1.2C42.1,19.1,42.3,19.2,42.6,19.2z"/>
	<path class="st0" d="M56,44.3c-0.4,0-0.9,0-1.3,0.1L54,44.5l0.1-0.7c1.1-5.5-2.4-10.8-7.9-12.1c-5.6-1.2-11.1,2.3-12.3,7.9
		l-0.2,0.8l-0.6-0.5c-2.1-1.7-4.8-2.2-7.3-1.5c-2,0.6-3.7,2-4.6,3.8c-1,1.9-1.2,4-0.6,6l0.2,0.6h-0.9c-3.4,0-6.2,2.8-6.2,6.2
		c0,3.4,2.8,6.2,6.2,6.2h36.7c1.2,0,2.4-0.4,3.5-1.1c2.7-1.5,4.4-4.4,4.4-7.5C64.5,48.1,60.7,44.3,56,44.3z"/>
</g>
</svg>
