<?xml version="1.0" encoding="utf-8"?>
<!-- Generator: Adobe Illustrator 26.3.1, SVG Export Plug-In . SVG Version: 6.00 Build 0)  -->
<svg version="1.1" id="Calque_1" xmlns="http://www.w3.org/2000/svg" xmlns:xlink="http://www.w3.org/1999/xlink" x="0px" y="0px"
	 viewBox="0 0 70.3 66" style="enable-background:new 0 0 70.3 66;" xml:space="preserve">
<style type="text/css">
	.st0{fill:#7A7F83;}
</style>
<g>
	<polygon class="st0" points="68.2,60.3 60.1,56.7 60.1,59.3 6.8,59.3 6.8,10 9.4,10 5.8,2 2.1,10 4.7,10 4.7,61.4 60.1,61.4 
		60.1,64 	"/>
	<polygon class="st0" points="32.9,36.6 25.7,43.7 9,26.9 9,57.1 54.6,57.1 54.6,48.6 49.7,53.4 	"/>
	<polygon class="st0" points="9,23 25.7,39.8 32.9,32.6 49.7,49.5 54.6,44.6 54.6,38.5 49.7,43.4 32.9,26.5 25.7,33.6 9,16.8 	"/>
</g>
</svg>
