<?xml version="1.0" encoding="utf-8"?>
<!-- Generator: Adobe Illustrator 25.4.2, SVG Export Plug-In . SVG Version: 6.00 Build 0)  -->
<svg version="1.1" id="Calque_1" xmlns="http://www.w3.org/2000/svg" xmlns:xlink="http://www.w3.org/1999/xlink" x="0px" y="0px"
	 viewBox="0 0 36.4 50" style="enable-background:new 0 0 36.4 50;" xml:space="preserve">
<style type="text/css">
	.st0{fill-rule:evenodd;clip-rule:evenodd;fill:#51B748;}
	.st1{fill:#FFFFFF;}
	.st2{enable-background:new    ;}
	.st3{fill:#51B748;}
</style>
<path class="st0" d="M18.2,0C8.1,0.1-0.1,8.3,0,18.4C0,33.3,18.2,50,18.2,50s18.2-17.3,18.2-31.6C36.4,8.3,28.3,0.1,18.2,0z"/>
<circle class="st1" cx="18.4" cy="19" r="12"/>
<g class="st2">
	<path class="st3" d="M23.2,17.2c0,1.4-0.4,2.4-1.3,3.2s-2.1,1.1-3.7,1.1h-1.2V26h-2.7V13.2h4.1c1.6,0,2.7,0.3,3.6,1
		C22.8,14.8,23.2,15.8,23.2,17.2z M17.1,19.2H18c0.8,0,1.5-0.2,1.9-0.5s0.6-0.8,0.6-1.4c0-0.6-0.2-1.1-0.5-1.4
		c-0.3-0.3-0.9-0.5-1.6-0.5h-1.2V19.2z"/>
</g>
</svg>
