<?xml version="1.0" encoding="utf-8"?>
<!-- Generator: Adobe Illustrator 25.4.2, SVG Export Plug-In . SVG Version: 6.00 Build 0)  -->
<svg version="1.1" id="Calque_1" xmlns="http://www.w3.org/2000/svg" xmlns:xlink="http://www.w3.org/1999/xlink" x="0px" y="0px"
	 viewBox="0 0 36.4 50" style="enable-background:new 0 0 36.4 50;" xml:space="preserve">
<style type="text/css">
	.st0{fill-rule:evenodd;clip-rule:evenodd;fill:#C12121;}
	.st1{fill:#FFFFFF;}
	.st2{enable-background:new    ;}
	.st3{fill:#C12121;}
</style>
<path class="st0" d="M18.2,0C8.1,0.1-0.1,8.3,0,18.4C0,33.3,18.2,50,18.2,50s18.2-17.3,18.2-31.6C36.4,8.3,28.3,0.1,18.2,0z"/>
<circle class="st1" cx="18" cy="19.4" r="12"/>
<g class="st2">
	<path class="st3" d="M22.8,17.2c0,1.4-0.4,2.4-1.3,3.2s-2.1,1.1-3.7,1.1h-1.2V26H14V13.2h4.1c1.6,0,2.7,0.3,3.6,1
		C22.4,14.8,22.8,15.8,22.8,17.2z M16.7,19.2h0.9c0.8,0,1.5-0.2,1.9-0.5s0.6-0.8,0.6-1.4c0-0.6-0.2-1.1-0.5-1.4
		c-0.3-0.3-0.9-0.5-1.6-0.5h-1.2V19.2z"/>
</g>
</svg>
