<?xml version="1.0" encoding="utf-8"?>
<!-- Generator: Adobe Illustrator 25.4.2, SVG Export Plug-In . SVG Version: 6.00 Build 0)  -->
<svg version="1.1" id="Calque_1" xmlns="http://www.w3.org/2000/svg" xmlns:xlink="http://www.w3.org/1999/xlink" x="0px" y="0px"
	 viewBox="0 0 36.4 50" style="enable-background:new 0 0 36.4 50;" xml:space="preserve">
<style type="text/css">
	.st0{fill-rule:evenodd;clip-rule:evenodd;fill:#51B748;}
	.st1{fill:#FFFFFF;}
	.st2{enable-background:new    ;}
	.st3{fill:#51B748;}
</style>
<path class="st0" d="M18.2,0C8.1,0.1-0.1,8.3,0,18.4C0,33.3,18.2,50,18.2,50s18.2-17.3,18.2-31.6C36.4,8.3,28.3,0.1,18.2,0z"/>
<circle class="st1" cx="17.8" cy="19.2" r="12"/>
<g class="st2">
	<path class="st3" d="M16.6,26l-3.1-10.1h-0.1c0.1,2.1,0.2,3.4,0.2,4.1v6h-2.4V13.2h3.7l3,9.8h0.1l3.2-9.8h3.7V26h-2.5v-6.1
		c0-0.3,0-0.6,0-1s0-1.4,0.1-3h-0.1L19.1,26H16.6z"/>
</g>
</svg>
