<svg id="hausse" xmlns="http://www.w3.org/2000/svg" width="32" height="20" viewBox="0 0 32 20">
  <rect id="Rectangle_Copy_2" data-name="Rectangle Copy 2" width="32" height="20" rx="8" fill="rgba(19,129,10,0.2)"/>
  <path id="Mask" d="M19,.786V5.5a.792.792,0,0,1-1.583,0V2.671L11.242,8.8a.769.769,0,0,1-1.108,0l-3.4-3.379L1.346,10.764A.721.721,0,0,1,.792,11a.721.721,0,0,1-.554-.236.756.756,0,0,1,0-1.1L6.175,3.771a.769.769,0,0,1,1.108,0l3.4,3.379,5.621-5.579h-2.85a.745.745,0,0,1-.792-.786A.745.745,0,0,1,13.458,0h4.75a.479.479,0,0,1,.317.079.95.95,0,0,1,.4.393A.47.47,0,0,1,19,.786Z" transform="translate(7 5)" fill="#13810a"/>
</svg>
