<svg xmlns="http://www.w3.org/2000/svg" width="20.217" height="27" viewBox="0 0 20.217 27">
  <g id="humidité" transform="translate(0.5 0.5)">
    <path id="Union_12" data-name="Union 12" d="M0,20.913c0-4.7,4.495-9.252,4.687-9.443a.582.582,0,0,1,.8,0c.192.192,4.688,4.742,4.688,9.443A5.087,5.087,0,1,1,0,20.913Zm1.13,0a3.956,3.956,0,0,0,7.913,0c0-3.463-2.878-7.008-3.956-8.213C4.01,13.906,1.13,17.455,1.13,20.913ZM9.043,9.6c0-4.7,4.5-9.251,4.688-9.442a.581.581,0,0,1,.8,0C14.721.35,19.217,4.9,19.217,9.6a5.087,5.087,0,1,1-10.175,0Zm1.131,0a3.956,3.956,0,1,0,7.913,0c0-3.463-2.879-7.008-3.956-8.213C13.054,2.595,10.174,6.145,10.174,9.6Z" fill="#0075a4" stroke="rgba(0,0,0,0)" stroke-width="1"/>
  </g>
</svg>
