<?xml version="1.0" encoding="utf-8"?>
<!-- Generator: Adobe Illustrator 26.2.1, SVG Export Plug-In . SVG Version: 6.00 Build 0)  -->
<svg version="1.1" id="Calque_1" xmlns="http://www.w3.org/2000/svg" xmlns:xlink="http://www.w3.org/1999/xlink" x="0px" y="0px"
	 viewBox="0 0 20.2 27" style="enable-background:new 0 0 20.2 27;" xml:space="preserve">
<style type="text/css">
	.st0{fill:#FFFFFF;}
</style>
<g id="humidité" transform="translate(0.5 0.5)">
	<path id="Union_12" class="st0" d="M0,20.9c0-4.7,4.5-9.3,4.7-9.4c0.2-0.2,0.6-0.2,0.8,0c0.2,0.2,4.7,4.7,4.7,9.4
		c0,2.8-2.3,5.1-5.1,5.1S0,23.7,0,20.9z M1.1,20.9c0,2.2,1.8,4,4,4s4-1.8,4-4c0-3.5-2.9-7-4-8.2C4,13.9,1.1,17.5,1.1,20.9z M9,9.6
		c0-4.7,4.5-9.3,4.7-9.4c0.2-0.2,0.6-0.2,0.8,0c0.2,0.2,4.7,4.7,4.7,9.4c0,2.8-2.3,5.1-5.1,5.1S9,12.4,9,9.6L9,9.6z M10.2,9.6
		c0,2.2,1.8,4,4,4s4-1.8,4-4c0-3.5-2.9-7-4-8.2C13.1,2.6,10.2,6.1,10.2,9.6z"/>
</g>
</svg>
