<svg xmlns="http://www.w3.org/2000/svg" width="25" height="34.366" viewBox="0 0 25 34.366">
  <g id="icone_gps" transform="translate(21.429 29.457)">
    <path id="ee042861-bdd9-49d4-a340-5cffea25fbed" d="M40.714,20.543A12.583,12.583,0,0,0,28.214,33.2c0,10.258,12.5,21.712,12.5,21.712s12.5-11.9,12.5-21.712a12.6,12.6,0,0,0-12.5-12.654Z" transform="translate(-49.643 -50)" fill="#fff"/>
    <path id="Union_24" data-name="Union 24" d="M2046.609,14995.3v-6.468c-.023-1.979-.069-3.355,0-4.312v-.221h.019c.2-2.061,1.086-1.953,4.354-1.953h4.716s.865.041.335-.719l-1.9-2.363a.735.735,0,0,1,0-.889l.7-.888a.418.418,0,0,1,.7,0l4.467,5.705a.728.728,0,0,1,0,.884l-4.5,5.705a.418.418,0,0,1-.7,0l-.7-.888a.733.733,0,0,1,0-.888l1.833-2.364a.5.5,0,0,0-.166-.719h-4.915c-.55,0-.951-.016-1.242,0v10.381Z" transform="translate(-2061.037 -15001)" fill="#51b748"/>
  </g>
</svg>
