<svg xmlns="http://www.w3.org/2000/svg" xmlns:xlink="http://www.w3.org/1999/xlink" viewBox="0 0 21.33 19.34"><defs><style>.cls-1{fill:#fff;}.cls-2{clip-path:url(#clip-path);}</style><clipPath id="clip-path" transform="translate(5.33 3.33)"><path class="cls-1" d="M15.4,8.8l-12,6.86A2.64,2.64,0,0,1,2,16a2.64,2.64,0,0,1-1.4-.34c-.8-.46-.8-1.15,0-1.6L11.2,8,.6,1.94C-.2,1.49-.2.8.6.34a3.07,3.07,0,0,1,2.8,0l12,6.86C16.2,7.66,16.2,8.34,15.4,8.8Z"/></clipPath></defs><g id="Calque_2" data-name="Calque 2"><g id="Calque_1-2" data-name="Calque 1"><g id="Groupe_7" data-name="Groupe 7"><path id="Mask-2" class="cls-1" d="M15.4,8.8l-12,6.86A2.64,2.64,0,0,1,2,16a2.64,2.64,0,0,1-1.4-.34c-.8-.46-.8-1.15,0-1.6L11.2,8,.6,1.94C-.2,1.49-.2.8.6.34a3.07,3.07,0,0,1,2.8,0l12,6.86C16.2,7.66,16.2,8.34,15.4,8.8Z" transform="translate(5.33 3.33)"/><path class="cls-1" d="M15.4,8.8l-12,6.86A2.64,2.64,0,0,1,2,16a2.64,2.64,0,0,1-1.4-.34c-.8-.46-.8-1.15,0-1.6L11.2,8,.6,1.94C-.2,1.49-.2.8.6.34a3.07,3.07,0,0,1,2.8,0l12,6.86C16.2,7.66,16.2,8.34,15.4,8.8Z" transform="translate(5.33 3.33)"/><g class="cls-2"><g id="Groupe_de_masques_7" data-name="Groupe de masques 7"><g id="Icon_Color" data-name="Icon Color"><rect id="Shape" class="cls-1" width="16" height="16"/></g></g></g></g></g></g></svg>