<svg id="icone_corbeille" xmlns="http://www.w3.org/2000/svg" width="24" height="27.429" viewBox="0 0 24 27.429">
  <path id="Union_42" data-name="Union 42" d="M5.143,27.429a2.829,2.829,0,0,1-2.857-2.857V11.143a.879.879,0,0,1,.857-.857H20.857a.879.879,0,0,1,.857.857V24.572a2.83,2.83,0,0,1-2.857,2.857Zm8.572-12.572v8a.54.54,0,0,0,.571.572h1.143A.54.54,0,0,0,16,22.857v-8a.539.539,0,0,0-.571-.571H14.286A.539.539,0,0,0,13.714,14.858ZM8,14.858v8a.54.54,0,0,0,.572.572H9.714a.54.54,0,0,0,.572-.572v-8a.54.54,0,0,0-.572-.571H8.572A.54.54,0,0,0,8,14.858ZM.857,8A.879.879,0,0,1,0,7.143V5.429a.878.878,0,0,1,.857-.857H8V2.286A2.293,2.293,0,0,1,10.286,0h3.428A2.292,2.292,0,0,1,16,2.286V4.572h7.143A.879.879,0,0,1,24,5.429V7.143A.879.879,0,0,1,23.143,8Zm9.429-5.143V4.572h3.428V2.857a.54.54,0,0,0-.572-.571H10.857A.54.54,0,0,0,10.286,2.857Z" fill="#bfbfbf"/>
</svg>
