<?xml version="1.0" encoding="utf-8"?>
<!-- Generator: Adobe Illustrator 26.2.1, SVG Export Plug-In . SVG Version: 6.00 Build 0)  -->
<svg version="1.1" id="Calque_1" xmlns="http://www.w3.org/2000/svg" xmlns:xlink="http://www.w3.org/1999/xlink" x="0px" y="0px"
	 viewBox="0 0 25.6 24.8" style="enable-background:new 0 0 25.6 24.8;" xml:space="preserve">
<style type="text/css">
	.st0{fill:#0075A4;}
	.st1{clip-path:url(#SVGID_00000163789759009787967450000008979011434768170395_);}
</style>
<g id="a">
</g>
<g>
	<g>
		<path id="SVGID_1_" class="st0" d="M24.6,12.3c0,0.8-0.5,1.4-1.2,1.5h-0.2h-8.9v8.8c0,0.8-0.5,1.4-1.2,1.5h-0.2
			c-0.8,0-1.4-0.5-1.5-1.2v-0.2v-8.9H2.6c-0.8,0-1.5-0.5-1.5-1.2v-0.2c0-0.8,0.5-1.4,1.2-1.5h0.2h8.8V2.2c0.2-0.8,0.6-1.5,1.4-1.5
			h0.2c0.8,0,1.4,0.5,1.5,1.2V2v8.8H23c0.8,0,1.4,0.5,1.5,1.2C24.6,12.3,24.6,12.3,24.6,12.3z"/>
	</g>
	<g>
		<defs>
			<path id="SVGID_00000166674336359193406050000006459955451797612959_" d="M24.6,12.3c0,0.8-0.5,1.4-1.2,1.5h-0.2h-8.9v8.8
				c0,0.8-0.5,1.4-1.2,1.5h-0.2c-0.8,0-1.4-0.5-1.5-1.2v-0.2v-8.9H2.6c-0.8,0-1.5-0.5-1.5-1.2v-0.2c0-0.8,0.5-1.4,1.2-1.5h0.2h8.8
				V2.2c0.2-0.8,0.6-1.5,1.4-1.5h0.2c0.8,0,1.4,0.5,1.5,1.2V2v8.8H23c0.8,0,1.4,0.5,1.5,1.2C24.6,12.3,24.6,12.3,24.6,12.3z"/>
		</defs>
		<use xlink:href="#SVGID_00000166674336359193406050000006459955451797612959_"  style="overflow:visible;fill:#0075A4;"/>
		<clipPath id="SVGID_00000183945394944004623290000004066499804033782456_">
			<use xlink:href="#SVGID_00000166674336359193406050000006459955451797612959_"  style="overflow:visible;"/>
		</clipPath>
		<g id="Groupe_de_masques_8" style="clip-path:url(#SVGID_00000183945394944004623290000004066499804033782456_);">
			<g id="Icon_Color" transform="translate(-2.549 -2.549)">
				<rect id="Shape" x="3.5" y="3.1" class="st0" width="23.5" height="23.5"/>
			</g>
		</g>
	</g>
</g>
</svg>
