<svg xmlns="http://www.w3.org/2000/svg" width="17" height="17" viewBox="0 0 17 17">
  <g id="icone_calendrier" transform="translate(0.5 0.5)">
    <path id="Exclusion_2" data-name="Exclusion 2" d="M13.6,16H2.4A2.248,2.248,0,0,1,0,13.818V3.636A2.248,2.248,0,0,1,2.4,1.455H4V.727A.726.726,0,0,1,4.8,0a.725.725,0,0,1,.8.727v.728h4.8V.727A.725.725,0,0,1,11.2,0a.726.726,0,0,1,.8.727v.728h1.6A2.248,2.248,0,0,1,16,3.636V13.818A2.248,2.248,0,0,1,13.6,16ZM1.6,7.273v6.546a.725.725,0,0,0,.8.727H13.6a.725.725,0,0,0,.8-.727V7.273Zm.8-4.364a.725.725,0,0,0-.8.727V5.818H14.4V3.636a.725.725,0,0,0-.8-.727H12v.727a.725.725,0,0,1-.8.727.725.725,0,0,1-.8-.727V2.909H5.6v.727a.726.726,0,0,1-.8.727A.725.725,0,0,1,4,3.636V2.909Z" fill="#383f45" stroke="rgba(0,0,0,0)" stroke-width="1"/>
  </g>
</svg>
