<svg xmlns="http://www.w3.org/2000/svg" width="35.78" height="33" viewBox="0 0 35.78 33">
  <g id="icone_magasin" transform="translate(0 0)">
    <path id="Tracé_659" data-name="Tracé 659" d="M110.668,100.867a.565.565,0,0,0-.529-.175l-2.6.487-2.01-1.721a.582.582,0,0,0-.483-.129l-2.594.489-2-1.721a.583.583,0,0,0-.481-.129l-2.6.489-2-1.719a.584.584,0,0,0-.483-.129L92.3,97.1l-2-1.717a.577.577,0,0,0-.933.288l-1.308,4.874-1.692-.812a.584.584,0,0,0-.5,0l-2.381,1.142-2.373-1.142a.584.584,0,0,0-.5,0l-2.373,1.142-2.377-1.142a.575.575,0,0,0-.825.519V126.69a1.55,1.55,0,0,0,1.55,1.548H95.674a1.547,1.547,0,0,0,1.54-1.491l4.843,1.3a1.615,1.615,0,0,0,.4.052,1.551,1.551,0,0,0,1.5-1.15l6.845-25.539A.574.574,0,0,0,110.668,100.867Zm-14.6,25.823a.4.4,0,0,1-.4.4H76.592a.4.4,0,0,1-.4-.4v-21.4H93.73a.576.576,0,1,0,0-1.152H76.194v-2.973l1.8.865a.579.579,0,0,0,.5,0l2.375-1.142,2.373,1.142a.584.584,0,0,0,.5,0l2.381-1.142,2.071.994h0l.006,0,.3.146a.584.584,0,0,0,.5,0l2.381-1.142,2.385,1.142a.584.584,0,0,0,.5,0l1.806-.865V126.69Zm6.772-.044a.4.4,0,0,1-.187.242.394.394,0,0,1-.3.04l-5.131-1.373v-7.974l1.048.852-.36,1.352a.231.231,0,1,0,.446.119l.362-1.354,1.7-.273a.234.234,0,0,0,.187-.169l.483-1.812.483-1.812h0l.483-1.812h0l.319-1.194a.232.232,0,0,0-.448-.119l-.279,1.05-1.6.258-1.258-1.019.281-1.048a.232.232,0,1,0-.448-.119l-.321,1.208-.479,1.8h0v0l-.483,1.81-.115.435v-6.293a.216.216,0,0,0,.181-.15l.485-1.817a.231.231,0,1,0-.446-.119l-.219.823v-5.187l8.895,2.385a.576.576,0,0,0,.3-1.114l-9.193-2.466v-1.546a.576.576,0,0,0-.827-.519l-2.383,1.142L91.63,99.728a.579.579,0,0,0-.5,0l-.579.277-1.073-.287.769-2.868,1.515,1.3a.567.567,0,0,0,.483.131l2.587-.489,2,1.717a.571.571,0,0,0,.483.131l2.6-.488,2,1.719a.582.582,0,0,0,.483.131l2.594-.488,2.01,1.721a.572.572,0,0,0,.481.129l1.969-.369ZM98.309,113.46l.352-1.321,1.062.86-.352,1.321-.127-.1Zm2.244,3.062-.352,1.321-1.348.217.352-1.319,1.046-.169Zm.483-1.81-.352,1.319-1.348.219.352-1.321.456-.073Zm.131-.49-1.348.217.352-1.321,1.348-.217Zm-2.989-.271.808.654.254.206-.352,1.321-1.062-.862Zm-.483,1.81,1.062.86-.352,1.321-1.062-.86Z" transform="translate(-75.042 -95.239)" fill="#13810a"/>
    <path id="Tracé_660" data-name="Tracé 660" d="M88.663,103.129a.231.231,0,0,0-.283.165l-.344,1.294a.231.231,0,1,0,.446.117l.346-1.292A.234.234,0,0,0,88.663,103.129Z" transform="translate(-63.053 -87.961)" fill="#13810a"/>
    <path id="Tracé_661" data-name="Tracé 661" d="M82.777,103.312a.231.231,0,0,0-.233.231v1.541l-1.966.879-1.966-.879v-1.541a.231.231,0,1,0-.462,0v6.508h0v2.408a.228.228,0,0,0,.137.212l2.06.921v1.842a.232.232,0,1,0,.464,0v-1.842l2.06-.921a.231.231,0,0,0,.137-.212v-2.408h0v-6.508A.23.23,0,0,0,82.777,103.312Zm-2.429,5.464v1.9l-1.735-.775V108Zm2.2,1.125-1.733.773v-1.9L82.545,108Zm0-2.41-1.733.775v-1.9l1.733-.775Zm-2.2.777-1.735-.777v-1.9l1.735.775Zm-1.735,2.141,1.735.775v1.9l-1.735-.775Zm3.931,1.9-1.733.775v-1.9l1.733-.775Z" transform="translate(-72.171 -87.785)" fill="#13810a"/>
    <path id="Tracé_662" data-name="Tracé 662" d="M79.525,105.307a.232.232,0,0,0,.233-.231v-1.721a.232.232,0,0,0-.464,0v1.721A.231.231,0,0,0,79.525,105.307Z" transform="translate(-71.116 -87.958)" fill="#13810a"/>
    <path id="Tracé_663" data-name="Tracé 663" d="M85.1,104.725a.232.232,0,0,0-.231.233v1.085l-1.479.662-1.477-.662v-1.085a.232.232,0,1,0-.464,0v3.11h0v3.748a.231.231,0,0,0,.137.212l1.573.7v1.4a.232.232,0,0,0,.463,0v-1.4l1.571-.7a.229.229,0,0,0,.138-.212v-3.748h0v-3.11A.232.232,0,0,0,85.1,104.725Zm-3.187,3.7.764.34.481.217v1.366l-1.244-.558Zm2.956,0v1.365l-1.246.558v-1.366l.463-.208Zm-1.246-1.317,1.246-.558v1.367l-1.246.558Zm-.465,1.367h0l-1.244-.558V106.55l1.244.558Zm-1.244,3.191V110.3l1.244.558v1.367Zm1.71.558v-1.367l1.246-.558v1.367Z" transform="translate(-69.128 -86.48)" fill="#13810a"/>
    <path id="Tracé_664" data-name="Tracé 664" d="M82.569,106.339a.231.231,0,0,0,.231-.231V104.77a.232.232,0,1,0-.464,0v1.339A.232.232,0,0,0,82.569,106.339Z" transform="translate(-68.308 -86.654)" fill="#13810a"/>
  </g>
</svg>
