<svg id="icone_contact" xmlns="http://www.w3.org/2000/svg" width="26" height="28" viewBox="0 0 26 28">
  <g id="repertoire_tel" data-name="repertoire tel">
    <path id="Tracé_669" data-name="Tracé 669" d="M43.075,20H25.618a2.939,2.939,0,0,0-2.832,2.8v.933h-.929a1.867,1.867,0,0,0,0,3.733h.929v4.667h-.929a1.867,1.867,0,0,0,0,3.733h.929v4.667h-.929a1.867,1.867,0,0,0,0,3.733h.929V45.2A2.939,2.939,0,0,0,25.618,48H43.075A3.046,3.046,0,0,0,46,45.06V22.66A2.807,2.807,0,0,0,43.075,20ZM41.4,38.807l-1.3,1.307a1.361,1.361,0,0,1-1.068.42A12.683,12.683,0,0,1,31.05,36.94a12.336,12.336,0,0,1-3.575-8.027,1.482,1.482,0,0,1,.418-1.073l1.3-1.307a1.411,1.411,0,0,1,2.136.14l1.207,1.493a1.475,1.475,0,0,1,.046,1.773l-1.021,1.447a.438.438,0,0,0,.046.607l2.136,2.38,2.368,2.147a.436.436,0,0,0,.6.047l1.439-1.027a1.458,1.458,0,0,1,1.764.047L41.4,36.8A1.368,1.368,0,0,1,41.4,38.807Z" transform="translate(-20 -20)" fill="#0b2357"/>
  </g>
</svg>
