<svg xmlns="http://www.w3.org/2000/svg" width="42.088" height="28" viewBox="0 0 42.088 28">
  <g id="icone_visu_tc" transform="translate(-13 -16.5)">
    <path id="_Color" data-name=" ↳Color" d="M17.031,24.034A17.742,17.742,0,0,1,6.617,20.663,18.872,18.872,0,0,1,0,12.016,18.87,18.87,0,0,1,6.617,3.371a17.773,17.773,0,0,1,20.828,0,18.872,18.872,0,0,1,6.617,8.645,18.872,18.872,0,0,1-6.617,8.646A17.742,17.742,0,0,1,17.031,24.034Zm0-20.028a7.888,7.888,0,0,0-7.741,8.01,7.889,7.889,0,0,0,7.741,8.012,7.889,7.889,0,0,0,7.742-8.012A7.888,7.888,0,0,0,17.031,4.006Zm0,12.818a4.733,4.733,0,0,1-4.644-4.808A4.733,4.733,0,0,1,17.031,7.21a4.733,4.733,0,0,1,4.646,4.806A4.734,4.734,0,0,1,17.031,16.824Z" transform="translate(13 16.5)" fill="#0b2357"/>
    <g id="zoomin" transform="translate(34.542 23.917)">
      <path id="Tracé_616" data-name="Tracé 616" d="M22.39,20.505l-4.926-4.883a8.609,8.609,0,1,0-1.842,1.842l4.926,4.926a.621.621,0,0,0,.9,0l.9-.9A.774.774,0,0,0,22.39,20.505ZM10.567,16.564a6,6,0,1,1,6-6A6.015,6.015,0,0,1,10.567,16.564Z" transform="translate(-2 -2)" fill="#51b748"/>
    </g>
  </g>
</svg>
