<svg id="icone_photo" xmlns="http://www.w3.org/2000/svg" width="24" height="20" viewBox="0 0 24 20">
  <path id="icone_photo-2" data-name="icone_photo" d="M14,13a4,4,0,1,0,4,4A4.012,4.012,0,0,0,14,13Zm10-3H21.4a2.086,2.086,0,0,1-1.7-.9L18.55,7.35A2.242,2.242,0,0,0,16.45,6h-4.9A2.364,2.364,0,0,0,9.4,7.35L8.25,9.1a2.019,2.019,0,0,1-1.7.9H4a2.006,2.006,0,0,0-2,2V24a2.006,2.006,0,0,0,2,2H24a2.006,2.006,0,0,0,2-2V12A2.006,2.006,0,0,0,24,10ZM14,23a6,6,0,1,1,6-6A6.018,6.018,0,0,1,14,23Z" transform="translate(-2 -6)" fill="#fff"/>
</svg>
