<?xml version="1.0" encoding="utf-8"?>
<!-- Generator: Adobe Illustrator 26.2.1, SVG Export Plug-In . SVG Version: 6.00 Build 0)  -->
<svg version="1.1" id="Calque_1" xmlns="http://www.w3.org/2000/svg" xmlns:xlink="http://www.w3.org/1999/xlink" x="0px" y="0px"
	 viewBox="0 0 25.6 24.8" style="enable-background:new 0 0 25.6 24.8;" xml:space="preserve">
<style type="text/css">
	.st0{fill:#797E82;}
</style>
<g id="a">
</g>
<path class="st0" d="M25.6,9.3C25.5,9.1,25.4,9,25.2,9h-8.8l-3.3-8.8c-0.1-0.3-0.6-0.3-0.7,0L9.2,9H0.4C0.2,9,0.1,9.1,0,9.3
	C0,9.4,0,9.6,0.1,9.7l7,5.8l-3.4,8.8c-0.1,0.1,0,0.3,0.1,0.4c0.1,0.1,0.3,0.1,0.4,0l8.5-4.9l8.5,4.9c0.1,0,0.1,0,0.2,0
	c0.1,0,0.2,0,0.2-0.1c0.1-0.1,0.2-0.3,0.1-0.4l-3.4-8.8l7-5.8C25.6,9.6,25.6,9.4,25.6,9.3z"/>
</svg>
