<svg xmlns="http://www.w3.org/2000/svg" viewBox="0 0 19.34 19.33"><defs><style>.cls-1{fill:#fff;}</style></defs><g id="Calque_2" data-name="Calque 2"><g id="Calque_1-2" data-name="Calque 1"><path id="icone_appel" data-name="icone appel" class="cls-1" d="M16.69,19.33h-.27a17.55,17.55,0,0,1-8-2.83,18.43,18.43,0,0,1-5.56-5.56A18.61,18.61,0,0,1,0,2.91,3.06,3.06,0,0,1,.62,1,2.76,2.76,0,0,1,2.39,0H5.3A2.68,2.68,0,0,1,8,2.3a9.52,9.52,0,0,0,.53,2.29,2.78,2.78,0,0,1-.62,2.83L7.24,8a13.67,13.67,0,0,0,4.06,4.06l.62-.61a2.92,2.92,0,0,1,1.94-.78,2.5,2.5,0,0,1,.89.16,9.52,9.52,0,0,0,2.29.53A2.67,2.67,0,0,1,19.34,14v2.64a2.92,2.92,0,0,1-.8,1.86A2.41,2.41,0,0,1,16.69,19.33ZM2.65,1.76a1.11,1.11,0,0,0-.71.36,1.19,1.19,0,0,0-.17.61A16.62,16.62,0,0,0,4.33,10a15.89,15.89,0,0,0,5,5,16.64,16.64,0,0,0,7.24,2.57.91.91,0,0,0,.71-.27.8.8,0,0,0,.26-.62V14a1,1,0,0,0-.71-.88h0a14.88,14.88,0,0,1-2.64-.7.82.82,0,0,0-1,.17L12.1,13.77a.7.7,0,0,1-.6.29A1,1,0,0,1,11,14,14.54,14.54,0,0,1,5.39,8.3a.94.94,0,0,1,.17-1.06L6.71,6.18a1.23,1.23,0,0,0,.18-1,9,9,0,0,1-.71-2.65.93.93,0,0,0-.88-.79Z"/></g></g></svg>