<svg xmlns="http://www.w3.org/2000/svg" width="18" height="18" viewBox="0 0 18 18">
  <path id="icone_appel" d="M5224.034,4466h-.247a16.479,16.479,0,0,1-7.479-2.63,17.188,17.188,0,0,1-5.178-5.178,17.455,17.455,0,0,1-2.63-7.479,2.823,2.823,0,0,1,.576-1.808,2.554,2.554,0,0,1,1.645-.9h2.712a2.485,2.485,0,0,1,2.466,2.137,9.017,9.017,0,0,0,.493,2.137,2.584,2.584,0,0,1-.576,2.63l-.576.575a12.824,12.824,0,0,0,3.782,3.781l.575-.576a2.74,2.74,0,0,1,1.808-.721,2.4,2.4,0,0,1,.822.145,9.03,9.03,0,0,0,2.137.494,2.483,2.483,0,0,1,2.138,2.465v2.466a2.7,2.7,0,0,1-.74,1.726A2.244,2.244,0,0,1,5224.034,4466Zm-13.068-16.355a1.006,1.006,0,0,0-.658.329,1.207,1.207,0,0,0-.164.576,15.551,15.551,0,0,0,2.383,6.739,14.919,14.919,0,0,0,4.685,4.685,15.567,15.567,0,0,0,6.741,2.384.8.8,0,0,0,.657-.247.746.746,0,0,0,.247-.576v-2.466a.892.892,0,0,0-.658-.821h-.007a13.716,13.716,0,0,1-2.458-.656.766.766,0,0,0-.346-.085.783.783,0,0,0-.558.25l-1.068,1.068a.669.669,0,0,1-.554.272.98.98,0,0,1-.434-.107,13.533,13.533,0,0,1-5.26-5.261.876.876,0,0,1,.165-.986l1.068-.986a1.143,1.143,0,0,0,.166-.9,8.394,8.394,0,0,1-.659-2.466.875.875,0,0,0-.821-.739Z" transform="translate(-5208.5 -4448)" fill="#51b748"/>
</svg>
