<?xml version="1.0" encoding="utf-8"?>
<!-- Generator: Adobe Illustrator 26.2.1, SVG Export Plug-In . SVG Version: 6.00 Build 0)  -->
<svg version="1.1" id="Calque_1" xmlns="http://www.w3.org/2000/svg" xmlns:xlink="http://www.w3.org/1999/xlink" x="0px" y="0px"
	 viewBox="0 0 22 15" style="enable-background:new 0 0 22 15;" xml:space="preserve">
<style type="text/css">
	.st0{fill:#51B748;}
</style>
<g id="a">
</g>
<g id="b">
	<g id="c">
		<g id="d" transform="translate(-13 -16.5)">
			<path id="e" class="st0" d="M24,31.5c-2.4,0-4.8-0.7-6.7-2.1c-1.9-1.3-3.4-3.2-4.3-5.4c2.4-6.1,9.2-9.1,15.3-6.7
				c3.1,1.2,5.5,3.6,6.7,6.7c-0.9,2.2-2.3,4.1-4.3,5.4C28.8,30.8,26.4,31.5,24,31.5z M24,19c-2.8,0-5,2.2-5,5s2.2,5,5,5s5-2.2,5-5
				S26.8,19,24,19z M24,27c-1.7,0-3-1.3-3-3s1.3-3,3-3s3,1.3,3,3S25.7,27,24,27z"/>
		</g>
	</g>
</g>
</svg>
