<svg xmlns="http://www.w3.org/2000/svg" width="31.837" height="28.673" viewBox="0 0 31.837 28.673">
  <g id="icone_point-relais" transform="translate(-1220.84 -118.796)">
    <path id="Tracé_667" data-name="Tracé 667" d="M1314.646,176.131a.675.675,0,0,0-.614-.087l-9.49,3.31a.676.676,0,0,0-.453.638v8.145a.676.676,0,0,0,.9.638l9.49-3.31a.676.676,0,0,0,.453-.638v-8.145A.675.675,0,0,0,1314.646,176.131Zm-1.067,8.216-8.139,2.838v-6.714l8.139-2.838Z" transform="translate(-64.755 -44.501)" fill="#13810a"/>
    <path id="Tracé_668" data-name="Tracé 668" d="M1231.9,121.466l14.277,5.075V130.3l-2.839.945v-3.791h0a.676.676,0,0,0-.525-.658l-13.032-4.633Zm8.674,5.967-3.814,1.269-13.361-4.445,4.283-1.406Zm-3.138,18.771V129.9l4.55-1.514v3.793a.675.675,0,0,0,.889.641l4.191-1.394a.676.676,0,0,0,.463-.641v-4.243l4.249-1.414v16.3Zm9.413-20.859L1234,120.777l2.762-.907,13.361,4.386Zm-25.106,16.087v-16.3l14.341,4.771v16.3Zm-.274,1,15,4.991a.915.915,0,0,0,.578,0l15-4.991a.916.916,0,0,0,.627-.869V124.636a.916.916,0,0,0-.63-.87l-15-4.925a.913.913,0,0,0-.571,0l-15,4.925a.916.916,0,0,0-.63.87v16.926A.916.916,0,0,0,1221.467,142.431Z" transform="translate(0)" fill="#13810a"/>
  </g>
</svg>
