<svg xmlns="http://www.w3.org/2000/svg" width="27" height="27" viewBox="0 0 27 27">
  <path id="icone_appel2" d="M5232.294,4463.9a13.526,13.526,0,0,1-3.205-.74,3.908,3.908,0,0,0-3.945.863l-.863.862a19.12,19.12,0,0,1-5.671-5.671l.863-.863a3.853,3.853,0,0,0,.863-3.945,13.525,13.525,0,0,1-.74-3.206,3.721,3.721,0,0,0-3.7-3.205h-4.068a3.807,3.807,0,0,0-2.465,1.356,4.2,4.2,0,0,0-.863,2.712,25.792,25.792,0,0,0,11.712,18.986,24.55,24.55,0,0,0,11.219,3.945h.37a3.355,3.355,0,0,0,2.589-1.11,4.109,4.109,0,0,0,1.11-2.589v-3.7A3.722,3.722,0,0,0,5232.294,4463.9Z" transform="translate(-5208.5 -4448)" fill="#fff"/>
</svg>
