<svg xmlns="http://www.w3.org/2000/svg" width="23.8" height="23.753" viewBox="0 0 23.8 23.753">
  <g id="icone_engrenage" transform="translate(-25.713 -25.533)">
    <path id="_0352dca9-3cda-4c90-95e1-2b086d4d08e5" data-name="0352dca9-3cda-4c90-95e1-2b086d4d08e5" d="M57.592,62.871a5.4,5.4,0,1,1,3.817-1.587,5.391,5.391,0,0,1-3.817,1.587Zm11.921-4.1V56.073l-.375-.125-2.915-.926-.768-1.851,1.476-3.142-1.916-1.916-.356.185-2.707,1.388L60.1,48.914l-1.166-3.267h-2.74l-.1.338-.958,2.892-1.851.773-3.207-1.481-1.9,1.916.185.356,1.388,2.726-.773,1.851-3.267,1.166v2.707l.375.125,2.9.958.773,1.851-1.532,3.193,1.916,1.916.352-.185,2.73-1.388,1.851.773L56.241,69.4h2.707l.125-.375.958-2.892,1.851-.773,3.147,1.476,1.916-1.916-.185-.352-1.388-2.707.768-1.851,3.374-1.245Z" transform="translate(-20 -20.113)" fill="#7a7f83" fill-rule="evenodd"/>
  </g>
</svg>
