<?xml version="1.0" encoding="UTF-8"?><svg xmlns="http://www.w3.org/2000/svg" viewBox="0 0 36.49 35.83"><defs><style>.d{fill:#bfbfbf;}</style></defs><g id="a"/><g id="b"><g id="c"><path class="d" d="M36.03,33.25l-8.75-8.46c2.07-2.61,3.32-5.91,3.32-9.49C30.6,6.86,23.74,0,15.3,0S0,6.86,0,15.3s6.86,15.3,15.3,15.3c3.77,0,7.22-1.38,9.89-3.65l8.75,8.46c.29,.28,.67,.42,1.04,.42s.78-.15,1.08-.46c.58-.6,.56-1.54-.04-2.12ZM3,15.3C3,8.52,8.52,3,15.3,3s12.3,5.52,12.3,12.3-5.52,12.3-12.3,12.3S3,22.08,3,15.3Z"/></g></g></svg>