<?xml version="1.0" encoding="utf-8"?>
<!-- Generator: Adobe Illustrator 25.4.2, SVG Export Plug-In . SVG Version: 6.00 Build 0)  -->
<svg version="1.1" id="Layer_1" xmlns="http://www.w3.org/2000/svg" xmlns:xlink="http://www.w3.org/1999/xlink" x="0px" y="0px"
	 viewBox="0 0 30 30" style="enable-background:new 0 0 30 30;" xml:space="preserve">
<style type="text/css">
	.st0{fill:#FFAE46;}
	.st1{fill:#6B99D2;}
</style>
<g id="_x31_5">
	<g>
		<path class="st0" d="M18.1,19c1.3-1.2,2.2-2.9,2.2-4.8c0-3.5-2.8-6.4-6.4-6.4c-1.5,0-2.8,0.5-3.9,1.3c-1.5,1.2-2.5,3-2.5,5
			c0,3.5,2.8,6.4,6.4,6.4C15.5,20.5,17,19.9,18.1,19z"/>
		<path class="st0" d="M13.9,7c0.1,0,0.2-0.1,0.2-0.2V1.4c0-0.1-0.1-0.2-0.2-0.2s-0.2,0.1-0.2,0.2v5.4C13.7,6.9,13.8,7,13.9,7z"/>
		<path class="st0" d="M10.7,7.2c0,0.1,0.1,0.1,0.2,0.1c0,0,0.1,0,0.1,0v0c0.1,0,0.1-0.2,0.1-0.3L9.8,4.5c0-0.1-0.2-0.1-0.3-0.1
			c-0.1,0-0.1,0.2-0.1,0.3L10.7,7.2z"/>
		<path class="st0" d="M17.3,21.5c0-0.1-0.2-0.1-0.3-0.1c0,0-0.1,0.1-0.1,0.1s0,0.1,0,0.1l1.2,2.6c0,0.1,0.1,0.1,0.2,0.1
			c0,0,0.1,0,0.1,0c0,0,0.1-0.1,0.1-0.1c0,0,0-0.1,0-0.1L17.3,21.5z"/>
		<path class="st0" d="M16.6,7.2L16.6,7.2C16.7,7.2,16.7,7.2,16.6,7.2c0.1,0,0.2,0,0.2-0.1l0.9-2.7c0,0,0-0.1,0-0.1
			c0,0-0.1-0.1-0.1-0.1c0,0-0.1,0-0.1,0c0,0-0.1,0.1-0.1,0.1L16.5,7C16.5,7.1,16.5,7.2,16.6,7.2z"/>
		<path class="st0" d="M11,21.5c0,0-0.1,0-0.1,0c0,0-0.1,0.1-0.1,0.1l-0.9,2.7c0,0,0,0.1,0,0.1c0,0,0.1,0.1,0.1,0.1c0,0,0,0,0.1,0
			c0,0,0.1,0,0.1,0c0,0,0.1-0.1,0.1-0.1l0.9-2.7C11.2,21.6,11.1,21.5,11,21.5z"/>
		<path class="st0" d="M21,11.1c0,0.1,0.1,0.1,0.2,0.1c0,0,0.1,0,0.1,0l2.6-1.2c0,0,0.1-0.1,0.1-0.1c0,0,0-0.1,0-0.1
			c0,0-0.1-0.1-0.1-0.1c0,0-0.1,0-0.1,0l-2.6,1.2C21,10.9,21,11.1,21,11.1z"/>
		<path class="st0" d="M7,17.4c0,0,0-0.1,0-0.1c0-0.1-0.2-0.1-0.3-0.1l-2.6,1.2c-0.1,0-0.1,0.2-0.1,0.3c0,0.1,0.1,0.1,0.2,0.1
			c0,0,0.1,0,0.1,0l2.6-1.2C6.9,17.5,7,17.4,7,17.4z"/>
		<path class="st0" d="M24,18l-2.7-0.9c0,0-0.1,0-0.1,0c0,0-0.1,0.1-0.1,0.1c0,0,0,0.1,0,0.1c0,0,0.1,0.1,0.1,0.1l2.7,0.9
			c0,0,0,0,0.1,0c0,0,0.1,0,0.1,0c0,0,0.1-0.1,0.1-0.1c0,0,0-0.1,0-0.1C24.1,18,24.1,18,24,18z"/>
		<path class="st0" d="M3.9,10.7l2.7,0.9c0,0,0,0,0.1,0c0.1,0,0.2,0,0.2-0.1c0,0,0-0.1,0-0.1c0,0-0.1-0.1-0.1-0.1l-2.7-0.9
			c-0.1,0-0.2,0-0.2,0.1c0,0,0,0.1,0,0.1C3.9,10.7,3.9,10.7,3.9,10.7z"/>
		<path class="st0" d="M14.1,22c-0.1,0-0.2,0.1-0.2,0.2v5.4c0,0.1,0.1,0.2,0.2,0.2c0.1,0,0.2-0.1,0.2-0.2v-5.4
			C14.3,22,14.2,22,14.1,22z"/>
		<path class="st0" d="M26.8,14h-5.4c-0.1,0-0.2,0.1-0.2,0.2c0,0.1,0.1,0.2,0.2,0.2h5.4c0.1,0,0.2-0.1,0.2-0.2
			C27,14.1,26.9,14,26.8,14z"/>
		<path class="st0" d="M6.3,14.3c0-0.1-0.1-0.2-0.2-0.2H0.7c-0.1,0-0.2,0.1-0.2,0.2c0,0.1,0.1,0.2,0.2,0.2h5.4
			C6.2,14.5,6.3,14.4,6.3,14.3z"/>
		<path class="st0" d="M19.6,19.6c-0.1-0.1-0.2-0.1-0.3,0c-0.1,0.1-0.1,0.2,0,0.3l3.8,3.8c0,0,0.1,0.1,0.1,0.1c0,0,0.1,0,0.1-0.1
			c0.1-0.1,0.1-0.2,0-0.3L19.6,19.6z"/>
		<path class="st0" d="M8.3,9.2c0,0,0.1,0.1,0.1,0.1c0,0,0.1,0,0.1-0.1c0.1-0.1,0.1-0.2,0-0.3L4.8,5.1C4.7,5,4.6,5,4.5,5.1
			c-0.1,0.1-0.1,0.2,0,0.3L8.3,9.2z"/>
		<path class="st0" d="M8.3,19.6l-3.8,3.8c0,0-0.1,0.1-0.1,0.1c0,0.1,0,0.1,0.1,0.1c0,0,0.1,0.1,0.1,0.1c0,0,0.1,0,0.1-0.1l3.8-3.8
			c0.1-0.1,0.1-0.2,0-0.3C8.5,19.5,8.4,19.5,8.3,19.6z"/>
		<path class="st0" d="M19.1,9c0,0,0.1,0,0.1-0.1l3.8-3.8c0.1-0.1,0.1-0.2,0-0.3c-0.1-0.1-0.2-0.1-0.3,0L19,8.6
			c-0.1,0.1-0.1,0.2,0,0.3C19,8.9,19.1,9,19.1,9z"/>
	</g>
	<path class="st1" d="M8.7,22.6L8.7,22.6c0-0.4-0.1-0.7-0.1-1.1c0-2.1,1.7-3.8,3.8-3.8c0.9,0,1.8,0.3,2.5,0.9
		c0.5-2.2,2.5-3.9,4.9-3.9c2.7,0,5,2.2,5,5c0,0.3,0,0.6-0.1,1c0.2,0,0.4,0,0.6,0c2.3,0,4.1,1.9,4.1,4.1c0,1.6-0.9,2.9-2.1,3.6
		c-0.5,0.3-1.1,0.5-1.7,0.5H8.7c-1.7,0-3.1-1.4-3.1-3.1l0,0C5.6,24,7,22.6,8.7,22.6z"/>
</g>
</svg>
