<?xml version="1.0" encoding="utf-8"?>
<!-- Generator: Adobe Illustrator 25.4.2, SVG Export Plug-In . SVG Version: 6.00 Build 0)  -->
<svg version="1.1" id="Layer_1" xmlns="http://www.w3.org/2000/svg" xmlns:xlink="http://www.w3.org/1999/xlink" x="0px" y="0px"
	 viewBox="0 0 30 30" style="enable-background:new 0 0 30 30;" xml:space="preserve">
<style type="text/css">
	.st0{fill:#26477A;}
	.st1{fill:#6B99D2;}
</style>
<g id="_x32_">
	<path class="st0" d="M25.1,10.5h-0.1c0.1-0.4,0.2-0.9,0.2-1.3c0-2.5-2.1-4.6-4.6-4.6c-1.1,0-2.1,0.4-2.9,1.1C17,3,14.7,1,11.8,1
		C8.6,1,5.9,3.6,5.9,6.9c0,0.4,0,0.8,0.1,1.1C5.8,8,5.5,8,5.3,8c-2.7,0-4.9,2.2-4.9,4.9c0,1.9,1,3.5,2.5,4.3c0.6,0.4,1.3,0.6,2,0.6
		h20.1c2,0,3.7-1.7,3.7-3.7v0C28.7,12.2,27.1,10.5,25.1,10.5z"/>
	<path class="st1" d="M11.8,16.3L11.8,16.3c0-0.3-0.1-0.6-0.1-1c0-1.8,1.5-3.3,3.3-3.3c0.8,0,1.5,0.3,2.1,0.8
		c0.4-1.9,2.1-3.3,4.2-3.3c2.4,0,4.3,1.9,4.3,4.3c0,0.3,0,0.5-0.1,0.8c0.2,0,0.3,0,0.5,0c2,0,3.5,1.6,3.5,3.5c0,1.3-0.7,2.5-1.8,3.1
		c-0.4,0.3-0.9,0.4-1.5,0.4H11.8c-1.5,0-2.6-1.2-2.6-2.6l0,0C9.1,17.4,10.3,16.3,11.8,16.3z"/>
	<path class="st1" d="M20.3,20.6L20.3,20.6c0-0.3,0.1-0.7,0.1-1.1c0-2-1.6-3.6-3.6-3.6c-0.9,0-1.7,0.3-2.3,0.8
		c-0.5-2.1-2.3-3.6-4.5-3.6c-2.6,0-4.6,2.1-4.6,4.6c0,0.3,0,0.6,0.1,0.9c-0.2,0-0.4,0-0.6,0c-2.1,0-3.9,1.7-3.9,3.9
		c0,1.5,0.8,2.7,2,3.4c0.5,0.3,1,0.5,1.6,0.5h15.7c1.6,0,2.9-1.3,2.9-2.9l0,0C23.1,21.9,21.8,20.6,20.3,20.6z"/>
	<path class="st0" d="M20.5,21.1L20.5,21.1c0-0.3,0.1-0.7,0.1-1.1c0-2-1.6-3.6-3.6-3.6c-0.9,0-1.7,0.3-2.3,0.8
		c-0.5-2.1-2.3-3.6-4.5-3.6c-2.6,0-4.6,2.1-4.6,4.6c0,0.3,0,0.6,0.1,0.9c-0.2,0-0.4,0-0.6,0c-2.1,0-3.9,1.7-3.9,3.9
		c0,1.5,0.8,2.7,2,3.4c0.5,0.3,1,0.5,1.6,0.5h15.7c1.6,0,2.9-1.3,2.9-2.9l0,0C23.4,22.4,22.1,21.1,20.5,21.1z"/>
	<path class="st0" d="M16.2,24.5L16.2,24.5c0-0.2,0-0.4,0-0.6c0-1.2,1-2.2,2.2-2.2c0.5,0,1,0.2,1.4,0.5c0.3-1.3,1.4-2.2,2.8-2.2
		c1.6,0,2.8,1.3,2.8,2.8c0,0.2,0,0.4-0.1,0.5c0.1,0,0.2,0,0.4,0c1.3,0,2.4,1.1,2.4,2.4c0,0.9-0.5,1.7-1.2,2.1
		c-0.3,0.2-0.6,0.3-1,0.3h-9.6c-1,0-1.8-0.8-1.8-1.8l0,0C14.5,25.3,15.3,24.5,16.2,24.5z"/>
	<path class="st1" d="M15.9,25.1L15.9,25.1c0-0.2,0-0.4,0-0.6c0-1.2,1-2.2,2.2-2.2c0.5,0,1,0.2,1.4,0.5c0.3-1.3,1.4-2.2,2.8-2.2
		c1.6,0,2.8,1.3,2.8,2.8c0,0.2,0,0.4-0.1,0.5c0.1,0,0.2,0,0.4,0c1.3,0,2.4,1.1,2.4,2.4c0,0.9-0.5,1.7-1.2,2.1
		c-0.3,0.2-0.6,0.3-1,0.3h-9.6c-1,0-1.8-0.8-1.8-1.8l0,0C14.2,25.9,15,25.1,15.9,25.1z"/>
</g>
</svg>
