<?xml version="1.0" encoding="utf-8"?>
<!-- Generator: Adobe Illustrator 25.4.2, SVG Export Plug-In . SVG Version: 6.00 Build 0)  -->
<svg version="1.1" id="Layer_1" xmlns="http://www.w3.org/2000/svg" xmlns:xlink="http://www.w3.org/1999/xlink" x="0px" y="0px"
	 viewBox="0 0 30 30" style="enable-background:new 0 0 30 30;" xml:space="preserve">
<style type="text/css">
	.st0{fill:#6B99D2;}
	.st1{fill:#26477A;}
	.st2{fill:#B4E3FB;}
</style>
<g id="_x33_">
	<path class="st0" d="M7.7,20.2H6.4l0.9-0.9c0.1-0.1,0.1-0.3,0-0.4c-0.1-0.1-0.3-0.1-0.4,0L6,19.7v-1.2c0-0.2-0.1-0.3-0.3-0.3
		c-0.2,0-0.3,0.1-0.3,0.3v1.2l-0.9-0.9c-0.1-0.1-0.3-0.1-0.4,0c-0.1,0.1-0.1,0.3,0,0.4l0.9,0.9H3.7c-0.2,0-0.3,0.1-0.3,0.3
		c0,0.2,0.1,0.3,0.3,0.3h1.2L4,21.7c-0.1,0.1-0.1,0.3,0,0.4c0.1,0.1,0.3,0.1,0.4,0l0.9-0.9v1.2c0,0.2,0.1,0.3,0.3,0.3
		c0.2,0,0.3-0.1,0.3-0.3v-1.2l0.9,0.9c0.1,0.1,0.3,0.1,0.4,0c0.1-0.1,0.1-0.3,0-0.4l-0.9-0.9h1.2c0.2,0,0.3-0.1,0.3-0.3
		C8,20.3,7.9,20.2,7.7,20.2z"/>
	<path class="st0" d="M26.3,20h-1.2l0.9-0.9c0.1-0.1,0.1-0.3,0-0.4c-0.1-0.1-0.3-0.1-0.4,0l-0.9,0.9v-1.2c0-0.2-0.1-0.3-0.3-0.3
		c-0.2,0-0.3,0.1-0.3,0.3v1.2l-0.9-0.9c-0.1-0.1-0.3-0.1-0.4,0c-0.1,0.1-0.1,0.3,0,0.4l0.9,0.9h-1.2c-0.2,0-0.3,0.1-0.3,0.3
		s0.1,0.3,0.3,0.3h1.2l-0.9,0.9c-0.1,0.1-0.1,0.3,0,0.4c0.1,0.1,0.3,0.1,0.4,0l0.9-0.9v1.2c0,0.2,0.1,0.3,0.3,0.3
		c0.2,0,0.3-0.1,0.3-0.3v-1.2l0.9,0.9c0.1,0.1,0.3,0.1,0.4,0c0.1-0.1,0.1-0.3,0-0.4l-0.9-0.9h1.2c0.2,0,0.3-0.1,0.3-0.3
		S26.5,20,26.3,20z"/>
	<path class="st1" d="M18.1,20.1H17l0.8-0.8c0.1-0.1,0.1-0.3,0-0.4c-0.1-0.1-0.3-0.1-0.4,0l-0.8,0.8v-1.1c0-0.2-0.1-0.3-0.3-0.3
		c-0.2,0-0.3,0.1-0.3,0.3v1.1L15.3,19c-0.1-0.1-0.3-0.1-0.4,0c-0.1,0.1-0.1,0.3,0,0.4l0.8,0.8h-1.1c-0.2,0-0.3,0.1-0.3,0.3
		s0.1,0.3,0.3,0.3h1.1L15,21.4c-0.1,0.1-0.1,0.3,0,0.4c0.1,0.1,0.3,0.1,0.4,0l0.8-0.8v1.1c0,0.2,0.1,0.3,0.3,0.3
		c0.2,0,0.3-0.1,0.3-0.3v-1.1l0.8,0.8c0.1,0.1,0.3,0.1,0.4,0c0.1-0.1,0.1-0.3,0-0.4L17,20.7h1.1c0.2,0,0.3-0.1,0.3-0.3
		S18.3,20.1,18.1,20.1z"/>
	<path class="st1" d="M9,27.1H7.9l0.8-0.8c0.1-0.1,0.1-0.3,0-0.4c-0.1-0.1-0.3-0.1-0.4,0l-0.8,0.8v-1.1c0-0.2-0.1-0.3-0.3-0.3
		S7,25.5,7,25.7v1.1L6.2,26c-0.1-0.1-0.3-0.1-0.4,0c-0.1,0.1-0.1,0.3,0,0.4l0.8,0.8H5.5c-0.2,0-0.3,0.1-0.3,0.3
		c0,0.2,0.1,0.3,0.3,0.3h1.1l-0.8,0.8c-0.1,0.1-0.1,0.3,0,0.4c0.1,0.1,0.3,0.1,0.4,0L7,28.1v1.1c0,0.2,0.1,0.3,0.3,0.3
		s0.3-0.1,0.3-0.3v-1.1l0.8,0.8c0.1,0.1,0.3,0.1,0.4,0c0.1-0.1,0.1-0.3,0-0.4l-0.8-0.8H9c0.2,0,0.3-0.1,0.3-0.3
		C9.3,27.3,9.2,27.1,9,27.1z"/>
	<path class="st1" d="M24.1,27.3h-0.9l0.6-0.6c0.1-0.1,0.1-0.2,0-0.3c-0.1-0.1-0.2-0.1-0.3,0L22.9,27V26c0-0.1-0.1-0.2-0.2-0.2
		s-0.2,0.1-0.2,0.2V27l-0.6-0.6c-0.1-0.1-0.2-0.1-0.3,0c-0.1,0.1-0.1,0.2,0,0.3l0.6,0.6h-0.9c-0.1,0-0.2,0.1-0.2,0.2
		s0.1,0.2,0.2,0.2h0.9l-0.6,0.6c-0.1,0.1-0.1,0.2,0,0.3c0.1,0.1,0.2,0.1,0.3,0l0.6-0.6V29c0,0.1,0.1,0.2,0.2,0.2s0.2-0.1,0.2-0.2
		v-0.9l0.6,0.6c0.1,0.1,0.2,0.1,0.3,0c0.1-0.1,0.1-0.2,0-0.3l-0.6-0.6h0.9c0.1,0,0.2-0.1,0.2-0.2S24.2,27.3,24.1,27.3z"/>
	<path class="st0" d="M14.2,24.6h-0.8l0.6-0.6c0.1-0.1,0.1-0.2,0-0.3c-0.1-0.1-0.2-0.1-0.3,0l-0.6,0.6v-0.8c0-0.1-0.1-0.2-0.2-0.2
		c-0.1,0-0.2,0.1-0.2,0.2v0.8l-0.6-0.6c-0.1-0.1-0.2-0.1-0.3,0c-0.1,0.1-0.1,0.2,0,0.3l0.6,0.6h-0.8c-0.1,0-0.2,0.1-0.2,0.2
		s0.1,0.2,0.2,0.2h0.8l-0.6,0.6c-0.1,0.1-0.1,0.2,0,0.3c0.1,0.1,0.2,0.1,0.3,0l0.6-0.6V26c0,0.1,0.1,0.2,0.2,0.2
		c0.1,0,0.2-0.1,0.2-0.2v-0.8l0.6,0.6c0.1,0.1,0.2,0.1,0.3,0c0.1-0.1,0.1-0.2,0-0.3L13.4,25h0.8c0.1,0,0.2-0.1,0.2-0.2
		S14.3,24.6,14.2,24.6z"/>
	<path class="st1" d="M25.7,10.3h-0.1c0.1-0.4,0.2-0.9,0.2-1.4c0-2.6-2.1-4.7-4.7-4.7c-1.1,0-2.2,0.4-3,1.1c-0.6-2.7-3-4.7-5.9-4.7
		c-3.3,0-6,2.7-6,6c0,0.4,0,0.8,0.1,1.2c-0.2,0-0.5-0.1-0.8-0.1c-2.8,0-5,2.2-5,5c0,1.9,1,3.5,2.6,4.4c0.6,0.4,1.3,0.6,2.1,0.6h20.4
		c2.1,0,3.7-1.7,3.7-3.7v0C29.4,11.9,27.7,10.3,25.7,10.3z"/>
	<circle class="st2" cx="10.8" cy="19.2" r="0.6"/>
	<path class="st2" d="M19.2,23.7c0,0.2-0.2,0.4-0.4,0.4s-0.4-0.2-0.4-0.4c0-0.2,0.2-0.4,0.4-0.4S19.2,23.5,19.2,23.7z"/>
	<circle class="st2" cx="16" cy="28.7" r="0.5"/>
</g>
</svg>
