<?xml version="1.0" encoding="utf-8"?>
<!-- Generator: Adobe Illustrator 25.4.2, SVG Export Plug-In . SVG Version: 6.00 Build 0)  -->
<svg version="1.1" id="Layer_1" xmlns="http://www.w3.org/2000/svg" xmlns:xlink="http://www.w3.org/1999/xlink" x="0px" y="0px"
	 viewBox="0 0 30 30" style="enable-background:new 0 0 30 30;" xml:space="preserve">
<style type="text/css">
	.st0{fill:#B4E3FB;}
	.st1{fill:#6B99D2;}
	.st2{fill:#26477A;}
</style>
<g id="_x34_">
	<path class="st0" d="M12,22.3L12,22.3c-0.1-0.1-0.2-0.2-0.1-0.3l1.6-2.8c0.1-0.1,0.2-0.2,0.3-0.1l0,0c0.1,0.1,0.2,0.2,0.1,0.3
		l-1.6,2.8C12.2,22.3,12.1,22.4,12,22.3z"/>
	<path class="st0" d="M15.7,26.1L15.7,26.1c-0.1-0.1-0.2-0.2-0.1-0.3l1.6-2.8c0.1-0.1,0.2-0.2,0.3-0.1l0,0c0.1,0.1,0.2,0.2,0.1,0.3
		L16.1,26C16,26.1,15.9,26.2,15.7,26.1z"/>
	<path class="st0" d="M6.2,28.9L6.2,28.9c-0.1-0.1-0.2-0.2-0.1-0.3l1.6-2.8c0.1-0.1,0.2-0.2,0.3-0.1l0,0c0.1,0.1,0.2,0.2,0.1,0.3
		l-1.6,2.8C6.5,28.9,6.4,28.9,6.2,28.9z"/>
	<path class="st1" d="M10.9,27.7L10.9,27.7c-0.1-0.1-0.2-0.2-0.1-0.3l1.6-2.8c0.1-0.1,0.2-0.2,0.3-0.1l0,0c0.1,0.1,0.2,0.2,0.1,0.3
		l-1.6,2.8C11.2,27.8,11,27.8,10.9,27.7z"/>
	<path class="st1" d="M20.6,22.3L20.6,22.3c-0.1-0.1-0.2-0.2-0.1-0.3l1.6-2.8c0.1-0.1,0.2-0.2,0.3-0.1l0,0c0.1,0.1,0.2,0.2,0.1,0.3
		l-1.6,2.8C20.9,22.3,20.7,22.4,20.6,22.3z"/>
	<path class="st1" d="M6.2,23.1L6.2,23.1c-0.1-0.1-0.2-0.2-0.1-0.3L7.7,20c0.1-0.1,0.2-0.2,0.3-0.1l0,0c0.1,0.1,0.2,0.2,0.1,0.3
		L6.6,23C6.5,23.1,6.4,23.1,6.2,23.1z"/>
	<path class="st2" d="M23.7,11.1h-0.1c0.1-0.4,0.2-0.8,0.2-1.3c0-2.4-1.9-4.3-4.3-4.3c-1,0-2,0.4-2.7,1C16.2,4,14,2.2,11.3,2.2
		c-3.1,0-5.6,2.5-5.6,5.6c0,0.4,0,0.7,0.1,1.1c-0.2,0-0.5-0.1-0.7-0.1c-2.6,0-4.6,2.1-4.6,4.6c0,1.7,1,3.3,2.4,4
		C3.4,17.8,4.1,18,4.8,18h18.9c1.9,0,3.5-1.6,3.5-3.5v0C27.1,12.6,25.6,11.1,23.7,11.1z"/>
	<path class="st1" d="M14.4,6.9L14.4,6.9c0-0.3-0.1-0.5-0.1-0.8c0-1.5,1.3-2.8,2.8-2.8c0.7,0,1.3,0.2,1.8,0.6
		c0.4-1.6,1.8-2.8,3.5-2.8c2,0,3.6,1.6,3.6,3.6c0,0.2,0,0.5-0.1,0.7c0.1,0,0.3,0,0.5,0c1.7,0,3,1.4,3,3c0,1.1-0.6,2.1-1.6,2.6
		c-0.4,0.2-0.8,0.4-1.2,0.4H14.4c-1.2,0-2.3-1-2.3-2.3l0,0C12.1,7.9,13.1,6.9,14.4,6.9z"/>
</g>
</svg>
