<?xml version="1.0" encoding="utf-8"?>
<!-- Generator: Adobe Illustrator 25.4.2, SVG Export Plug-In . SVG Version: 6.00 Build 0)  -->
<svg version="1.1" id="Layer_1" xmlns="http://www.w3.org/2000/svg" xmlns:xlink="http://www.w3.org/1999/xlink" x="0px" y="0px"
	 viewBox="0 0 30 30" style="enable-background:new 0 0 30 30;" xml:space="preserve">
<style type="text/css">
	.st0{fill:#26477A;}
</style>
<g>
	<path class="st0" d="M27.9,6.3c-1-0.5-2.3-0.8-3.4-0.4c-1.5,0.6-1.8,2.2-1.7,3.7c0,0.5,0.8,0.5,0.7,0c-0.1-1.4,0.2-3,1.8-3.1
		c0.9-0.1,2,0.2,2.7,0.9c1.7,1.7,0.4,4.2-1.5,4.9c-1.1,0.4-2.3,0.5-3.4,0.6c-4.8,0.1-9.7,0.1-14.5,0.2c-4.9,0-0.8,0-5.6-0.1
		c-0.5,0-0.5,0.7,0,0.7c9.1,0.1,9.2,0.1,18.2-0.1c1.7,0,3.5,0,5.2-0.5c1.6-0.5,2.8-1.4,3.1-3.1C29.7,8.5,29.1,7,27.9,6.3z"/>
	<path class="st0" d="M24.3,16.3c-1.6-0.5-3.3-0.5-4.9-0.5c-3.5-0.1-6.9-0.1-10.4-0.1c-5.7,0-2.4,0-8.1,0c-0.5,0-0.5,0.7,0,0.7
		c7.7-0.1,6.3-0.1,14,0c1.9,0,3.9,0,5.8,0.1c1.6,0,3.7,0.1,5,1.2c1.5,1.2,1.5,4.2-0.6,4.8c-1.7,0.5-3-0.4-2.6-2.2
		c0.1-0.5-0.6-0.6-0.7-0.2c-0.2,1.2-0.1,2.4,1.1,3c0.9,0.4,2.2,0.3,3-0.2c1.3-0.7,1.8-2.4,1.4-3.8C26.9,17.6,25.7,16.7,24.3,16.3z"
		/>
	<path class="st0" d="M17.6,19c-1.1-0.7-2.7-0.6-4-0.6c-2.3,0-4.6-0.1-6.9-0.1c-3.5,0,2.1,0-1.4,0c-0.5,0-0.5,0.7,0,0.7
		c5.4-0.1,1.8,0,7.2,0c1.2,0,2.4-0.1,3.5,0.1c0.7,0.1,1.2,0.3,1.7,0.8c0.7,0.8,0.5,2-0.4,2.6c-0.9,0.6-3.4,0.3-3-1.2
		c0.1-0.4-0.6-0.6-0.7-0.2c-0.5,2,2.1,2.8,3.6,2.3C19.2,22.8,19.4,20.1,17.6,19z"/>
	<path class="st0" d="M2.1,22c-0.5,0-0.5-0.7,0-0.7c5-0.1,1.1-0.1,6.2,0.1c1.1,0,2.2,0.2,2.8,1.2c0.7,0.9,0.6,2.2-0.1,3.1
		c-1.3,1.6-4.4,0.6-3.9-1.5c0.1-0.5,0.8-0.3,0.7,0.2c-0.3,1.5,1.9,1.8,2.7,0.9c1-1.3,0-2.7-1.3-2.9L2.1,22z"/>
	<path class="st0" d="M4.5,10.3C4,10.3,4,11,4.5,11c5.6,0.1,2.2,0,7.8-0.1c1.3,0,2.7,0.1,4-0.4c2-0.8,2.4-3.8,0.6-5
		c-1.7-1.1-4.7,0-4.1,2.2c0.1,0.5,0.8,0.3,0.7-0.2C13.1,6,15.2,5.4,16.3,6c1.8,1,1.1,3.4-0.6,3.9c-1.2,0.4-2.6,0.2-3.9,0.3
		C6.4,10.3,9.9,10.3,4.5,10.3z"/>
	<path class="st0" d="M1.4,8.5c5,0.1,1.1,0.1,6.1-0.1c1.1,0,2.2-0.2,2.9-1.1c0.7-0.9,0.7-2.1,0-3.1C9.1,2.9,6,3.7,6.4,5.9
		c0.1,0.5,0.8,0.3,0.7-0.2c-0.3-1.3,1.8-1.7,2.6-1c1.3,1.2,0.1,2.7-1.2,3c-0.9,0.2-1,0.1-1.9,0.1c-4.4,0.1-0.8,0.1-5.2,0
		C0.9,7.8,0.9,8.5,1.4,8.5z"/>
</g>
</svg>
