<?xml version="1.0" encoding="utf-8"?>
<!-- Generator: Adobe Illustrator 25.4.2, SVG Export Plug-In . SVG Version: 6.00 Build 0)  -->
<svg version="1.1" id="Layer_1" xmlns="http://www.w3.org/2000/svg" xmlns:xlink="http://www.w3.org/1999/xlink" x="0px" y="0px"
	 viewBox="0 0 30 30" style="enable-background:new 0 0 30 30;" xml:space="preserve">
<style type="text/css">
	.st0{fill:#FFAE46;}
</style>
<g>
	<path class="st0" d="M19.8,20c1.5-1.3,2.4-3.2,2.4-5.3c0-3.9-3.2-7.1-7.1-7.1c-1.6,0-3.1,0.5-4.3,1.5c-1.7,1.3-2.8,3.3-2.8,5.6
		c0,3.9,3.2,7.1,7.1,7.1C17,21.7,18.6,21.1,19.8,20z"/>
	<path class="st0" d="M15.2,6.7c0.1,0,0.2-0.1,0.2-0.2v-6c0-0.1-0.1-0.2-0.2-0.2S15,0.3,15,0.4v6C15,6.6,15.1,6.7,15.2,6.7z"/>
	<path class="st0" d="M11.6,6.9C11.6,7,11.6,7,11.7,7c0,0,0,0,0.1,0c0,0,0.1,0,0.1,0v0C12,7,12,6.8,11.9,6.7l-1.4-2.9
		c-0.1-0.1-0.2-0.2-0.3-0.1c-0.1,0.1-0.2,0.2-0.1,0.3L11.6,6.9z"/>
	<path class="st0" d="M18.9,22.8c-0.1-0.1-0.2-0.2-0.3-0.1c-0.1,0-0.1,0.1-0.1,0.1c0,0.1,0,0.1,0,0.2l1.4,2.9c0,0.1,0.1,0.1,0.2,0.1
		c0,0,0.1,0,0.1,0c0.1-0.1,0.2-0.2,0.1-0.3L18.9,22.8z"/>
	<path class="st0" d="M18.2,6.9C18.2,6.9,18.2,6.9,18.2,6.9c0.1,0,0.1,0,0.2,0c0.1,0,0.1-0.1,0.1-0.1l1-3c0-0.1,0-0.2-0.1-0.3
		c-0.1,0-0.1,0-0.2,0c-0.1,0-0.1,0.1-0.1,0.1l-1,3C18,6.7,18.1,6.9,18.2,6.9z"/>
	<path class="st0" d="M11.9,22.8c-0.1,0-0.1,0-0.2,0c-0.1,0-0.1,0.1-0.1,0.1l-1,3c0,0.1,0,0.1,0,0.2c0,0.1,0.1,0.1,0.1,0.1
		c0,0,0,0,0.1,0c0,0,0.1,0,0.1,0c0.1,0,0.1-0.1,0.1-0.1l1-3c0-0.1,0-0.1,0-0.2C12,22.9,12,22.8,11.9,22.8z"/>
	<path class="st0" d="M23.1,11.3c0,0.1,0.1,0.1,0.2,0.1c0,0,0.1,0,0.1,0l2.9-1.4c0.1,0,0.1-0.1,0.1-0.1c0-0.1,0-0.1,0-0.2
		c0-0.1-0.1-0.1-0.1-0.1c-0.1,0-0.1,0-0.2,0L23.2,11C23.1,11,23,11.2,23.1,11.3z"/>
	<path class="st0" d="M7.4,18.2c0-0.1,0-0.1,0-0.2C7.4,18,7.2,17.9,7.1,18l-2.9,1.4c-0.1,0.1-0.2,0.2-0.1,0.3c0,0.1,0.1,0.1,0.1,0.1
		c0,0,0,0,0.1,0c0,0,0.1,0,0.1,0l2.9-1.4C7.4,18.3,7.4,18.3,7.4,18.2z"/>
	<path class="st0" d="M26.5,18.9l-3-1c-0.1,0-0.2,0-0.3,0.1c0,0.1,0,0.1,0,0.2c0,0.1,0.1,0.1,0.1,0.1l3,1c0,0,0,0,0.1,0
		c0,0,0.1,0,0.1,0c0.1,0,0.1-0.1,0.1-0.1c0-0.1,0-0.1,0-0.2C26.6,19,26.5,18.9,26.5,18.9z"/>
	<path class="st0" d="M4,10.8l3,1c0,0,0,0,0.1,0c0,0,0.1,0,0.1,0c0.1,0,0.1-0.1,0.1-0.1c0-0.1,0-0.1,0-0.2c0-0.1-0.1-0.1-0.1-0.1
		l-3-1c-0.1,0-0.1,0-0.2,0c-0.1,0-0.1,0.1-0.1,0.1C3.9,10.6,3.9,10.8,4,10.8z"/>
	<path class="st0" d="M15.4,23.3c-0.1,0-0.2,0.1-0.2,0.2v6c0,0.1,0.1,0.2,0.2,0.2c0.1,0,0.2-0.1,0.2-0.2v-6
		C15.6,23.4,15.5,23.3,15.4,23.3z"/>
	<path class="st0" d="M29.6,14.4h-6c-0.1,0-0.2,0.1-0.2,0.2s0.1,0.2,0.2,0.2h6c0.1,0,0.2-0.1,0.2-0.2S29.7,14.4,29.6,14.4z"/>
	<path class="st0" d="M6.7,14.8c0-0.1-0.1-0.2-0.2-0.2h-6c-0.1,0-0.2,0.1-0.2,0.2c0,0.1,0.1,0.2,0.2,0.2h6C6.6,15,6.7,14.9,6.7,14.8
		z"/>
	<path class="st0" d="M21.4,20.7c-0.1-0.1-0.2-0.1-0.3,0c-0.1,0.1-0.1,0.2,0,0.3l4.2,4.2c0,0,0.1,0.1,0.2,0.1c0.1,0,0.1,0,0.2-0.1
		c0.1-0.1,0.1-0.2,0-0.3L21.4,20.7z"/>
	<path class="st0" d="M8.9,9.1c0,0,0.1,0.1,0.2,0.1s0.1,0,0.2-0.1c0.1-0.1,0.1-0.2,0-0.3L5,4.5c-0.1-0.1-0.2-0.1-0.3,0
		c-0.1,0.1-0.1,0.2,0,0.3L8.9,9.1z"/>
	<path class="st0" d="M8.9,20.7l-4.2,4.2c-0.1,0.1-0.1,0.2,0,0.3c0,0,0.1,0.1,0.2,0.1c0.1,0,0.1,0,0.2-0.1L9.2,21
		c0.1-0.1,0.1-0.2,0-0.3C9.1,20.6,9,20.6,8.9,20.7z"/>
	<path class="st0" d="M21,8.8c0.1,0,0.1,0,0.2-0.1l4.2-4.2c0,0,0.1-0.1,0.1-0.2c0-0.1,0-0.1-0.1-0.2c-0.1-0.1-0.2-0.1-0.3,0
		l-4.2,4.2c-0.1,0.1-0.1,0.2,0,0.3C20.9,8.8,20.9,8.8,21,8.8z"/>
</g>
</svg>
