<?xml version="1.0" encoding="utf-8"?>
<!-- Generator: Adobe Illustrator 25.4.2, SVG Export Plug-In . SVG Version: 6.00 Build 0)  -->
<svg version="1.1" id="Layer_1" xmlns="http://www.w3.org/2000/svg" xmlns:xlink="http://www.w3.org/1999/xlink" x="0px" y="0px"
	 viewBox="0 0 30 30" style="enable-background:new 0 0 30 30;" xml:space="preserve">
<style type="text/css">
	.st0{fill:#26477A;}
	.st1{fill:#FFB544;}
</style>
<g id="_x31_1">
	<path class="st0" d="M25.7,10.6h-0.1c0.1-0.4,0.2-0.9,0.2-1.4c0-2.6-2.1-4.7-4.7-4.7c-1.1,0-2.2,0.4-3,1.1C17.5,3,15.1,1,12.3,1
		c-3.3,0-6,2.7-6,6c0,0.4,0,0.8,0.1,1.2c-0.2,0-0.5-0.1-0.7-0.1c-2.8,0-5,2.2-5,5c0,1.9,1,3.5,2.6,4.4c0.6,0.4,1.3,0.6,2.1,0.6h20.4
		c2.1,0,3.7-1.7,3.7-3.7v0C29.4,12.3,27.7,10.6,25.7,10.6z"/>
	<polygon class="st1" points="9.3,13.5 12.8,13.5 9.3,18.1 12.2,18.1 5.9,25.6 8.2,19.8 5.9,19.8 	"/>
	<polygon class="st1" points="21,18.1 23.9,18.1 21,22 23.5,22 18.1,28.3 20,23.5 18.1,23.5 	"/>
	<polygon class="st1" points="13.2,22 15.2,22 13.2,24.7 14.8,24.7 11.2,29 12.5,25.7 11.2,25.7 	"/>
</g>
</svg>
