<?xml version="1.0" encoding="utf-8"?>
<!-- Generator: Adobe Illustrator 25.4.2, SVG Export Plug-In . SVG Version: 6.00 Build 0)  -->
<svg version="1.1" id="Layer_1" xmlns="http://www.w3.org/2000/svg" xmlns:xlink="http://www.w3.org/1999/xlink" x="0px" y="0px"
	 viewBox="0 0 30 30" style="enable-background:new 0 0 30 30;" xml:space="preserve">
<style type="text/css">
	.st0{fill:#B4E3FB;}
	.st1{fill:#26477A;}
	.st2{fill:#6B99D2;}
	.st3{fill:#FFAE46;}
</style>
<g id="_x31_0">
	<path class="st0" d="M12.1,23.3L12.1,23.3C12,23.3,11.9,23.1,12,23l1.5-2.6c0.1-0.1,0.2-0.1,0.3-0.1l0,0c0.1,0.1,0.1,0.2,0.1,0.3
		l-1.5,2.6C12.3,23.4,12.2,23.4,12.1,23.3z"/>
	<path class="st0" d="M16.9,29.4L16.9,29.4c-0.1-0.1-0.1-0.2-0.1-0.3l1.5-2.6c0.1-0.1,0.2-0.1,0.3-0.1l0,0c0.1,0.1,0.1,0.2,0.1,0.3
		l-1.5,2.6C17.2,29.4,17,29.5,16.9,29.4z"/>
	<path class="st0" d="M22.6,23.1L22.6,23.1c-0.1-0.1-0.1-0.2-0.1-0.3l0.7-1.3c0.1-0.1,0.2-0.1,0.3-0.1l0,0c0.1,0.1,0.1,0.2,0.1,0.3
		L22.9,23C22.9,23.1,22.7,23.1,22.6,23.1z"/>
	<path class="st0" d="M3.7,25.3L3.7,25.3c-0.1-0.1-0.1-0.2-0.1-0.3l0.7-1.3c0.1-0.1,0.2-0.1,0.3-0.1l0,0c0.1,0.1,0.1,0.2,0.1,0.3
		L4,25.2C3.9,25.3,3.8,25.4,3.7,25.3z"/>
	<path class="st0" d="M17.5,24.4L17.5,24.4c-0.1-0.1-0.1-0.2-0.1-0.3l0.7-1.3c0.1-0.1,0.2-0.1,0.3-0.1l0,0c0.1,0.1,0.1,0.2,0.1,0.3
		l-0.7,1.3C17.7,24.5,17.6,24.5,17.5,24.4z"/>
	<path class="st0" d="M6.8,29.4L6.8,29.4c-0.1-0.1-0.1-0.2-0.1-0.3l1.5-2.6c0.1-0.1,0.2-0.1,0.3-0.1l0,0c0.1,0.1,0.1,0.2,0.1,0.3
		l-1.5,2.6C7,29.5,6.9,29.5,6.8,29.4z"/>
	<path class="st1" d="M12.9,29.4c-0.2,0-0.3-0.1-0.3-0.3c0-0.2,0.1-0.3,0.3-0.3c0.2,0,0.3,0.1,0.3,0.3
		C13.2,29.2,13.1,29.4,12.9,29.4z"/>
	<circle class="st2" cx="6.4" cy="25.1" r="0.4"/>
	<circle class="st2" cx="20.4" cy="25.7" r="0.4"/>
	<circle class="st2" cx="9.7" cy="21.4" r="0.4"/>
	<circle class="st2" cx="15.7" cy="21.7" r="0.4"/>
	<path class="st2" d="M15.3,25.8c0.2,0.1,0.3,0.3,0.1,0.5c-0.1,0.2-0.3,0.3-0.5,0.1c-0.2-0.1-0.3-0.3-0.1-0.5
		C14.9,25.7,15.1,25.7,15.3,25.8z"/>
	<path class="st1" d="M5.4,22c-0.2,0-0.3-0.1-0.3-0.3c0-0.2,0.1-0.3,0.3-0.3s0.3,0.1,0.3,0.3C5.7,21.9,5.5,22,5.4,22z"/>
	<path class="st1" d="M11.5,26.4c-0.2,0-0.3-0.1-0.3-0.3c0-0.2,0.1-0.3,0.3-0.3c0.2,0,0.3,0.1,0.3,0.3
		C11.9,26.3,11.7,26.4,11.5,26.4z"/>
	<path class="st1" d="M20.9,22c-0.2,0-0.3-0.1-0.3-0.3c0-0.2,0.1-0.3,0.3-0.3c0.2,0,0.3,0.1,0.3,0.3C21.2,21.9,21.1,22,20.9,22z"/>
	<g>
		<path class="st3" d="M23.4,12.8c0.9-0.8,1.5-2,1.5-3.3c0-2.4-2-4.4-4.4-4.4c-1,0-1.9,0.3-2.7,0.9c-1,0.8-1.7,2.1-1.7,3.5
			c0,2.4,2,4.4,4.4,4.4C21.6,13.8,22.7,13.4,23.4,12.8z"/>
		<path class="st3" d="M20.5,4.5c0.1,0,0.1-0.1,0.1-0.1V0.7c0-0.1-0.1-0.1-0.1-0.1c-0.1,0-0.1,0.1-0.1,0.1v3.7
			C20.4,4.5,20.5,4.5,20.5,4.5z"/>
		<path class="st3" d="M18.3,4.7C18.3,4.7,18.3,4.8,18.3,4.7c0.1,0.1,0.1,0.1,0.1,0.1c0,0,0,0,0.1,0c0.1,0,0.1-0.1,0.1-0.2l-0.9-1.8
			c0-0.1-0.1-0.1-0.2-0.1c-0.1,0-0.1,0.1-0.1,0.2L18.3,4.7z"/>
		<path class="st3" d="M22.9,14.5c0-0.1-0.1-0.1-0.2-0.1c-0.1,0-0.1,0.1-0.1,0.2l0.9,1.8c0,0.1,0.1,0.1,0.1,0.1c0,0,0,0,0.1,0
			c0.1,0,0.1-0.1,0.1-0.2L22.9,14.5z"/>
		<path class="st3" d="M22.4,4.7C22.4,4.7,22.4,4.7,22.4,4.7c0.1,0,0.1,0,0.1,0c0,0,0.1,0,0.1-0.1l0.6-1.9c0-0.1,0-0.2-0.1-0.2
			c-0.1,0-0.2,0-0.2,0.1l-0.6,1.9C22.3,4.5,22.3,4.6,22.4,4.7C22.3,4.7,22.4,4.7,22.4,4.7z"/>
		<path class="st3" d="M18.5,14.5c-0.1,0-0.2,0-0.2,0.1l-0.6,1.9c0,0,0,0.1,0,0.1c0,0,0,0.1,0.1,0.1c0,0,0,0,0,0c0,0,0,0,0.1,0
			c0,0,0.1,0,0.1-0.1l0.6-1.9C18.6,14.6,18.6,14.5,18.5,14.5z"/>
		<path class="st3" d="M25.4,7.4C25.4,7.4,25.5,7.4,25.4,7.4c0.1,0.1,0.1,0.1,0.1,0.1c0,0,0,0,0.1,0l1.8-0.9c0.1,0,0.1-0.1,0.1-0.2
			c0,0,0-0.1-0.1-0.1c0,0-0.1,0-0.1,0l-1.8,0.9C25.4,7.2,25.4,7.3,25.4,7.4z"/>
		<path class="st3" d="M15.8,11.7c0,0,0-0.1,0-0.1c0,0,0-0.1-0.1-0.1c0,0-0.1,0-0.1,0l-1.8,0.9c-0.1,0-0.1,0.1-0.1,0.2
			c0,0.1,0.1,0.1,0.1,0.1c0,0,0,0,0.1,0L15.8,11.7C15.7,11.8,15.7,11.7,15.8,11.7z"/>
		<path class="st3" d="M27.5,12.1l-1.9-0.6c0,0-0.1,0-0.1,0c0,0-0.1,0-0.1,0.1c0,0,0,0.1,0,0.1c0,0,0,0.1,0.1,0.1l1.9,0.6
			c0,0,0,0,0,0c0,0,0,0,0.1,0c0,0,0.1,0,0.1-0.1C27.6,12.2,27.6,12.1,27.5,12.1z"/>
		<path class="st3" d="M13.6,7.1l1.9,0.6c0,0,0,0,0,0c0,0,0,0,0.1,0c0,0,0.1,0,0.1-0.1c0,0,0-0.1,0-0.1c0,0,0-0.1-0.1-0.1l-1.9-0.6
			c-0.1,0-0.2,0-0.2,0.1C13.5,7,13.6,7.1,13.6,7.1z"/>
		<path class="st3" d="M20.7,14.8c-0.1,0-0.1,0.1-0.1,0.1v3.7c0,0.1,0.1,0.1,0.1,0.1s0.1-0.1,0.1-0.1V15
			C20.8,14.9,20.7,14.8,20.7,14.8z"/>
		<path class="st3" d="M29.4,9.3h-3.7c-0.1,0-0.1,0.1-0.1,0.1c0,0.1,0.1,0.1,0.1,0.1h3.7c0.1,0,0.1-0.1,0.1-0.1
			C29.6,9.4,29.5,9.3,29.4,9.3z"/>
		<path class="st3" d="M15.3,9.6c0-0.1-0.1-0.1-0.1-0.1h-3.7c-0.1,0-0.1,0.1-0.1,0.1c0,0.1,0.1,0.1,0.1,0.1h3.7
			C15.2,9.7,15.3,9.7,15.3,9.6z"/>
		<path class="st3" d="M24.4,13.2c-0.1-0.1-0.1-0.1-0.2,0c0,0,0,0.1,0,0.1c0,0,0,0.1,0,0.1l2.6,2.6c0,0,0.1,0,0.1,0c0,0,0.1,0,0.1,0
			c0.1-0.1,0.1-0.1,0-0.2L24.4,13.2z"/>
		<path class="st3" d="M16.7,6c0,0,0.1,0,0.1,0c0,0,0.1,0,0.1,0c0.1-0.1,0.1-0.1,0-0.2l-2.6-2.6c-0.1-0.1-0.1-0.1-0.2,0
			C14,3.3,14,3.4,14,3.4L16.7,6z"/>
		<path class="st3" d="M16.6,13.2L14,15.8C14,15.9,14,16,14,16c0,0,0.1,0,0.1,0c0,0,0.1,0,0.1,0l2.6-2.6c0.1-0.1,0.1-0.1,0-0.2
			C16.8,13.1,16.7,13.1,16.6,13.2z"/>
		<path class="st3" d="M24.1,5.9c0,0,0.1,0,0.1,0l2.6-2.6c0.1-0.1,0.1-0.1,0-0.2C26.8,3,26.7,3,26.7,3L24,5.6c0,0,0,0.1,0,0.1
			c0,0,0,0.1,0,0.1C24.1,5.9,24.1,5.9,24.1,5.9z"/>
	</g>
	<path class="st1" d="M22.9,14.3h-0.1c0.1-0.4,0.2-0.8,0.2-1.2c0-2.3-1.9-4.1-4.2-4.1c-1,0-1.9,0.4-2.7,1c-0.5-2.4-2.7-4.2-5.3-4.2
		c-3,0-5.4,2.4-5.4,5.4c0,0.4,0,0.7,0.1,1c-0.2,0-0.4,0-0.7,0c-2.5,0-4.5,2-4.5,4.5c0,1.7,0.9,3.1,2.3,3.9c0.5,0.4,1.2,0.6,1.9,0.6
		h18.3c1.8,0,3.4-1.5,3.4-3.3v0C26.3,15.8,24.8,14.3,22.9,14.3z"/>
</g>
</svg>
