<?xml version="1.0" encoding="utf-8"?>
<!-- Generator: Adobe Illustrator 25.4.2, SVG Export Plug-In . SVG Version: 6.00 Build 0)  -->
<svg version="1.1" id="Layer_1" xmlns="http://www.w3.org/2000/svg" xmlns:xlink="http://www.w3.org/1999/xlink" x="0px" y="0px"
	 viewBox="0 0 30 30" style="enable-background:new 0 0 30 30;" xml:space="preserve">
<style type="text/css">
	.st0{fill:#26477A;}
	.st1{fill:#3571AA;}
</style>
<g id="_x31_">
	<path class="st0" d="M5.5,22.8L5.3,23l0,0l0,0c-0.1,0.1-0.2,0.2-0.2,0.3c-0.3,0.6-0.1,1.3,0.5,1.6c0.6,0.3,1.3,0.1,1.6-0.5
		c0.1-0.1,0.1-0.3,0.1-0.4l0,0l0,0l0-0.3l0-2.3L5.5,22.8z"/>
	<path class="st0" d="M20.6,23.2l-0.2,0.2l0,0l0,0c-0.1,0.1-0.2,0.2-0.2,0.3c-0.3,0.6-0.1,1.3,0.5,1.6c0.6,0.3,1.3,0.1,1.6-0.5
		c0.1-0.1,0.1-0.3,0.1-0.4l0,0l0,0l0-0.3l0-2.3L20.6,23.2z"/>
	<path class="st1" d="M12.9,25.1l-0.2,0.2l0,0l0,0c-0.1,0.1-0.2,0.2-0.2,0.3c-0.3,0.6-0.1,1.3,0.5,1.6c0.6,0.3,1.3,0.1,1.6-0.5
		c0.1-0.1,0.1-0.3,0.1-0.4l0,0l0,0l0-0.3l0-2.3L12.9,25.1z"/>
	<path class="st1" d="M10.7,20.1l-0.2,0.2l0,0l0,0c-0.1,0.1-0.2,0.2-0.2,0.3c-0.3,0.6-0.1,1.3,0.5,1.6c0.6,0.3,1.3,0.1,1.6-0.5
		c0.1-0.1,0.1-0.3,0.1-0.4l0,0l0,0l0-0.3l0-2.3L10.7,20.1z"/>
	<path class="st1" d="M24.2,19.9L24.1,20l0,0l0,0c-0.1,0.1-0.1,0.1-0.1,0.2c-0.2,0.3,0,0.8,0.3,1c0.3,0.2,0.8,0,1-0.3
		c0-0.1,0.1-0.2,0.1-0.2l0,0l0,0l0-0.2l0-1.3L24.2,19.9z"/>
	<path class="st1" d="M3.9,19.8l-0.1,0.1l0,0l0,0c-0.1,0.1-0.1,0.1-0.1,0.2c-0.2,0.3,0,0.8,0.3,1c0.3,0.2,0.8,0,1-0.3
		c0-0.1,0.1-0.2,0.1-0.2l0,0l0,0l0-0.2L5,19L3.9,19.8z"/>
	<path class="st1" d="M17,28l-0.1,0.1l0,0l0,0c-0.1,0.1-0.1,0.1-0.1,0.2c-0.2,0.3,0,0.8,0.3,1c0.3,0.2,0.8,0,1-0.3
		c0-0.1,0.1-0.2,0.1-0.2l0,0l0,0l0-0.2l0-1.3L17,28z"/>
	<path class="st1" d="M9.1,28L9,28.1l0,0l0,0c-0.1,0.1-0.1,0.1-0.1,0.2c-0.2,0.3,0,0.8,0.3,1c0.3,0.2,0.8,0,1-0.3
		c0-0.1,0.1-0.2,0.1-0.2l0,0l0,0l0-0.2l0-1.3L9.1,28z"/>
	<path class="st0" d="M16.6,20.1l-0.2,0.2l0,0l0,0c-0.1,0.1-0.2,0.2-0.2,0.3c-0.3,0.6-0.1,1.3,0.5,1.6c0.6,0.3,1.3,0.1,1.6-0.5
		c0.1-0.1,0.1-0.3,0.1-0.4l0,0l0,0l0-0.3l0-2.3L16.6,20.1z"/>
	<path class="st0" d="M25.5,10.2h-0.1c0.1-0.4,0.2-0.9,0.2-1.3c0-2.5-2.1-4.6-4.6-4.6c-1.1,0-2.1,0.4-2.9,1.1
		c-0.6-2.7-3-4.7-5.8-4.7C9,0.6,6.4,3.3,6.4,6.6c0,0.4,0,0.8,0.1,1.1C6.2,7.7,6,7.6,5.7,7.6c-2.7,0-4.9,2.2-4.9,4.9
		c0,1.9,1,3.5,2.5,4.3c0.6,0.4,1.3,0.6,2,0.6h20.1c2,0,3.7-1.7,3.7-3.7v0C29.2,11.8,27.6,10.2,25.5,10.2z"/>
</g>
</svg>
