<?xml version="1.0" encoding="utf-8"?>
<!-- Generator: Adobe Illustrator 25.4.2, SVG Export Plug-In . SVG Version: 6.00 Build 0)  -->
<svg version="1.1" id="Layer_1" xmlns="http://www.w3.org/2000/svg" xmlns:xlink="http://www.w3.org/1999/xlink" x="0px" y="0px"
	 viewBox="0 0 30 30" style="enable-background:new 0 0 30 30;" xml:space="preserve">
<style type="text/css">
	.st0{fill:#6B99D2;}
	.st1{fill:#26477A;}
	.st2{fill:#B4E3FB;}
</style>
<g id="_x32_0">
	<path class="st0" d="M12.9,21.5L12.9,21.5c-0.1-0.1-0.2-0.3-0.1-0.4l1.9-3.4c0.1-0.1,0.3-0.2,0.4-0.1l0,0c0.1,0.1,0.2,0.3,0.1,0.4
		l-1.9,3.4C13.2,21.6,13,21.6,12.9,21.5z"/>
	<path class="st0" d="M19.2,29.5L19.2,29.5c-0.1-0.1-0.2-0.3-0.1-0.4l1.9-3.4c0.1-0.1,0.3-0.2,0.4-0.1l0,0c0.1,0.1,0.2,0.3,0.1,0.4
		l-1.9,3.4C19.6,29.6,19.4,29.6,19.2,29.5z"/>
	<path class="st0" d="M24.6,20.2L24.6,20.2c-0.1-0.1-0.2-0.3-0.1-0.4l1-1.7c0.1-0.1,0.3-0.2,0.4-0.1l0,0c0.1,0.1,0.2,0.3,0.1,0.4
		l-1,1.7C25,20.3,24.8,20.3,24.6,20.2z"/>
	<path class="st0" d="M1.8,24.1L1.8,24.1c-0.1-0.1-0.2-0.3,0-0.6l1.5-2.6c0.1-0.2,0.4-0.4,0.5-0.3l0,0C4,20.7,4,21,3.9,21.2
		l-1.5,2.6C2.2,24.1,2,24.2,1.8,24.1z"/>
	<path class="st0" d="M20,23L20,23c-0.1-0.1-0.2-0.3-0.1-0.4l1-1.7c0.1-0.1,0.3-0.2,0.4-0.1l0,0c0.1,0.1,0.2,0.3,0.1,0.4l-1,1.7
		C20.3,23,20.1,23.1,20,23z"/>
	<path class="st0" d="M5.9,29.5L5.9,29.5c-0.1-0.1-0.2-0.3-0.1-0.4l1.9-3.4c0.1-0.1,0.3-0.2,0.4-0.1l0,0c0.1,0.1,0.2,0.3,0.1,0.4
		l-1.9,3.4C6.2,29.6,6.1,29.6,5.9,29.5z"/>
	<path class="st0" d="M25.1,9.6H25c0.1-0.4,0.2-0.8,0.2-1.3c0-2.4-2-4.4-4.4-4.4c-1.1,0-2.1,0.4-2.8,1c-0.6-2.6-2.9-4.5-5.6-4.5
		C9.2,0.4,6.7,3,6.7,6.1c0,0.4,0,0.7,0.1,1.1c-0.2,0-0.5-0.1-0.7-0.1c-2.6,0-4.8,2.1-4.8,4.8c0,1.8,1,3.4,2.5,4.2
		c0.6,0.4,1.2,0.6,2,0.6h19.4c2,0,3.6-1.6,3.6-3.6v0C28.7,11.2,27.1,9.6,25.1,9.6z"/>
	<path class="st1" d="M16.4,25.4c-0.2,0-0.4-0.2-0.4-0.4c0-0.2,0.2-0.4,0.4-0.4c0.2,0,0.4,0.2,0.4,0.4
		C16.8,25.2,16.7,25.4,16.4,25.4z"/>
	<circle class="st2" cx="5.5" cy="23.8" r="0.5"/>
	<circle class="st2" cx="23.9" cy="24.7" r="0.5"/>
	<circle class="st2" cx="9.7" cy="19" r="0.5"/>
	<circle class="st2" cx="17.6" cy="19.4" r="0.5"/>
	<path class="st2" d="M13.2,27.6c0.2,0.1,0.3,0.5,0.2,0.7c-0.1,0.2-0.5,0.3-0.7,0.2c-0.2-0.1-0.3-0.5-0.2-0.7
		C12.7,27.6,13,27.5,13.2,27.6z"/>
	<path class="st1" d="M6.2,19.4c-0.2,0-0.4-0.2-0.4-0.4c0-0.2,0.2-0.4,0.4-0.4c0.2,0,0.4,0.2,0.4,0.4C6.6,19.2,6.4,19.4,6.2,19.4z"
		/>
	<path class="st1" d="M10.8,24.6c-0.2,0-0.4-0.2-0.4-0.4c0-0.2,0.2-0.4,0.4-0.4c0.2,0,0.4,0.2,0.4,0.4
		C11.2,24.4,11.1,24.6,10.8,24.6z"/>
	<path class="st1" d="M23,18.4c-0.2,0-0.4-0.2-0.4-0.4c0-0.2,0.2-0.4,0.4-0.4c0.2,0,0.4,0.2,0.4,0.4C23.4,18.2,23.3,18.4,23,18.4z"
		/>
</g>
</svg>
