<?xml version="1.0" encoding="utf-8"?>
<!-- Generator: Adobe Illustrator 25.4.2, SVG Export Plug-In . SVG Version: 6.00 Build 0)  -->
<svg version="1.1" id="Layer_1" xmlns="http://www.w3.org/2000/svg" xmlns:xlink="http://www.w3.org/1999/xlink" x="0px" y="0px"
	 viewBox="0 0 30 30" style="enable-background:new 0 0 30 30;" xml:space="preserve">
<style type="text/css">
	.st0{fill:#FFAE46;}
	.st1{fill:#6B99D2;}
	.st2{fill:#26477A;}
	.st3{fill:#FF7E45;}
</style>
<g>
	<g>
		<path class="st0" d="M17.9,18.1c1.3-1.1,2.2-2.8,2.2-4.7c0-3.5-2.8-6.3-6.3-6.3c-1.4,0-2.8,0.5-3.8,1.3c-1.5,1.1-2.5,2.9-2.5,5
			c0,3.5,2.8,6.3,6.3,6.3C15.3,19.7,16.8,19.1,17.9,18.1z"/>
		<path class="st0" d="M13.8,6.3c0.1,0,0.2-0.1,0.2-0.2V0.8c0-0.1-0.1-0.2-0.2-0.2s-0.2,0.1-0.2,0.2v5.3C13.6,6.2,13.7,6.3,13.8,6.3
			z"/>
		<path class="st0" d="M10.5,6.5c0,0,0.1,0.1,0.1,0.1c0,0,0,0,0.1,0c0,0,0.1,0,0.1,0c0.1,0,0.1-0.2,0.1-0.3L9.7,3.8
			c0-0.1-0.2-0.1-0.3-0.1C9.3,3.8,9.3,3.9,9.3,4L10.5,6.5z"/>
		<path class="st0" d="M17.1,20.6c0-0.1-0.2-0.1-0.3-0.1c0,0-0.1,0.1-0.1,0.1c0,0,0,0.1,0,0.1l1.2,2.5c0,0,0.1,0.1,0.1,0.1
			c0,0,0,0,0.1,0c0,0,0.1,0,0.1,0c0.1,0,0.1-0.2,0.1-0.3L17.1,20.6z"/>
		<path class="st0" d="M16.4,6.5C16.5,6.5,16.5,6.5,16.4,6.5c0.1,0,0.2,0,0.2-0.1l0.9-2.7c0,0,0-0.1,0-0.1c0,0-0.1-0.1-0.1-0.1
			c-0.1,0-0.2,0-0.2,0.1l-0.9,2.7c0,0,0,0.1,0,0.1C16.3,6.5,16.4,6.5,16.4,6.5z"/>
		<path class="st0" d="M10.9,20.6c-0.1,0-0.2,0-0.2,0.1l-0.9,2.7c0,0,0,0.1,0,0.1c0,0,0.1,0.1,0.1,0.1c0,0,0,0,0.1,0
			c0.1,0,0.2,0,0.2-0.1l0.9-2.7c0,0,0-0.1,0-0.1C11,20.7,10.9,20.6,10.9,20.6z"/>
		<path class="st0" d="M20.7,10.3c0,0,0,0.1,0,0.1c0,0,0.1,0.1,0.1,0.1c0,0,0,0,0.1,0c0,0,0.1,0,0.1,0l2.5-1.2
			c0.1,0,0.1-0.2,0.1-0.3c0-0.1-0.2-0.1-0.3-0.1l-2.5,1.2C20.8,10.2,20.8,10.2,20.7,10.3z"/>
		<path class="st0" d="M6.9,16.6c0,0,0-0.1,0-0.1c0,0-0.1-0.1-0.1-0.1c0,0-0.1,0-0.1,0l-2.5,1.2c0,0-0.1,0.1-0.1,0.1
			c0,0,0,0.1,0,0.1c0,0.1,0.1,0.1,0.2,0.1c0,0,0.1,0,0.1,0l2.5-1.2C6.8,16.7,6.9,16.6,6.9,16.6z"/>
		<path class="st0" d="M23.7,17.2l-2.7-0.9c0,0-0.1,0-0.1,0c0,0-0.1,0.1-0.1,0.1c0,0.1,0,0.2,0.1,0.2l2.7,0.9c0,0,0,0,0.1,0
			c0.1,0,0.2,0,0.2-0.1C23.9,17.3,23.8,17.2,23.7,17.2z"/>
		<path class="st0" d="M3.9,10l2.7,0.9c0,0,0,0,0.1,0c0,0,0.1,0,0.1,0c0,0,0.1-0.1,0.1-0.1c0,0,0-0.1,0-0.1c0,0-0.1-0.1-0.1-0.1
			L4,9.6c-0.1,0-0.2,0-0.2,0.1v0C3.7,9.8,3.8,10,3.9,10z"/>
		<path class="st0" d="M13.9,21.1c-0.1,0-0.2,0.1-0.2,0.2v5.3c0,0.1,0.1,0.2,0.2,0.2s0.2-0.1,0.2-0.2v-5.3
			C14.1,21.2,14,21.1,13.9,21.1z"/>
		<path class="st0" d="M26.5,13.2h-5.3c-0.1,0-0.2,0.1-0.2,0.2s0.1,0.2,0.2,0.2h5.3c0.1,0,0.2-0.1,0.2-0.2S26.6,13.2,26.5,13.2z"/>
		<path class="st0" d="M6.2,13.5c0-0.1-0.1-0.2-0.2-0.2H0.7c-0.1,0-0.2,0.1-0.2,0.2s0.1,0.2,0.2,0.2H6C6.1,13.7,6.2,13.6,6.2,13.5z"
			/>
		<path class="st0" d="M19.3,18.8c-0.1-0.1-0.2-0.1-0.3,0C19,18.9,19,19,19,19.1l3.8,3.8c0,0,0.1,0.1,0.1,0.1c0,0,0.1,0,0.1-0.1
			c0.1-0.1,0.1-0.2,0-0.3L19.3,18.8z"/>
		<path class="st0" d="M8.2,8.5c0,0,0.1,0.1,0.1,0.1c0.1,0,0.1,0,0.1-0.1c0.1-0.1,0.1-0.2,0-0.3L4.7,4.4c-0.1-0.1-0.2-0.1-0.3,0
			c-0.1,0.1-0.1,0.2,0,0.3L8.2,8.5z"/>
		<path class="st0" d="M8.2,18.7l-3.8,3.8c-0.1,0.1-0.1,0.2,0,0.3c0,0,0.1,0.1,0.1,0.1c0.1,0,0.1,0,0.1-0.1L8.4,19
			c0,0,0.1-0.1,0.1-0.1c0-0.1,0-0.1-0.1-0.1C8.4,18.7,8.2,18.7,8.2,18.7z"/>
		<path class="st0" d="M18.9,8.2c0,0,0.1,0,0.1-0.1l3.8-3.8c0.1-0.1,0.1-0.2,0-0.3c-0.1-0.1-0.2-0.1-0.3,0l-3.8,3.8
			c0,0-0.1,0.1-0.1,0.1s0,0.1,0.1,0.1C18.8,8.2,18.8,8.2,18.9,8.2z"/>
	</g>
	<g id="_x31_2">
		<path class="st1" d="M27.1,20.7V7.9c0-1.2-1-2.2-2.2-2.2h-0.1c-1.2,0-2.2,1-2.2,2.2v12.8c-1.4,0.8-2.4,2.3-2.4,4
			c0,2.6,2.1,4.6,4.6,4.6c2.6,0,4.6-2.1,4.6-4.6C29.5,23,28.5,21.5,27.1,20.7z M24.9,28.5c-2.1,0-3.7-1.7-3.7-3.7
			c0-1.3,0.6-2.4,1.6-3c0.3-0.2,0.5-0.3,0.8-0.4c0-0.1,0-0.1,0-0.2v-0.8V7.9c0-0.7,0.6-1.3,1.3-1.3h0.1c0.7,0,1.3,0.6,1.3,1.3v12.4
			v0.8c0,0.1,0,0.1,0,0.2c0.3,0.1,0.6,0.3,0.8,0.4c0.9,0.7,1.6,1.8,1.6,3C28.6,26.8,26.9,28.5,24.9,28.5z"/>
		<path class="st2" d="M28.6,24.7c0,2.1-1.7,3.7-3.7,3.7c-2.1,0-3.7-1.7-3.7-3.7c0-1.3,0.6-2.4,1.6-3c0.3-0.2,0.5-0.3,0.8-0.4
			c0-0.1,0-0.1,0-0.2V7.9c0-0.7,0.6-1.3,1.3-1.3h0.1c0.7,0,1.3,0.6,1.3,1.3v13.2c0,0.1,0,0.1,0,0.2c0.3,0.1,0.6,0.3,0.8,0.4
			C28,22.4,28.6,23.5,28.6,24.7z"/>
		<path class="st3" d="M25.8,21.6V10.7h-2v10.9c-1.3,0.4-2.3,1.7-2.3,3.1c0,1.8,1.5,3.3,3.3,3.3c1.8,0,3.3-1.5,3.3-3.3
			C28.2,23.2,27.2,22,25.8,21.6z"/>
	</g>
</g>
</svg>
