<?xml version="1.0" encoding="utf-8"?>
<!-- Generator: Adobe Illustrator 25.4.2, SVG Export Plug-In . SVG Version: 6.00 Build 0)  -->
<svg version="1.1" id="Layer_1" xmlns="http://www.w3.org/2000/svg" xmlns:xlink="http://www.w3.org/1999/xlink" x="0px" y="0px"
	 viewBox="0 0 30 30" style="enable-background:new 0 0 30 30;" xml:space="preserve">
<style type="text/css">
	.st0{fill:#6B99D2;}
	.st1{fill:#26477A;}
</style>
<g id="_x31_6">
	<path class="st0" d="M10.5,11.6L10.5,11.6c0-0.3-0.1-0.6-0.1-0.8c0-1.6,1.3-2.9,2.9-2.9c0.7,0,1.3,0.2,1.8,0.7
		c0.4-1.7,1.9-2.9,3.6-2.9c2.1,0,3.7,1.7,3.7,3.7c0,0.2,0,0.5-0.1,0.7c0.2,0,0.3,0,0.5,0c1.7,0,3.1,1.4,3.1,3.1
		c0,1.2-0.6,2.2-1.6,2.7c-0.4,0.2-0.8,0.4-1.3,0.4H10.5c-1.3,0-2.3-1-2.3-2.3v0C8.2,12.6,9.3,11.6,10.5,11.6z"/>
	<path class="st1" d="M16.5,15.5L16.5,15.5c0-0.3,0.1-0.6,0.1-0.8c0-1.6-1.3-2.9-2.9-2.9c-0.7,0-1.3,0.2-1.8,0.7
		c-0.4-1.7-1.9-2.9-3.6-2.9c-2.1,0-3.7,1.7-3.7,3.7c0,0.2,0,0.5,0.1,0.7c-0.2,0-0.3,0-0.5,0C2.4,13.9,1,15.3,1,17
		c0,1.2,0.6,2.2,1.6,2.7C3,20,3.4,20.1,3.9,20.1h12.7c1.3,0,2.3-1,2.3-2.3v0C18.9,16.5,17.8,15.5,16.5,15.5z"/>
	<path class="st0" d="M16,15.6L16,15.6c0-0.3,0.1-0.6,0.1-0.8c0-1.6-1.3-2.9-2.9-2.9c-0.7,0-1.3,0.2-1.8,0.7
		C11,10.9,9.5,9.7,7.7,9.7C5.6,9.7,4,11.3,4,13.4c0,0.2,0,0.5,0.1,0.7c-0.2,0-0.3,0-0.5,0c-1.7,0-3.1,1.4-3.1,3.1
		c0,1.2,0.6,2.2,1.6,2.7c0.4,0.2,0.8,0.4,1.3,0.4H16c1.3,0,2.3-1,2.3-2.3v0C18.3,16.7,17.3,15.6,16,15.6z"/>
	<g>
		<path class="st1" d="M9.3,22.6c3.5-0.1,7,0,10.6,0c0.8,0,1.6,0,2.3,0.1c1.1,0.2,1.9,1.3,1.1,2.4c-0.6,0.8-2.4,0.5-2.1-0.7
			c0.1-0.4-0.5-0.5-0.6-0.2c-0.4,1.8,2.1,2.5,3.1,1.2c0.6-0.7,0.6-1.7,0.1-2.5c-0.5-0.8-1.4-0.9-2.3-0.9c-4.1-0.2-8.1-0.1-12.2-0.1
			C8.9,22.1,8.9,22.6,9.3,22.6L9.3,22.6z"/>
	</g>
	<g>
		<path class="st1" d="M13,13c2.1,0,4.2,0.1,6.3,0c0.9,0,2.1,0.1,2.8-0.7c0.9-1,0.9-3-0.5-3.5c-1.3-0.5-2.7,0.5-2.4,1.9
			c0.1,0.4,0.6,0.2,0.6-0.2c-0.2-0.8,0.5-1.3,1.3-1.3c1,0.1,1.4,1.4,1,2.2c-0.4,0.9-1.4,1-2.3,1c-2.2,0.1-4.5,0.1-6.8,0
			C12.6,12.5,12.6,13,13,13L13,13z"/>
	</g>
	<g>
		<path class="st1" d="M16.7,6.6c2.1,0,4.2,0.1,6.3,0c0.9,0,2.1,0.1,2.8-0.7c0.9-1,0.9-3-0.5-3.5c-1.3-0.5-2.7,0.5-2.4,1.9
			c0.1,0.4,0.6,0.2,0.6-0.2c-0.2-0.8,0.5-1.3,1.3-1.3c1,0.1,1.4,1.4,1,2.2c-0.4,0.9-1.4,1-2.3,1C21.2,6,18.9,6,16.7,6
			C16.3,6,16.3,6.6,16.7,6.6L16.7,6.6z"/>
	</g>
	<g>
		<path class="st1" d="M23.3,15.3c1.6,0,5,0.7,5.9-1c0.6-1,0.2-2.5-1-2.7c-1.1-0.2-2,0.6-1.8,1.7c0.1,0.4,0.6,0.2,0.6-0.2
			c-0.3-1.6,2.8-1.1,1.8,0.8c-0.4,0.8-1.3,0.8-2,0.8c-1.1,0-2.3-0.1-3.4-0.1C23,14.7,23,15.3,23.3,15.3L23.3,15.3z"/>
	</g>
	<g>
		<path class="st1" d="M5.2,24.5c2.2,0,4.5,0,6.7,0c0.7,0,1.5,0,2.1,0.5c0.7,0.7,0.4,1.9-0.5,2.1c-0.6,0.2-1.7-0.2-1.5-1
			c0.1-0.4-0.5-0.5-0.6-0.2c-0.3,1.4,1.3,2.1,2.4,1.7c1.4-0.5,1.6-2.4,0.4-3.2c-0.8-0.5-1.8-0.4-2.7-0.5c-2.1-0.1-4.2,0-6.3,0
			C4.8,24,4.8,24.5,5.2,24.5L5.2,24.5z"/>
	</g>
	<g>
		<path class="st1" d="M11.4,18.7c4.1-0.1,8.1,0,12.2,0c1,0,1.9,0,2.9,0c0.9,0,2,0,2.4,1.1c0.7,2.1-2.7,2.1-2.4,0.6
			c0.1-0.4-0.5-0.5-0.6-0.2c-0.3,1.6,1.7,2.3,2.9,1.5c0.6-0.5,0.9-1.5,0.6-2.2c-0.3-0.8-1.1-1.2-1.9-1.3c-0.9-0.1-1.8-0.1-2.7-0.1
			c-2.1,0-4.1,0-6.2,0c-2.4,0-4.8,0-7.1,0C11.1,18.1,11.1,18.7,11.4,18.7L11.4,18.7z"/>
	</g>
</g>
</svg>
