<svg id="modification" xmlns="http://www.w3.org/2000/svg" width="10.832" height="12.003" viewBox="0 0 10.832 12.003">
  <path id="Union_23" data-name="Union 23" d="M3.411,12V10.2H10.7V12Zm-3.4-1.716L.758,7.765,6.652,1.941a.22.22,0,0,1,.317,0l1.9,1.918a.214.214,0,0,1,0,.313L2.97,10h.023l-2.575.714a.4.4,0,0,1-.082.01A.347.347,0,0,1,.012,10.287ZM9.521,3.212,7.6,1.315A.216.216,0,0,1,7.6,1L8.346.268a.882.882,0,0,1,1.265,0l.946.937a.9.9,0,0,1,.023,1.273l-.746.734a.218.218,0,0,1-.315,0Z" fill="#7a7f83"/>
</svg>
