<svg xmlns="http://www.w3.org/2000/svg" width="32.483" height="48.606" viewBox="0 0 32.483 48.606">
  <path id="picto_pousse" d="M3811.212,15401a3.717,3.717,0,0,1,3.7-3.734,3.6,3.6,0,0,1,.564.049,6.075,6.075,0,0,1,4.714-2.47,4.863,4.863,0,0,1,6.315-.283,6.611,6.611,0,0,1,6.762,1.837,1.656,1.656,0,0,1,.448-.063,1.685,1.685,0,0,1,1.505.938,2.693,2.693,0,0,1,2.538,2.7,2.725,2.725,0,0,1-.2,1.028Zm12.764-7.632c-.024-.761-.032-1.491-.019-2.209a13.176,13.176,0,0,0-2.12-7.431,5.778,5.778,0,0,1-7.687-1.628c-2.761-3.707-3.256-11.784-3.256-11.784a20.925,20.925,0,0,0,7.633,2.95,6.389,6.389,0,0,1,4.9,7.563,9.941,9.941,0,0,1-.557,1.983c-.827-2.478-3.8-5.149-6.424-6.209a.1.1,0,0,0-.131.069.111.111,0,0,0,.06.129,7.4,7.4,0,0,1,1.255.729,13.319,13.319,0,0,1,2.34,2.158,19.273,19.273,0,0,1,1.877,2.566c.231.373.39.662.517.9l.048.09a14.636,14.636,0,0,1,1.826,4.134,45.678,45.678,0,0,1,2.067-8.28l0,0,.085-.258c.146-.432.328-.962.606-1.654a32.6,32.6,0,0,1,2.4-4.842,22.741,22.741,0,0,1,3.29-4.3,12.551,12.551,0,0,1,1.889-1.587.19.19,0,0,0,.063-.234.177.177,0,0,0-.24-.076c-4.075,2.541-8.283,7.884-8.949,12.271-3.482-6.269-3.658-13.976,4.508-17.241a35.662,35.662,0,0,0,11.913-7.176s1.5,13.65-2.042,20.662a9.805,9.805,0,0,1-12.852,4.779,36.967,36.967,0,0,0-2.274,11.687c.022.555.034,1.156.034,1.816h-.028c0,.18.009.363.016.547A5.121,5.121,0,0,0,3823.977,15393.369Z" transform="translate(-3810.331 -15352.895)" fill="#383f45" stroke="rgba(0,0,0,0)" stroke-width="1"/>
</svg>
