<?xml version="1.0" encoding="utf-8"?>
<!-- Generator: Adobe Illustrator 26.3.1, SVG Export Plug-In . SVG Version: 6.00 Build 0)  -->
<svg version="1.1" id="Calque_1" xmlns="http://www.w3.org/2000/svg" xmlns:xlink="http://www.w3.org/1999/xlink" x="0px" y="0px"
	 viewBox="0 0 18 18" style="enable-background:new 0 0 18 18;" xml:space="preserve">
<style type="text/css">
	.st0{fill:#FE9870;}
</style>
<path id="picto_appel" class="st0" d="M15.5,18h-0.2c-2.7-0.3-5.2-1.2-7.5-2.6C5.7,14,4,12.3,2.6,10.2C1.2,7.9,0.3,5.4,0,2.7
	c0-0.7,0.2-1.3,0.6-1.8C1,0.4,1.6,0.1,2.2,0h2.7c1.2,0,2.3,0.9,2.5,2.1c0.1,0.7,0.2,1.4,0.5,2.1C8.2,5.2,8,6.2,7.3,6.9L6.7,7.5
	c1,1.5,2.3,2.8,3.8,3.8l0.6-0.6c0.5-0.5,1.1-0.7,1.8-0.7c0.3,0,0.6,0,0.8,0.1c0.7,0.3,1.4,0.4,2.1,0.5c1.2,0.2,2.1,1.2,2.1,2.5v2.5
	c0,0.6-0.3,1.3-0.7,1.7C16.8,17.8,16.2,18,15.5,18z M2.5,1.6C2.2,1.7,2,1.8,1.8,2C1.7,2.1,1.6,2.3,1.6,2.6C1.9,5,2.7,7.3,4,9.3
	c1.2,1.9,2.8,3.5,4.7,4.7c2,1.3,4.3,2.1,6.7,2.4c0.2,0,0.5-0.1,0.7-0.2c0.2-0.1,0.3-0.4,0.2-0.6v-2.5c0-0.4-0.3-0.7-0.7-0.8h0
	c-0.8-0.1-1.7-0.4-2.5-0.7c-0.1-0.1-0.2-0.1-0.3-0.1c-0.2,0-0.4,0.1-0.6,0.2l-1.1,1.1c-0.1,0.2-0.3,0.3-0.6,0.3
	c-0.2,0-0.3,0-0.4-0.1c-2.2-1.2-4-3.1-5.3-5.3C4.9,7.4,4.9,7,5.2,6.7l1.1-1c0.2-0.3,0.2-0.6,0.2-0.9C6.1,4.1,5.8,3.2,5.8,2.4
	C5.7,2,5.3,1.7,4.9,1.7L2.5,1.6z"/>
</svg>
