<svg xmlns="http://www.w3.org/2000/svg" xmlns:xlink="http://www.w3.org/1999/xlink" width="18" height="13" viewBox="0 0 18 13">
  <defs>
    <clipPath id="clip-path">
      <path id="Mask" d="M17.7,1.7l-11,11a.967.967,0,0,1-1.4,0l-5-5a.967.967,0,0,1,0-1.4.967.967,0,0,1,1.4,0L6,10.6,16.3.3a.967.967,0,0,1,1.4,0A.967.967,0,0,1,17.7,1.7Z" transform="translate(3 6)" fill="#51b748"/>
    </clipPath>
  </defs>
  <g id="picto_check" transform="translate(3 6)">
    <g id="Groupe_172" data-name="Groupe 172" transform="translate(-6 -12)">
      <path id="Mask-2" data-name="Mask" d="M17.7,1.7l-11,11a.967.967,0,0,1-1.4,0l-5-5a.967.967,0,0,1,0-1.4.967.967,0,0,1,1.4,0L6,10.6,16.3.3a.967.967,0,0,1,1.4,0A.967.967,0,0,1,17.7,1.7Z" transform="translate(3 6)" fill="#51b748"/>
      <g id="Groupe_de_masques_177" data-name="Groupe de masques 177" clip-path="url(#clip-path)">
        <g id="Icon_Color" data-name="Icon Color">
          <rect id="Shape" width="24" height="24" fill="#51b748"/>
        </g>
      </g>
    </g>
  </g>
</svg>
