<?xml version="1.0" encoding="utf-8"?>
<!-- Generator: Adobe Illustrator 26.3.1, SVG Export Plug-In . SVG Version: 6.00 Build 0)  -->
<svg version="1.1" id="Calque_1" xmlns="http://www.w3.org/2000/svg" xmlns:xlink="http://www.w3.org/1999/xlink" x="0px" y="0px"
	 viewBox="0 0 27.7 27.7" style="enable-background:new 0 0 27.7 27.7;" xml:space="preserve">
<style type="text/css">
	.st0{fill:#FE9870;}
</style>
<g id="Calque_2_00000105396112188270714340000000556547207918841744_">
	<g id="Calque_1-2">
		<path class="st0" d="M16.7,13.9L27.1,3.4c0.7-0.8,0.7-2.1-0.1-2.8c-0.8-0.7-1.9-0.7-2.7,0L13.9,11L3.4,0.6c-0.8-0.8-2-0.8-2.8,0
			c-0.8,0.8-0.8,2,0,2.8L11,13.9L0.6,24.3c-0.8,0.8-0.8,2,0,2.8c0,0,0,0,0,0c0.8,0.8,2,0.8,2.8,0l10.4-10.4l10.4,10.4
			c0.4,0.4,0.9,0.6,1.4,0.6c1.1,0,2-0.9,2-2c0-0.5-0.2-1-0.6-1.4L16.7,13.9z"/>
	</g>
</g>
</svg>
