<?xml version="1.0" encoding="utf-8"?>
<!-- Generator: Adobe Illustrator 25.4.2, SVG Export Plug-In . SVG Version: 6.00 Build 0)  -->
<svg version="1.1" id="Calque_1" xmlns="http://www.w3.org/2000/svg" xmlns:xlink="http://www.w3.org/1999/xlink" x="0px" y="0px"
	 viewBox="0 0 40 40" style="enable-background:new 0 0 40 40;" xml:space="preserve">
<style type="text/css">
	.st0{fill:#51B748;}
</style>
<g>
	<path class="st0" d="M5,12.8c0.3,0.1,0.7,0,0.8-0.3c0.1-0.3,0-0.7-0.3-0.8L0.9,9.5c-0.3-0.1-0.7,0-0.8,0.3s0,0.7,0.3,0.8L5,12.8
		L5,12.8z"/>
	<path class="st0" d="M12,5.8C12,5.8,12.1,5.8,12,5.8c0.2,0.4,0.5,0.5,0.9,0.4c0.3-0.1,0.5-0.5,0.3-0.8l-1.8-4.7c0,0,0,0,0,0
		c-0.1-0.3-0.5-0.5-0.8-0.3c-0.3,0.1-0.5,0.5-0.3,0.8L12,5.8z"/>
	<path class="st0" d="M6.1,20.6l-4.7,1.8c0,0,0,0,0,0C1,22.5,0.9,22.9,1,23.2v0c0,0,0,0,0,0c0.1,0.3,0.5,0.5,0.8,0.4l4.8-1.8
		C6.9,21.6,7,21.3,6.9,21C6.8,20.6,6.4,20.5,6.1,20.6z"/>
	<path class="st0" d="M21.7,6.3L21.7,6.3C21.7,6.3,21.7,6.3,21.7,6.3c0.3,0.1,0.7,0,0.8-0.3l2.1-4.6c0.1-0.3,0-0.7-0.3-0.8
		c-0.3-0.2-0.7,0-0.9,0.3l-2.1,4.6c0,0,0,0,0,0C21.2,5.8,21.4,6.1,21.7,6.3z"/>
	<path class="st0" d="M34.9,18.5c0-0.7-0.1-1.3-0.3-2c-1.3-4.4-5.9-6.9-10.3-5.6c-0.3-0.4-0.7-0.7-1-1c-4-3.4-10-3-13.4,1
		c-3.4,4-3,10,1,13.4c0,0.3-0.1,0.6-0.1,0.9c0,3.9,3.1,7,7,7c0.4,0,0.6-0.3,0.6-0.6c0-0.4-0.3-0.6-0.6-0.6c-0.3,0-0.5,0-0.8-0.1
		c-3.1-0.5-5.3-3.3-4.8-6.5c0.1-0.1,0.1-0.3,0.1-0.4c0.6-2.6,2.9-4.5,5.6-4.5h0.7c0.1,0.7,0.2,1.4,0.4,2.1c0.1,0.3,0.5,0.5,0.8,0.4
		c0.3-0.1,0.5-0.5,0.4-0.8c-0.5-1.5-0.5-3.1,0-4.6c1.3-3.6,5.3-5.6,8.9-4.3c3.6,1.3,5.6,5.3,4.3,8.9c-0.1,0.3,0.1,0.7,0.4,0.8
		c0.3,0.1,0.7,0,0.8-0.4c0.2-0.6,0.3-1.2,0.4-1.8c2.3,0.8,3.9,3,3.9,5.4c0,3.2-2.6,5.7-5.7,5.7c0,0,0,0,0,0c-0.4,0-0.6,0.3-0.6,0.6
		h0c0,0.4,0.3,0.6,0.6,0.6c3.1,0,5.9-2.1,6.7-5.1C40.8,23.4,38.6,19.5,34.9,18.5z M18.4,18.2h-0.7c-3,0-5.6,1.9-6.6,4.7
		c-0.8-0.8-1.4-1.8-1.8-2.9c-1.6-4.3,0.5-9,4.8-10.7C15,9,16,8.8,17,8.8c2.3,0,4.5,0.9,6,2.6C20.4,12.7,18.6,15.3,18.4,18.2z"/>
	<path class="st0" d="M32,27.2c-0.3-0.2-0.7-0.1-0.9,0.2l-3.8,7.6c-0.2,0.3,0,0.7,0.3,0.9h0c0.1,0,0.2,0.1,0.3,0.1
		c0.2,0,0.5-0.1,0.6-0.4l3.8-7.6C32.4,27.7,32.3,27.4,32,27.2z"/>
	<path class="st0" d="M23.1,27.2c-0.3-0.2-0.7-0.1-0.9,0.2l-3.8,7.6c-0.2,0.3,0,0.7,0.3,0.9h0c0.1,0,0.2,0.1,0.3,0.1
		c0.2,0,0.5-0.1,0.6-0.4l3.8-7.6C23.5,27.7,23.4,27.4,23.1,27.2z"/>
	<path class="st0" d="M25.7,31c-0.3-0.2-0.7-0.1-0.9,0.2L21,38.9c-0.2,0.3,0,0.7,0.3,0.9v0c0,0,0,0,0,0c0.3,0.2,0.7,0,0.9-0.3
		l3.8-7.6C26.1,31.6,25.9,31.2,25.7,31z"/>
</g>
</svg>
