<?xml version="1.0" encoding="utf-8"?>
<!-- Generator: Adobe Illustrator 25.4.2, SVG Export Plug-In . SVG Version: 6.00 Build 0)  -->
<svg version="1.1" id="Calque_1" xmlns="http://www.w3.org/2000/svg" xmlns:xlink="http://www.w3.org/1999/xlink" x="0px" y="0px"
	 viewBox="0 0 40 40" style="enable-background:new 0 0 40 40;" xml:space="preserve">
<style type="text/css">
	.st0{fill:#51B748;}
</style>
<g>
	<path class="st0" d="M16.2,10c0.2-0.2,0.4-0.3,0.6-0.4c-0.1,0.3-0.1,0.6,0.2,0.7l0,0c0.1,0.1,0.3,0.1,0.4,0.1
		c0.2,0,0.4-0.1,0.5-0.3c0.2-0.3,0.5-0.5,0.8-0.6c0.3,0,0.6-0.2,0.6-0.5c0.1-0.2,0-0.5-0.3-0.6c-1.2-0.6-2.6-0.4-3.6,0.6l0,0
		c-0.3,0.3-0.2,0.6,0,0.8C15.6,10.2,16,10.2,16.2,10z"/>
	<path class="st0" d="M21.6,9.7c0.4,0.1,0.6,0.3,0.8,0.6l0,0c0.2,0.3,0.6,0.3,0.8,0.1c0.2-0.2,0.3-0.5,0.2-0.7
		c0.2,0.1,0.4,0.2,0.6,0.4c0.3,0.2,0.6,0.2,0.8,0c0.3-0.3,0.3-0.6,0-0.8c-0.9-0.9-2.4-1.2-3.6-0.6c-0.2,0.1-0.3,0.4-0.2,0.6
		C21.1,9.5,21.3,9.7,21.6,9.7z"/>
	<path class="st0" d="M13.5,34.2L13.5,34.2c0.5,0,0.7-0.4,0.7-0.7s-0.4-0.7-0.7-0.7c-0.4,0-0.7,0.4-0.7,0.7l0,0l0,0
		C12.8,33.8,13.1,34.2,13.5,34.2z"/>
	<path class="st0" d="M34.9,26.4c-2.5-3.2-6.3-5.2-10.3-5.4c-0.2,0-0.4,0.1-0.6,0.2l-3.9,3.3l-4-3.3c-0.2-0.1-0.4-0.2-0.6-0.2
		c-4.1,0.2-7.9,2.1-10.4,5.4c-1.7,2.4-2.6,5.3-2.7,8.2c0,1.6,1.9,2.6,6,3.1c1.1,0.2,2.3,0.3,3.7,0.4c0.1,0,0.3,0,0.4,0
		c0.6,0,1.2,0.1,1.9,0.1c0.4,0,0.7,0,1.1,0.1l1.5,0.1c0.9,0,1.9,0,3,0s1.9,0,2.9,0l1.5-0.1c0.4,0,0.7,0,1.1-0.1
		c0.6,0,1.3-0.1,1.9-0.1c0.1,0,0.3,0,0.4,0c1.3-0.1,2.6-0.2,3.7-0.4c4.1-0.6,6-1.7,6-3.1C37.5,31.7,36.6,28.8,34.9,26.4z M29.1,36.6
		c-1.2,0.1-2.5,0.2-3.8,0.3L24.2,37c-0.5,0-0.8,0-1.3,0c-0.9,0-1.8,0-2.8,0s-1.8,0-2.8,0c-0.5,0-0.9,0-1.3,0L15,36.9
		c-1.4-0.1-2.7-0.2-3.8-0.3v-5.4h18L29.1,36.6L29.1,36.6z M31.3,36.4c-0.2,0-0.6,0.1-0.7,0.1v-5.9l0,0c0-0.4-0.4-0.7-0.7-0.7H10.4
		l0,0c-0.4,0-0.7,0.4-0.7,0.7v5.9c-0.3,0-0.6-0.1-0.7-0.1c-4.7-0.7-4.8-1.8-4.8-1.8c0.1-2.7,0.9-5.3,2.4-7.4c1.5-2,3.7-3.4,6.1-4.2
		v5.1c0,0.4,0.3,0.6,0.7,0.7c0.4,0,0.7-0.3,0.7-0.7v-5.5c0.5-0.1,0.9-0.2,1.5-0.2l4.2,3.5c0.3,0.3,0.6,0.3,0.9,0l4.2-3.5
		c0.5,0,0.9,0.1,1.4,0.2v5.5c0,0.4,0.3,0.6,0.7,0.7c0.4,0,0.7-0.3,0.7-0.7v-5.1c2.4,0.6,4.5,2.1,6.1,4.2c1.5,2.2,2.3,4.7,2.4,7.4
		C36.1,34.7,36,35.7,31.3,36.4z"/>
	<ellipse class="st0" cx="26.8" cy="33.5" rx="0.7" ry="0.7"/>
	<path class="st0" d="M12.8,12.5v2.8c0,0.6,0.3,1.1,0.6,1.5l3.9,3.3c0.4,0.4,0.9,0.6,1.5,0.6h3c0.6,0,1-0.2,1.5-0.6l3.9-3.3
		c0.4-0.4,0.6-0.9,0.6-1.5v-2.7c1-0.2,1.8-1,1.9-1.9c0.3-1.4-0.6-2.7-1.9-3V7.4c0-0.6-0.3-1-0.6-1.4c-0.6-0.6-3.1-4.4-6.9-4.4
		S13.9,5.2,13.3,6c-0.4,0.4-0.6,0.9-0.6,1.4v0.2c-1.2,0.3-2,1.3-2,2.5S11.6,12.3,12.8,12.5z M13.2,7.5L13.2,7.5L13.2,7.5
		C13.1,7.5,13.1,7.5,13.2,7.5z M13.2,8.9c0.2,0,0.5,0,0.6-0.2c0.1-0.1,0.4-0.3,0.4-1.1V7.4c0-0.1,0.1-0.2,0.2-0.3
		C14.5,7,14.6,7,14.6,6.9c0,0,2.4-3.9,5.6-3.9s5.6,3.8,5.6,3.9c-0.1,0.1,0,0.2,0.1,0.2C26,7.2,26,7.3,26.1,7.4v0.4
		c0,0.7,0.3,1,0.4,1.1c0.1,0.1,0.3,0.1,0.5,0.1h0.1c0.6,0,1,0.5,1,1c0,0.6-0.4,1.1-1,1.1c-0.2,0-0.5,0-0.6,0.2
		c-0.1,0.1-0.4,0.3-0.4,1.1v2.9c0,0.1-0.1,0.3-0.2,0.4L22,18.8c-0.2,0.1-0.3,0.2-0.5,0.2h-2.9c-0.2,0-0.4-0.1-0.5-0.2l-3.9-3.2
		c-0.1-0.1-0.2-0.2-0.2-0.4v-2.9c0-0.7-0.3-1-0.4-1.1c-0.2-0.1-0.4-0.2-0.6-0.2c-0.6,0-1.1-0.5-1.1-1l0,0C12.2,9.5,12.7,9,13.2,8.9z
		"/>
</g>
</svg>
