<svg xmlns="http://www.w3.org/2000/svg" viewBox="0 0 18.82 18.82"><defs><style>.cls-1{fill:#f09e78;}</style></defs><g id="Calque_2" data-name="Calque 2"><g id="Calque_1-2" data-name="Calque 1"><path class="cls-1" d="M18.77,6.76a.68.68,0,0,0-.63-.44h-6L10.05.45A.68.68,0,0,0,9.41,0a.67.67,0,0,0-.64.45L6.7,6.32h-6A.7.7,0,0,0,0,6.76a.68.68,0,0,0,.19.75l4.66,4.08-2,6.34a.69.69,0,0,0,.24.75.7.7,0,0,0,.41.14.68.68,0,0,0,.38-.12L9.41,15l5.5,3.67a.68.68,0,0,0,1-.77l-2-6.34,4.65-4.08A.66.66,0,0,0,18.77,6.76Z"/></g></g></svg>