<svg xmlns="http://www.w3.org/2000/svg" viewBox="0 0 40.72 40.54"><defs><style>.cls-1{fill:#7a7f83;}</style></defs><g id="Calque_2" data-name="Calque 2"><g id="Calque_1-2" data-name="Calque 1"><path class="cls-1" d="M38.22,16.9H8.53L21.17,4.27A2.5,2.5,0,0,0,17.63.73L.73,17.63A3.68,3.68,0,0,0,.42,18c0,.06-.06.12-.1.18s-.09.17-.13.25,0,.17-.08.25a1.8,1.8,0,0,0-.06.22,2.31,2.31,0,0,0,0,1,1.41,1.41,0,0,0,.06.22c0,.08.05.17.08.25s.09.16.13.25a1.62,1.62,0,0,0,.1.18,3.68,3.68,0,0,0,.31.38L19.37,39.8a2.46,2.46,0,0,0,1.76.74,2.51,2.51,0,0,0,1.77-4.27L8.53,21.9H38.22a2.5,2.5,0,0,0,0-5Z"/></g></g></svg>