<svg xmlns="http://www.w3.org/2000/svg" width="40.451" height="45.394" viewBox="0 0 40.451 45.394">
  <path id="picto_stockage" d="M4314.6,15303.3c-.208,0-.376-.223-.376-.5v-10.178c0-.273-.169-.5-.376-.5h-5.507c-.208,0-.376.227-.376.5v10.178c0,.276-.169.5-.376.5H4305.4c-.208,0-.376-.223-.376-.5v-14.149a.449.449,0,0,1,.376-.5h15.059a.449.449,0,0,1,.376.5v14.149c0,.276-.169.5-.376.5Zm-21.719,0h-11a.5.5,0,0,1-.5-.5v-30.737a.5.5,0,0,1,.5-.5h2.742a.5.5,0,0,1,.5.5v.88a.5.5,0,0,0,.5.5h5.757a.5.5,0,0,0,.5-.5v-.88a.5.5,0,0,1,.5-.5h10.273a.5.5,0,0,1,.5.5v30.737a.5.5,0,0,1-.5.5Zm-7.762-3.476v.944a.5.5,0,0,0,.5.5h5.757a.5.5,0,0,0,.5-.5v-.944a.5.5,0,0,0-.5-.5h-5.757A.5.5,0,0,0,4285.121,15299.823Zm0-3.976v.945a.5.5,0,0,0,.5.5h5.757a.5.5,0,0,0,.5-.5v-.945a.5.5,0,0,0-.5-.5h-5.757A.5.5,0,0,0,4285.121,15295.848Zm0-3.975v.944a.5.5,0,0,0,.5.5h5.757a.5.5,0,0,0,.5-.5v-.944a.5.5,0,0,0-.5-.5h-5.757A.5.5,0,0,0,4285.121,15291.873Zm0-3.976v.945a.5.5,0,0,0,.5.5h5.757a.5.5,0,0,0,.5-.5v-.945a.5.5,0,0,0-.5-.5h-5.757A.5.5,0,0,0,4285.121,15287.9Zm0-3.975v.944a.5.5,0,0,0,.5.5h5.757a.5.5,0,0,0,.5-.5v-.944a.5.5,0,0,0-.5-.5h-5.757A.5.5,0,0,0,4285.121,15283.923Zm0-3.979v.948a.5.5,0,0,0,.5.5h5.757a.5.5,0,0,0,.5-.5v-.948a.5.5,0,0,0-.5-.5h-5.757A.5.5,0,0,0,4285.121,15279.944Zm0-3.976v.949a.5.5,0,0,0,.5.5h5.757a.5.5,0,0,0,.5-.5v-.949a.5.5,0,0,0-.5-.5h-5.757A.5.5,0,0,0,4285.121,15275.969Zm25.129,24.741v-1.129a.964.964,0,0,1,1.928,0v1.129a.964.964,0,0,1-1.928,0Zm0-5.035v-1.129a.964.964,0,0,1,1.928,0v1.129a.964.964,0,0,1-1.928,0Zm-4.854-9.217c-.208,0-.376-.224-.376-.5v-4.189c0-.277.169-.5.376-.5h10.765a.338.338,0,0,1,.246.119l3.66,4.194c.261.3.1.876-.246.876Zm-23.389-16.772a.623.623,0,0,1-.626-.622,10.157,10.157,0,0,1,10.158-10.158h1.448a10.157,10.157,0,0,1,10.159,10.158.623.623,0,0,1-.626.622Z" transform="translate(-4280.88 -15258.405)" fill="#383f45" stroke="rgba(0,0,0,0)" stroke-width="1"/>
</svg>
