<?xml version="1.0" encoding="utf-8"?>
<!-- Generator: Adobe Illustrator 26.3.1, SVG Export Plug-In . SVG Version: 6.00 Build 0)  -->
<svg version="1.1" id="Calque_1" xmlns="http://www.w3.org/2000/svg" xmlns:xlink="http://www.w3.org/1999/xlink" x="0px" y="0px"
	 viewBox="0 0 72 16.4" style="enable-background:new 0 0 72 16.4;" xml:space="preserve">
<style type="text/css">
	.st0{fill:#B7B6B7;}
	.st1{fill:#FFFFFF;}
	.st2{fill:#FE9870;}
</style>
<g>
	<g id="Calque_2_00000011022278654276508030000005262822109365372048_">
		<g id="Calque_1-2">
			<path class="st0" d="M44.3,8.7h11.3c0.3,4.5,4.1,8,8.6,7.7c4.5-0.3,8-4.1,7.7-8.6C71.7,3.4,68.1,0,63.8,0c-4.3,0-7.9,3.4-8.2,7.7
				H44.3V8.7z M28,7.7H16.4c-0.3-4.5-4.1-8-8.6-7.7s-8,4.1-7.7,8.6s4.1,8,8.6,7.7c4.2-0.2,7.5-3.6,7.7-7.7H28V7.7z M63.8,15.8
				c-4.2,0-7.6-3.4-7.6-7.6s3.4-7.6,7.6-7.6s7.6,3.4,7.6,7.6C71.4,12.4,68,15.8,63.8,15.8z"/>
			<path class="st0" d="M63.3,7.8h0.2h0.4c0.1,0,0.3-0.1,0.4-0.1c0.1-0.1,0.2-0.2,0.3-0.3c0.1-0.1,0.1-0.3,0.1-0.5
				c0-0.2-0.1-0.5-0.2-0.7C64.3,6.1,64.1,6,63.8,6c-0.2,0-0.4,0-0.6,0.2c-0.2,0.1-0.3,0.3-0.4,0.4l-0.6-0.2c0.1-0.3,0.3-0.5,0.6-0.7
				c0.3-0.2,0.7-0.2,1-0.2c0.2,0,0.4,0,0.6,0.1c0.2,0.1,0.4,0.1,0.5,0.3c0.2,0.1,0.3,0.3,0.4,0.4c0.1,0.2,0.1,0.4,0.1,0.6
				c0,0.3-0.1,0.6-0.3,0.8C65,7.8,64.8,8,64.5,8.1l0,0c0.2,0,0.3,0.1,0.5,0.2c0.1,0.1,0.3,0.2,0.3,0.3c0.1,0.1,0.2,0.3,0.2,0.4
				c0.1,0.2,0.1,0.3,0.1,0.5c0,0.2,0,0.5-0.1,0.7c-0.1,0.2-0.2,0.4-0.4,0.5c-0.2,0.1-0.4,0.2-0.6,0.3C64.3,11,64.1,11,63.8,11
				c-0.4,0-0.8-0.1-1.1-0.3c-0.4-0.2-0.6-0.5-0.8-0.9l0.7-0.2c0.1,0.2,0.2,0.5,0.4,0.6c0.2,0.1,0.5,0.2,0.7,0.2c0.1,0,0.3,0,0.4-0.1
				c0.1-0.1,0.2-0.1,0.3-0.2c0.1-0.1,0.2-0.2,0.2-0.3c0.1-0.1,0.1-0.3,0.1-0.4c0-0.2,0-0.3-0.1-0.5c-0.1-0.1-0.2-0.2-0.3-0.3
				c-0.1-0.1-0.3-0.1-0.4-0.2c-0.2,0-0.3,0-0.5-0.1h-0.2L63.3,7.8z"/>
			<path class="st1" d="M8.6,10.9H8V6.3l0,0L7,7.1L6.6,6.7l1.5-1.2h0.6V10.9z"/>
		</g>
	</g>
	<path class="st2" d="M36.2,0C31.6,0,28,3.7,28,8.2s3.7,8.2,8.2,8.2s8.2-3.7,8.2-8.2S40.7,0,36.2,0z M37.9,11h-3.5v-0.8l2-2
		c0.1-0.1,0.2-0.2,0.3-0.3c0.1-0.1,0.2-0.2,0.2-0.3c0.1-0.1,0.1-0.2,0.2-0.3c0-0.1,0-0.2,0-0.4c0-0.1,0-0.3-0.1-0.4
		C37,6.3,36.8,6.1,36.5,6c-0.1,0-0.2,0-0.3,0c-0.2,0-0.5,0.1-0.7,0.2c-0.2,0.2-0.3,0.4-0.3,0.6l-0.7-0.1c0-0.2,0.1-0.4,0.2-0.6
		c0.1-0.2,0.2-0.3,0.4-0.4c0.2-0.1,0.3-0.2,0.5-0.3c0.2-0.1,0.4-0.1,0.6-0.1c0.2,0,0.4,0,0.6,0.1c0.2,0.1,0.4,0.2,0.5,0.3
		c0.2,0.1,0.3,0.3,0.4,0.5c0.1,0.2,0.1,0.4,0.1,0.6c0,0.2,0,0.4-0.1,0.6c-0.1,0.2-0.1,0.3-0.2,0.5c-0.1,0.1-0.2,0.3-0.3,0.4
		c-0.1,0.1-0.3,0.3-0.4,0.4l-1.7,1.6h2.8V11z"/>
</g>
</svg>
