<svg xmlns="http://www.w3.org/2000/svg" xmlns:xlink="http://www.w3.org/1999/xlink" width="62.187" height="82.6" viewBox="0 0 62.187 82.6">
  <defs>
    <clipPath id="clip-path">
      <path id="Mask" d="M13.7,12.3a.967.967,0,0,1,0,1.4.967.967,0,0,1-1.4,0L7,8.4,1.7,13.7A.908.908,0,0,1,1,14a.908.908,0,0,1-.7-.3.967.967,0,0,1,0-1.4L5.6,7,.3,1.7A.967.967,0,0,1,.3.3.967.967,0,0,1,1.7.3L7,5.6,12.3.3a.967.967,0,0,1,1.4,0,.967.967,0,0,1,0,1.4L8.4,7Z" transform="translate(5 5)" fill="#fff"/>
    </clipPath>
  </defs>
  <g id="picto_smartphone" transform="translate(-0.825)">
    <g id="Group" transform="translate(0.413)">
      <path id="Shape" d="M39.858,82H4.746A4.781,4.781,0,0,1,0,77.186V4.814A4.781,4.781,0,0,1,4.746,0H39.858A4.781,4.781,0,0,1,44.6,4.814V77.185A4.78,4.78,0,0,1,39.858,82Z" transform="translate(0.413)" fill="#545e73"/>
      <rect id="Rectangle-path" width="44.606" height="56.552" transform="translate(0.413 8.483)" fill="#8697cb"/>
      <ellipse id="Oval" cx="4.182" cy="4.241" rx="4.182" ry="4.241" transform="translate(18.534 69.276)" fill="#323a45"/>
      <path id="Shape-2" data-name="Shape" d="M6.97,2.828H1.394A1.4,1.4,0,0,1,0,1.414,1.4,1.4,0,0,1,1.394,0H6.97A1.4,1.4,0,0,1,8.364,1.414,1.4,1.4,0,0,1,6.97,2.828Z" transform="translate(15.746 2.828)" fill="#323a45"/>
      <path id="Shape-3" data-name="Shape" d="M2.788,2.828H1.394A1.4,1.4,0,0,1,0,1.414,1.4,1.4,0,0,1,1.394,0H2.788A1.4,1.4,0,0,1,4.182,1.414,1.4,1.4,0,0,1,2.788,2.828Z" transform="translate(25.504 2.828)" fill="#323a45"/>
    </g>
    <g id="Group-2" data-name="Group" transform="translate(28.413 49)">
      <circle id="Oval-2" data-name="Oval" cx="16.8" cy="16.8" r="16.8" transform="translate(1 0)" fill="#c12121"/>
      <g id="Icon" transform="translate(6 5)">
        <g id="Groupe_4" data-name="Groupe 4">
          <path id="Mask-2" data-name="Mask" d="M13.7,12.3a.967.967,0,0,1,0,1.4.967.967,0,0,1-1.4,0L7,8.4,1.7,13.7A.908.908,0,0,1,1,14a.908.908,0,0,1-.7-.3.967.967,0,0,1,0-1.4L5.6,7,.3,1.7A.967.967,0,0,1,.3.3.967.967,0,0,1,1.7.3L7,5.6,12.3.3a.967.967,0,0,1,1.4,0,.967.967,0,0,1,0,1.4L8.4,7Z" transform="translate(5 5)" fill="#fff"/>
          <g id="Groupe_de_masques_4" data-name="Groupe de masques 4" clip-path="url(#clip-path)">
            <g id="Icon_Color" data-name="Icon Color">
              <rect id="Shape-4" data-name="Shape" width="24" height="24" fill="#fff"/>
            </g>
          </g>
        </g>
      </g>
    </g>
  </g>
</svg>
