<svg xmlns="http://www.w3.org/2000/svg" viewBox="0 0 15.92 17.63"><defs><style>.cls-1{fill:#fff;}</style></defs><g id="Calque_2" data-name="Calque 2"><g id="Calque_1-2" data-name="Calque 1"><path class="cls-1" d="M15.25,3.09H11.82v-.7A2.39,2.39,0,0,0,9.43,0H6.33A2.39,2.39,0,0,0,3.94,2.39v.7H.66A.67.67,0,0,0,0,3.75v.57A.67.67,0,0,0,.66,5h1a1.86,1.86,0,0,0,0,.34v10a2.34,2.34,0,0,0,2.34,2.34h8a2.34,2.34,0,0,0,2.34-2.34v-10a1.69,1.69,0,0,0,0-.33h1a.67.67,0,0,0,.67-.67V3.75A.67.67,0,0,0,15.25,3.09Z"/></g></g></svg>