<svg xmlns="http://www.w3.org/2000/svg" width="44.01" height="32.267" viewBox="0 0 44.01 32.267">
  <path id="picto_tracteur" d="M4101.432,15677.934a.209.209,0,0,1-.207-.181l-.032-.233a.206.206,0,0,0-.18-.177,8.288,8.288,0,0,1-.828-.146.209.209,0,0,0-.229.106l-.11.207a.21.21,0,0,1-.255.1l-1.082-.395a.207.207,0,0,1-.131-.239l.048-.229a.209.209,0,0,0-.108-.229,8.148,8.148,0,0,1-.727-.419.2.2,0,0,0-.252.02l-.174.157a.206.206,0,0,1-.273,0l-.882-.74a.206.206,0,0,1-.043-.269l.126-.2a.205.205,0,0,0-.024-.251,8.27,8.27,0,0,1-.539-.643.209.209,0,0,0-.244-.067l-.22.089a.207.207,0,0,1-.258-.088l-.576-1a.209.209,0,0,1,.052-.269l.185-.143a.207.207,0,0,0,.063-.245,7.779,7.779,0,0,1-.287-.791.207.207,0,0,0-.206-.146l-.233.008a.206.206,0,0,1-.212-.171l-.2-1.134a.209.209,0,0,1,.141-.234l.226-.074a.2.2,0,0,0,.143-.208c-.006-.139-.011-.278-.011-.418s0-.28.011-.42a.208.208,0,0,0-.143-.208l-.226-.072a.209.209,0,0,1-.141-.233l.2-1.135a.209.209,0,0,1,.212-.172l.233.009a.206.206,0,0,0,.206-.146,8.025,8.025,0,0,1,.287-.79.208.208,0,0,0-.063-.245l-.185-.143a.209.209,0,0,1-.052-.269l.576-1a.21.21,0,0,1,.258-.089l.22.089a.208.208,0,0,0,.244-.066,7.893,7.893,0,0,1,.539-.641.208.208,0,0,0,.024-.253l-.126-.2a.208.208,0,0,1,.043-.27l.882-.74a.207.207,0,0,1,.273,0l.174.158a.207.207,0,0,0,.252.021,7.935,7.935,0,0,1,.727-.421.207.207,0,0,0,.108-.229l-.048-.229a.207.207,0,0,1,.131-.239l1.082-.395a.21.21,0,0,1,.255.1l.11.207a.207.207,0,0,0,.229.106,7.762,7.762,0,0,1,.828-.145.207.207,0,0,0,.18-.179l.032-.233a.208.208,0,0,1,.207-.179h1.151a.207.207,0,0,1,.205.179l.033.233a.207.207,0,0,0,.18.179,7.821,7.821,0,0,1,.827.145.209.209,0,0,0,.229-.106l.11-.207a.21.21,0,0,1,.255-.1l1.082.395a.209.209,0,0,1,.133.239l-.05.229a.208.208,0,0,0,.108.229,7.854,7.854,0,0,1,.726.421.209.209,0,0,0,.253-.021l.175-.158a.207.207,0,0,1,.272,0l.883.74a.207.207,0,0,1,.042.27l-.126.2a.209.209,0,0,0,.024.253,7.711,7.711,0,0,1,.54.641.207.207,0,0,0,.243.066l.22-.089a.21.21,0,0,1,.258.089l.575,1a.209.209,0,0,1-.051.269l-.185.143a.21.21,0,0,0-.063.245,7.9,7.9,0,0,1,.287.79.208.208,0,0,0,.207.146l.233-.009a.211.211,0,0,1,.213.172l.2,1.135a.208.208,0,0,1-.141.233l-.226.072a.209.209,0,0,0-.144.208c.008.14.011.279.011.42s0,.279-.011.418a.205.205,0,0,0,.144.208l.226.074a.209.209,0,0,1,.141.234l-.2,1.134a.208.208,0,0,1-.213.171l-.233-.008a.209.209,0,0,0-.207.146,7.66,7.66,0,0,1-.287.791.21.21,0,0,0,.063.245l.185.143a.209.209,0,0,1,.051.269l-.575,1a.207.207,0,0,1-.258.088l-.22-.089a.207.207,0,0,0-.243.067,8.071,8.071,0,0,1-.54.643.206.206,0,0,0-.024.251l.126.2a.206.206,0,0,1-.042.269l-.883.74a.206.206,0,0,1-.272,0l-.175-.157a.206.206,0,0,0-.253-.02,8.063,8.063,0,0,1-.726.419.21.21,0,0,0-.108.229l.05.229a.209.209,0,0,1-.133.239l-1.082.395a.21.21,0,0,1-.255-.1l-.11-.207a.21.21,0,0,0-.229-.106,8.358,8.358,0,0,1-.827.146.206.206,0,0,0-.18.177l-.033.233a.208.208,0,0,1-.205.181Zm-3.165-12.387a5.291,5.291,0,1,0,3.74-1.549A5.254,5.254,0,0,0,4098.267,15665.547Zm28.162,12.364a.208.208,0,0,1-.207-.178l-.029-.208a.205.205,0,0,0-.179-.177c-.219-.028-.435-.066-.646-.112a.207.207,0,0,0-.228.1l-.1.186a.207.207,0,0,1-.255.1l-.892-.325a.208.208,0,0,1-.133-.239l.043-.2a.208.208,0,0,0-.107-.229c-.194-.1-.383-.21-.567-.328a.209.209,0,0,0-.251.021l-.156.14a.21.21,0,0,1-.273,0l-.727-.609a.209.209,0,0,1-.043-.271l.112-.178a.207.207,0,0,0-.023-.251q-.224-.243-.422-.5a.208.208,0,0,0-.242-.065l-.194.079a.209.209,0,0,1-.259-.088l-.474-.823a.207.207,0,0,1,.051-.268l.163-.127a.208.208,0,0,0,.064-.244c-.085-.2-.159-.407-.224-.616a.208.208,0,0,0-.206-.146l-.208.008a.206.206,0,0,1-.212-.172l-.166-.935a.208.208,0,0,1,.141-.233l.2-.065a.207.207,0,0,0,.144-.207c-.005-.109-.007-.219-.007-.328s0-.218.007-.326a.208.208,0,0,0-.144-.208l-.2-.065a.207.207,0,0,1-.141-.232l.166-.936a.206.206,0,0,1,.212-.171l.208.007a.208.208,0,0,0,.206-.146c.065-.208.139-.414.224-.616a.208.208,0,0,0-.064-.244l-.163-.127a.207.207,0,0,1-.051-.268l.474-.823a.209.209,0,0,1,.259-.088l.194.079a.205.205,0,0,0,.242-.066q.2-.259.422-.5a.206.206,0,0,0,.023-.25l-.112-.179a.208.208,0,0,1,.043-.27l.727-.61a.206.206,0,0,1,.273,0l.156.139a.2.2,0,0,0,.251.021q.276-.177.567-.329a.207.207,0,0,0,.107-.227l-.043-.2a.207.207,0,0,1,.133-.238l.892-.325a.209.209,0,0,1,.255.1l.1.184a.206.206,0,0,0,.228.1c.212-.046.428-.084.646-.112a.205.205,0,0,0,.179-.177l.029-.208a.207.207,0,0,1,.207-.178h.949a.207.207,0,0,1,.206.178l.03.208a.2.2,0,0,0,.179.177c.217.028.432.066.646.112a.2.2,0,0,0,.228-.1l.1-.184a.209.209,0,0,1,.255-.1l.892.325a.207.207,0,0,1,.132.238l-.043.2a.206.206,0,0,0,.107.227c.193.1.384.211.568.329a.2.2,0,0,0,.251-.021l.155-.139a.206.206,0,0,1,.272,0l.727.61a.207.207,0,0,1,.042.27l-.112.179a.206.206,0,0,0,.023.25c.149.162.29.329.422.5a.206.206,0,0,0,.242.066l.194-.079a.209.209,0,0,1,.259.088l.475.823a.207.207,0,0,1-.052.268l-.164.127a.208.208,0,0,0-.063.244c.084.2.159.408.224.616a.207.207,0,0,0,.206.146l.208-.007a.206.206,0,0,1,.212.171l.165.936a.206.206,0,0,1-.141.232l-.2.065a.208.208,0,0,0-.144.208c.005.108.008.218.008.326s0,.219-.008.328a.207.207,0,0,0,.144.207l.2.065a.206.206,0,0,1,.141.233l-.165.935a.207.207,0,0,1-.212.172l-.208-.008a.207.207,0,0,0-.206.146q-.1.313-.224.616a.208.208,0,0,0,.063.244l.164.127a.207.207,0,0,1,.052.268l-.475.823a.209.209,0,0,1-.259.088l-.194-.079a.208.208,0,0,0-.242.065c-.133.173-.273.341-.422.5a.207.207,0,0,0-.023.251l.112.178a.209.209,0,0,1-.042.271l-.727.609a.209.209,0,0,1-.272,0l-.155-.14a.209.209,0,0,0-.251-.021c-.185.118-.375.229-.568.328a.207.207,0,0,0-.107.229l.043.2a.208.208,0,0,1-.132.239l-.892.325a.208.208,0,0,1-.255-.1l-.1-.186a.206.206,0,0,0-.228-.1c-.214.046-.429.084-.646.112a.2.2,0,0,0-.179.177l-.03.208a.208.208,0,0,1-.206.178Zm-2.467-10.429a4.158,4.158,0,1,0,2.94-1.218A4.136,4.136,0,0,0,4123.962,15667.482Zm1.759,4.122a1.671,1.671,0,1,1,1.182.49A1.658,1.658,0,0,1,4125.721,15671.6Zm-25.467-.562a2.481,2.481,0,1,1,1.753.726A2.463,2.463,0,0,1,4100.254,15671.042Zm11.875.159a.389.389,0,0,1-.386-.446,10.014,10.014,0,0,0,.107-1.467,9.848,9.848,0,0,0-18.518-4.66,1.423,1.423,0,0,1-1.254.747h-.549a.165.165,0,0,1-.157-.215,11.229,11.229,0,0,1,6.315-6.888v-10.229a1.376,1.376,0,0,1,1.376-1.376h14.863a2.447,2.447,0,0,1,2.428,2.134l.943,7.281.6.106v-4.508a.482.482,0,0,1,.481-.481h.316v-1.327a2.651,2.651,0,0,1,1.15-2.186l.9-.615.387.564-.9.614a1.97,1.97,0,0,0-.855,1.622v1.327h.315a.482.482,0,0,1,.482.481v4.912l9.371,1.664a2.749,2.749,0,0,1,2.184,2.038l.654,2.615a.342.342,0,0,1-.526.364,8.694,8.694,0,0,0-13.643,7.147c0,.138,0,.273.01.41a.352.352,0,0,1-.352.369Zm-8.253-13.636a11.078,11.078,0,0,1,6.026,3.114,11.2,11.2,0,0,1,1.859,2.45h3.972v-5.719l-1.086-8.389a.727.727,0,0,0-.719-.632h-10.052Zm-4.464.146a11.146,11.146,0,0,1,2.6-.3c.2,0,.4,0,.6.016v-9.036h-3.192Z" transform="translate(-4090.861 -15646.167)" fill="#383f45" stroke="rgba(0,0,0,0)" stroke-width="1"/>
</svg>
