<svg xmlns="http://www.w3.org/2000/svg" viewBox="0 0 45.47 39.55"><defs><style>.cls-1{fill:#fff;}</style></defs><g id="Calque_2" data-name="Calque 2"><g id="Calque_1-2" data-name="Calque 1"><path class="cls-1" d="M28.92,17.11l-1.93,1V6A6,6,0,0,0,15,6V24.29l-1,.52V9.45a6,6,0,1,0-12,0V38H.78a.79.79,0,0,0,0,1.57h9a.79.79,0,0,0,0-1.57H3.48V9.45a4.45,4.45,0,0,1,8.9,0v30.1H22.49V30.86H34.62v8.69H45.47V25.62ZM16.53,6a4.45,4.45,0,0,1,8.89,0v12.9l-8.89,4.57ZM43.91,38H36.19V29.29H20.92V38h-7V26.45a.77.77,0,0,0,.41-.09l14.57-7.49,15,7.7Z"/><rect class="cls-1" x="23.92" y="31.8" width="3.53" height="2.31"/><rect class="cls-1" x="23.92" y="34.52" width="3.53" height="2.31"/><rect class="cls-1" x="23.92" y="37.24" width="3.53" height="2.31"/><rect class="cls-1" x="28.63" y="34.52" width="3.53" height="2.31"/><rect class="cls-1" x="28.63" y="37.24" width="3.53" height="2.31"/></g></g></svg>