<?xml version="1.0" encoding="utf-8"?>
<!-- Generator: Adobe Illustrator 26.3.1, SVG Export Plug-In . SVG Version: 6.00 Build 0)  -->
<svg version="1.1" id="Calque_1" xmlns="http://www.w3.org/2000/svg" xmlns:xlink="http://www.w3.org/1999/xlink" x="0px" y="0px"
	 viewBox="0 0 52.7 54.9" style="enable-background:new 0 0 52.7 54.9;" xml:space="preserve">
<style type="text/css">
	.st0{fill:#7A7F83;}
</style>
<g id="picto_ouverture-prix" transform="translate(26.325 26.951)">
	<g id="asset_downtime_period" transform="translate(-26.325 -26.951)">
		<path id="Tracé_672" class="st0" d="M24.2,42.1c-0.2-2.9,0.5-5.8,2-8.3H11.7c-0.4,0-0.8-0.3-0.8-0.7c0,0,0-0.1,0-0.1v-0.8
			c0-0.4,0.3-0.8,0.7-0.8c0,0,0.1,0,0.1,0H28c0.6-0.6,1.1-1.1,1.8-1.6c-0.2-0.1-0.4-0.4-0.4-0.7V17c0-0.5,0.4-0.8,0.8-0.8
			c0.5,0,0.8,0.4,0.8,0.8c0,0,0,0,0,0V29c0.7-0.5,1.5-0.8,2.3-1.1V17c0-0.4,0.3-0.8,0.7-0.8c0,0,0.1,0,0.1,0h1.6
			c0.4,0,0.8,0.3,0.8,0.7c0,0,0,0.1,0,0.1v10.1c0.2,0,0.5-0.1,0.7-0.1c2.9-0.2,5.8,0.5,8.4,2V3.6c0-1.2-1-2.2-2.3-2.3H4.4
			c-1.2,0-2.2,1-2.3,2.3v39c0,1.2,1,2.2,2.3,2.3h5v8c0,1.2,7.1-8,7.1-8h8.2C24.4,44,24.2,43,24.2,42.1z M20.6,29.1
			c0,0.4-0.3,0.8-0.7,0.8c0,0-0.1,0-0.1,0h-1.6c-0.4,0-0.8-0.3-0.8-0.7c0,0,0-0.1,0-0.1V17c0-0.4,0.3-0.8,0.7-0.8c0,0,0.1,0,0.1,0
			h1.6c0.4,0,0.8,0.3,0.8,0.7c0,0,0,0.1,0,0.1L20.6,29.1z M27.9,29.1c0,0.4-0.3,0.8-0.7,0.8c0,0-0.1,0-0.1,0h-3.2
			c-0.4,0-0.8-0.3-0.8-0.7c0,0,0-0.1,0-0.1V17c0-0.4,0.3-0.8,0.7-0.8c0,0,0.1,0,0.1,0H27c0.4,0,0.8,0.3,0.8,0.7c0,0,0,0.1,0,0.1
			L27.9,29.1z M10.9,13c0-0.4,0.3-0.8,0.7-0.8c0,0,0.1,0,0.1,0h24.2c0.4,0,0.8,0.3,0.8,0.7c0,0,0,0.1,0,0.1v0.8
			c0,0.4-0.3,0.8-0.7,0.8c0,0-0.1,0-0.1,0H11.7c-0.4,0-0.8-0.3-0.8-0.7c0,0,0-0.1,0-0.1L10.9,13L10.9,13z M10.9,17
			c0-0.4,0.3-0.8,0.7-0.8c0,0,0.1,0,0.1,0H15c0.4,0,0.8,0.3,0.8,0.7c0,0,0,0.1,0,0.1v12.1c0,0.4-0.3,0.8-0.7,0.8c0,0-0.1,0-0.1,0
			h-3.2c-0.4,0-0.8-0.3-0.8-0.7c0,0,0-0.1,0-0.1V17z"/>
		<path id="Tracé_673" class="st0" d="M37.6,35.6h1.1c0.3,0,0.5,0.3,0.6,0.6v5.1c0,0.2-0.1,0.3-0.2,0.5L35.9,45
			c-0.3,0.2-0.6,0.2-0.8,0l-0.7-0.8c-0.2-0.3-0.2-0.6,0-0.8l2.7-2.7v-4.4C37.1,35.9,37.3,35.6,37.6,35.6
			C37.6,35.6,37.6,35.6,37.6,35.6z M50.9,40.7h-1.7v-0.4c-0.5-5.9-5.7-10.4-11.6-9.9c-5.9,0.5-10.4,5.7-9.9,11.6s5.7,10.4,11.6,9.9
			c2.7-0.2,5.2-1.4,7-3.4c0.2-0.2,0.4-0.4,0.2-0.6l-0.9-1.1c-0.2-0.2-0.5-0.3-0.7-0.1c0,0-0.1,0.1-0.1,0.1c-1.8,2-4.5,3-7.2,2.7
			c-3.9-0.6-7-3.6-7.6-7.5c-0.5-4.7,2.8-8.9,7.5-9.5c4.7-0.5,8.9,2.8,9.5,7.5c0,0,0,0.1,0,0.1l0,0v0.4h-1.7c-0.3,0-0.5,0.3-0.6,0.6
			c0,0.2,0,0.3,0.1,0.4l2.9,3.6c0.2,0.3,0.6,0.3,0.9,0.1c0,0,0,0,0.1-0.1l2.9-3.6c0.2-0.3,0.2-0.6,0-0.8
			C51.3,40.7,51.1,40.7,50.9,40.7z"/>
	</g>
</g>
</svg>
