<?xml version="1.0" encoding="utf-8"?>
<!-- Generator: Adobe Illustrator 25.4.2, SVG Export Plug-In . SVG Version: 6.00 Build 0)  -->
<svg version="1.1" id="Calque_1" xmlns="http://www.w3.org/2000/svg" xmlns:xlink="http://www.w3.org/1999/xlink" x="0px" y="0px"
	 viewBox="0 0 40 40" style="enable-background:new 0 0 40 40;" xml:space="preserve">
<style type="text/css">
	.st0{fill:#51B748;}
</style>
<g>
	<path class="st0" d="M22.7,26v-1.5l0,0c0-0.2-0.2-0.3-0.3-0.3c-0.2,0-0.3,0.2-0.3,0.3v1.6c-0.4,0-1,0.2-1.3,0.3
		c-0.4,0.4-0.4,2-0.4,2h0.1c0.3,0,1.6,0,1.9-0.4C22.8,27.7,22.8,26,22.7,26L22.7,26z"/>
	<path class="st0" d="M10.8,9c0.3,0,0.6-0.3,0.6-0.6c0-0.8,0.5-1.6,1.2-1.9c1-0.4,2.3,0,2.7,1c0.1,0.2,0.2,0.3,0.3,0.3
		c0.3,0.2,0.7,0,0.8-0.3c0.5-1,1.7-1.4,2.8-0.9c0.2,0.1,0.3,0.1,0.5,0s0.3-0.3,0.3-0.4c0.2-0.8,0.9-1.4,1.7-1.6
		c1.1-0.2,2.2,0.6,2.4,1.7c0,0.2,0.2,0.3,0.3,0.4c0.4,0.2,0.6,0.2,0.8,0c0.3-0.3,0.8-0.4,1.2-0.4l0,0c1.1,0,2.1,1,2.1,2.1l0,0
		c0,0,0,0,0,0.1c0,0.3,0.3,0.6,0.6,0.6s0.6-0.3,0.6-0.6c0-1.8-1.5-3.3-3.3-3.3c-0.4,0-0.9,0.1-1.2,0.3c-0.3-0.7-0.9-1.2-1.6-1.6
		c-1.7-0.8-3.6-0.2-4.5,1.5c-1.1-0.3-2.4,0-3.2,0.9c-0.6-0.8-1.5-1.2-2.4-1.2c-1.8,0-3.3,1.5-3.3,3.3C10.2,8.7,10.5,9,10.8,9z"/>
	<path class="st0" d="M17.2,28.9c0,0,0,1.6,0.4,2c0.3,0.3,1.6,0.4,1.9,0.4h0.1c0,0,0-1.6-0.4-2C18.9,28.8,17.2,28.9,17.2,28.9z"/>
	<path class="st0" d="M35.8,29.2c-0.7-1-1-2.1-1.1-3.3c-0.4-3.7-1.7-7.3-3.7-10.4c0.7-0.4,1-1.1,1.1-1.9v-2.3c0-0.4-0.2-0.8-0.5-1
		c-0.4-0.3-1-0.3-1.4,0c-6.6,3-14.1,3-20.5,0c-0.4-0.3-1-0.3-1.4,0c-0.3,0.2-0.5,0.6-0.5,1v2.3c0.1,0.8,0.5,1.5,1.1,1.9
		C7,18.6,5.7,22.2,5.2,25.9c0,1.2-0.4,2.4-1.1,3.3c-0.9,0.7-1.4,1.7-1.6,2.7c-0.1,0.8,0.2,1.5,0.7,2.1C4,34.7,5,35,6,34.9
		c1-0.1,2-0.1,3,0c0.4,0.1,0.9,0.2,1.3,0.3c3.1,1,6.5,1.4,9.7,1.3c3.3,0,6.6-0.4,9.7-1.3c0.4-0.1,0.9-0.3,1.3-0.3c1-0.1,2-0.1,3,0
		c1,0.1,2-0.2,2.8-0.9c0.5-0.5,0.8-1.3,0.7-2.1C37.3,30.9,36.7,29.9,35.8,29.2z M9,11.3c0.1,0,0.2,0,0.3,0.1
		c6.9,3.1,14.8,3.1,21.6,0c0.2-0.1,0.3-0.1,0.2-0.1v2.3c-0.1,0.4-0.3,0.8-0.7,1c-6.6,3-14.1,3-20.5,0c-0.3-0.2-0.6-0.5-0.7-1L9,11.3
		L9,11.3z M35.9,33.1c-0.5,0.4-1.2,0.6-1.8,0.5c-1-0.1-2.1-0.1-3.1,0c-0.5,0.1-1,0.2-1.5,0.3c-3.1,0.9-6.2,1.3-9.4,1.3
		c-3.1,0-6.4-0.4-9.4-1.3c-0.5-0.2-1-0.3-1.5-0.3c-0.3,0-0.6,0-1,0c-0.5,0-1.2,0-2.1,0.1c-0.6,0.1-1.3-0.1-1.8-0.5
		c-0.3-0.3-0.4-0.7-0.3-1.1c0-0.5,0.3-1,1.3-1.9c0.9-1.1,1.4-2.5,1.4-4c0.4-3.6,1.7-7,3.6-10.1c3.1,1.3,6.6,2,10,2s6.8-0.7,10-2
		c1.9,3.1,3.1,6.5,3.6,10.1c0,1.5,0.5,2.9,1.4,4c1,1,1.2,1.5,1.2,1.9C36.3,32.4,36.2,32.8,35.9,33.1z"/>
	<path class="st0" d="M20.7,29.3c-0.4,0.4-0.4,2-0.4,2h0.1c0.3,0,1.6,0,1.9-0.4c0.4-0.4,0.4-2,0.4-2S21.1,28.8,20.7,29.3z"/>
	<path class="st0" d="M20.3,23v-1.1c0-0.2-0.2-0.3-0.3-0.3c-0.2,0-0.3,0.2-0.3,0.3V23c-0.4,0.3-0.7,0.9-0.8,1.4l0,0
		c0,0.6,1.1,1.7,1.1,1.7s1.1-1.1,1.1-1.7C21,23.8,20.8,23.3,20.3,23z"/>
	<path class="st0" d="M18,26.1v-1.5c0-0.2-0.2-0.3-0.3-0.3c-0.2,0-0.3,0.1-0.4,0.3v1.5l0,0c0,0,0,1.6,0.4,2c0.3,0.3,1.6,0.4,1.9,0.4
		h0.1c0,0,0-1.6-0.4-2C18.9,26.2,18.4,26.1,18,26.1z"/>
</g>
</svg>
