<?xml version="1.0" encoding="utf-8"?>
<!-- Generator: Adobe Illustrator 26.3.1, SVG Export Plug-In . SVG Version: 6.00 Build 0)  -->
<svg version="1.1" id="Calque_1" xmlns="http://www.w3.org/2000/svg" xmlns:xlink="http://www.w3.org/1999/xlink" x="0px" y="0px"
	 viewBox="0 0 50.8 54.9" style="enable-background:new 0 0 50.8 54.9;" xml:space="preserve">
<style type="text/css">
	.st0{fill:#7A7F83;}
</style>
<g id="picto_fermeture_tech" transform="translate(26.326 26.951)">
	<path id="Union_43" class="st0" d="M-17,25.9v-8h-5c-1.2,0-2.2-1-2.3-2.3v-39c0-1.2,1-2.2,2.3-2.3h39.1c1.2,0,2.2,1,2.3,2.3V2
		C16.9,0.5,14-0.1,11,0c-0.2,0-0.5,0.1-0.7,0.1V-9.9c0-0.2-0.1-0.5-0.2-0.6c-0.2-0.2-0.4-0.2-0.6-0.2H7.9c-0.2,0-0.5,0.1-0.6,0.2
		c-0.2,0.2-0.2,0.4-0.2,0.6V0.9C6.3,1.2,5.5,1.5,4.7,2V-9.9c0-0.5-0.4-0.8-0.8-0.8h0C3.4-10.8,3-10.4,3-9.9l0,0v12
		c0,0.3,0.1,0.5,0.4,0.7c-0.6,0.5-1.2,1-1.8,1.6h-16.3c-0.2,0-0.5,0.1-0.6,0.2c-0.2,0.2-0.2,0.4-0.2,0.6V6c0,0.2,0.1,0.5,0.2,0.6
		c0.2,0.2,0.4,0.2,0.6,0.2h14.5c-1.5,2.5-2.2,5.4-2,8.3c0,0.9,0.2,1.8,0.5,2.7h-8.2c0,0-6.3,8.1-7.1,8.1C-16.9,26-17,26-17,25.9z
		 M0.7,3c0.2,0,0.5-0.1,0.6-0.2c0.2-0.2,0.2-0.4,0.2-0.6V-9.9c0-0.2-0.1-0.5-0.2-0.6c-0.2-0.2-0.4-0.2-0.6-0.2h-3.2
		c-0.2,0-0.5,0.1-0.6,0.2c-0.2,0.2-0.2,0.4-0.2,0.6V2.2c0,0.2,0.1,0.5,0.2,0.6C-3,3-2.7,3.1-2.5,3H0.7z M-6.5,3
		c0.2,0,0.5-0.1,0.6-0.2c0.2-0.2,0.2-0.4,0.2-0.6V-9.9c0-0.2-0.1-0.5-0.2-0.6c-0.2-0.2-0.4-0.2-0.6-0.2h-1.6c-0.2,0-0.5,0.1-0.6,0.2
		C-8.9-10.4-9-10.2-9-9.9V2.2c0,0.2,0.1,0.5,0.2,0.6C-8.6,3-8.4,3.1-8.1,3H-6.5z M-11.3,3c0.2,0,0.5-0.1,0.6-0.2
		c0.2-0.2,0.2-0.4,0.2-0.6V-9.9c0-0.2-0.1-0.5-0.2-0.6c-0.2-0.2-0.4-0.2-0.6-0.2h-3.2c-0.2,0-0.5,0.1-0.6,0.2
		c-0.2,0.2-0.2,0.4-0.2,0.6V2.2c0,0.2,0.1,0.5,0.2,0.6C-15,3-14.8,3.1-14.5,3H-11.3z M9.6-12.3c0.2,0,0.5-0.1,0.6-0.2
		c0.2-0.2,0.2-0.4,0.2-0.6V-14c0-0.2-0.1-0.5-0.2-0.6c-0.2-0.2-0.4-0.2-0.6-0.2h-24.2c-0.2,0-0.5,0.1-0.6,0.2
		c-0.2,0.2-0.2,0.4-0.2,0.6h-0.1v0.8c0,0.2,0.1,0.5,0.2,0.6c0.2,0.2,0.4,0.2,0.6,0.2H9.6z M11.1,25.8L10,22.8L8.2,22l-2.6,1.3
		l-0.3,0.2l-1.8-1.8l1.4-3L4.2,17l-2.7-0.9L1.2,16v-2.5l3.1-1.1L5,10.6L3.7,8L3.5,7.7l1.8-1.8l3,1.4L10,6.5l0.9-2.7L11,3.5h2.6
		l1.1,3.1l1.7,0.7L19,6l0.3-0.2l1.8,1.8l-1.4,3l0.7,1.7l2.7,0.9l0.4,0.1v2.5L20.4,17l-0.7,1.7l1.3,2.5l0.2,0.3l-1.8,1.8l-3-1.4
		l-1.7,0.7l-0.9,2.7l-0.1,0.4H11.1z M12.3,9.6c-2.8,0-5.1,2.3-5.1,5.1c0,2.8,2.3,5.1,5.1,5.1c1.3,0,2.6-0.5,3.6-1.5
		c1-1,1.5-2.2,1.5-3.6C17.4,11.8,15.1,9.6,12.3,9.6L12.3,9.6z"/>
</g>
</svg>
