<?xml version="1.0" encoding="utf-8"?>
<!-- Generator: Adobe Illustrator 25.4.2, SVG Export Plug-In . SVG Version: 6.00 Build 0)  -->
<svg version="1.1" id="Calque_1" xmlns="http://www.w3.org/2000/svg" xmlns:xlink="http://www.w3.org/1999/xlink" x="0px" y="0px"
	 viewBox="0 0 40 40" style="enable-background:new 0 0 40 40;" xml:space="preserve">
<style type="text/css">
	.st0{fill:#51B748;}
</style>
<g>
	<path class="st0" d="M39.3,35h-0.5V10.4c0-3.7-2.9-6.6-6.6-6.6c-3.7,0-6.6,2.9-6.6,6.6v6.5l-9.6-5.3c-0.2-0.1-0.4-0.1-0.7,0
		L4.7,17.4c-0.1,0-0.2,0.1-0.2,0.2l-4.3,7.5C-0.1,25.4,0,25.7,0.3,26c0.1,0.1,0.2,0.1,0.3,0.1h1.2v9H1.4c-0.3,0-0.7,0.3-0.7,0.7
		c0,0.2,0.3,0.5,0.7,0.5h37.9c0.3,0,0.7-0.3,0.7-0.7S39.7,35,39.3,35z M12.4,35l3.3-2.6l3.3,2.6H12.4z M11.4,34.4v-5.5l3.4,2.7
		L11.4,34.4z M19.8,34.4l-7.5-6.1h6.5L17,29.9c-0.2,0.2-0.2,0.5-0.1,0.8c0.2,0.2,0.5,0.2,0.8,0.1l2.2-1.7V34.4z M28.2,25.4v9.6h-7
		v-7.3c0-0.3-0.3-0.7-0.7-0.7h-9.6c-0.3,0-0.7,0.3-0.7,0.7v7.3h-7v-9.6c0-0.3-0.3-0.7-0.7-0.7H1.7l3.7-6.4l10.2-5.6l10.2,5.6
		l3.7,6.4h-0.8C28.4,24.8,28.2,25.1,28.2,25.4z M37.5,35h-8.1v-9h1.3c0.3,0,0.7-0.3,0.7-0.7c0-0.1,0-0.2-0.1-0.3l-4.3-7.4v-6.7h10.6
		V35z M27,9.7C27.2,7,29.5,5,32.2,5c2.7,0,5,2.1,5.3,4.7H27z"/>
	<path class="st0" d="M15.5,19.6c-0.5,0-1,0.4-1,1c0,0.5,0.4,1,1,1c0.5,0,1-0.4,1-1C16.5,20,16,19.6,15.5,19.6z M15.5,21
		c-0.2,0-0.4-0.2-0.4-0.4c0-0.2,0.2-0.4,0.4-0.4c0.2,0,0.4,0.2,0.4,0.4C15.9,20.8,15.7,21,15.5,21z"/>
</g>
</svg>
