<svg xmlns="http://www.w3.org/2000/svg" viewBox="0 0 32.57 23.79"><defs><style>.cls-1{fill:#6faf58;}</style></defs><g id="Calque_2" data-name="Calque 2"><g id="Calque_1-2" data-name="Calque 1"><path class="cls-1" d="M27.56,0H5A5,5,0,0,0,0,5V18.78a5,5,0,0,0,5,5H27.56a5,5,0,0,0,5-5V5A5,5,0,0,0,27.56,0Zm3.81,18.78a3.82,3.82,0,0,1-3.81,3.81H5A3.82,3.82,0,0,1,1.2,18.78V5A3.82,3.82,0,0,1,5,1.2H27.56A3.82,3.82,0,0,1,31.37,5Z"/><path class="cls-1" d="M5.53,13.82a.6.6,0,0,0-.6.6v4.76a.6.6,0,0,0,1.2,0V14.42A.6.6,0,0,0,5.53,13.82Z"/><path class="cls-1" d="M8.37,10.06a.6.6,0,0,0-.6.6v8.52a.6.6,0,1,0,1.2,0V10.66A.6.6,0,0,0,8.37,10.06Z"/><path class="cls-1" d="M11.22,10.06a.6.6,0,0,0-.6.6v8.52a.6.6,0,0,0,1.2,0V10.66A.6.6,0,0,0,11.22,10.06Z"/><path class="cls-1" d="M14.07,8.27a.6.6,0,0,0-.6.6V19.18a.6.6,0,0,0,1.2,0V8.87A.6.6,0,0,0,14.07,8.27Z"/><path class="cls-1" d="M17.06,4.33a.6.6,0,0,0-.6.6V19.18a.6.6,0,1,0,1.2,0V4.93A.6.6,0,0,0,17.06,4.33Z"/><path class="cls-1" d="M28.32,17.22H20.18a.6.6,0,0,0,0,1.2h8.14a.6.6,0,0,0,0-1.2Z"/><path class="cls-1" d="M28.32,14.59H20.18a.6.6,0,0,0,0,1.2h8.14a.6.6,0,1,0,0-1.2Z"/><path class="cls-1" d="M24,13a4.48,4.48,0,0,0,4.46-4.28h0c0-.07,0-.13,0-.19a4.46,4.46,0,0,0-2.15-3.81l0,0-.09,0A4.42,4.42,0,0,0,24,4a4.48,4.48,0,0,0,0,9Zm3.24-4.89H24.93l1.21-2A3.25,3.25,0,0,1,27.22,8.08ZM24,5.21a3.24,3.24,0,0,1,1.13.21L23.36,8.37a.61.61,0,0,0,0,.61.6.6,0,0,0,.52.3h3.27A3.27,3.27,0,1,1,24,5.21Z"/></g></g></svg>