<?xml version="1.0" encoding="utf-8"?>
<!-- Generator: Adobe Illustrator 26.3.1, SVG Export Plug-In . SVG Version: 6.00 Build 0)  -->
<svg version="1.1" id="Calque_1" xmlns="http://www.w3.org/2000/svg" xmlns:xlink="http://www.w3.org/1999/xlink" x="0px" y="0px"
	 viewBox="0 0 72 16.4" style="enable-background:new 0 0 72 16.4;" xml:space="preserve">
<style type="text/css">
	.st0{fill:#B7B6B7;}
	.st1{fill:#FE9870;}
</style>
<g>
	<g id="Calque_1-2">
		<path class="st0" d="M16.4,8.7H28c0.3,4.5,4.2,7.9,8.7,7.7c4.1-0.3,7.4-3.5,7.7-7.7h11.3c0.3,4.5,4.1,8,8.6,7.7
			c4.5-0.3,8-4.1,7.7-8.6C71.7,3.4,68.1,0,63.8,0c-4.3,0-7.9,3.4-8.2,7.7H44.3c-0.3-4.5-4.2-7.9-8.7-7.7c-4.1,0.3-7.4,3.5-7.7,7.7
			H16.4V8.7z M36.2,15.8c-4.2,0-7.6-3.4-7.6-7.6s3.4-7.6,7.6-7.6c4.2,0,7.6,3.4,7.6,7.6v0.1C43.7,12.4,40.3,15.8,36.2,15.8z
			 M63.8,15.8c-4.2,0-7.6-3.4-7.6-7.6s3.4-7.6,7.6-7.6c4.2,0,7.6,3.4,7.6,7.6C71.4,12.4,68,15.8,63.8,15.8z"/>
		<path class="st0" d="M34.4,10.2l2-2c0.1-0.1,0.2-0.2,0.3-0.3c0.1-0.1,0.2-0.2,0.2-0.3c0.1-0.1,0.1-0.2,0.2-0.3c0-0.1,0-0.2,0-0.4
			c0-0.1,0-0.3-0.1-0.4c-0.1-0.2-0.3-0.4-0.5-0.5c-0.1,0-0.2,0-0.3-0.1c-0.2,0-0.5,0.1-0.7,0.2c-0.2,0.2-0.3,0.4-0.3,0.6l-0.7-0.1
			c0-0.2,0.1-0.4,0.2-0.6c0.1-0.2,0.2-0.3,0.4-0.4c0.2-0.1,0.3-0.2,0.5-0.3c0.2-0.1,0.4-0.1,0.6-0.1c0.2,0,0.4,0,0.6,0.1
			c0.2,0.1,0.4,0.2,0.5,0.3c0.2,0.1,0.3,0.3,0.4,0.5c0.1,0.2,0.1,0.4,0.1,0.6c0,0.2,0,0.4-0.1,0.6c-0.1,0.2-0.1,0.3-0.2,0.5
			c-0.1,0.1-0.2,0.3-0.3,0.4c-0.1,0.1-0.3,0.3-0.4,0.4l-1.7,1.6h2.8V11h-3.5V10.2z"/>
		<path class="st0" d="M63.3,7.8h0.2h0.4c0.1,0,0.3-0.1,0.4-0.1c0.1-0.1,0.2-0.2,0.3-0.3c0.1-0.1,0.1-0.3,0.1-0.5
			c0-0.2-0.1-0.5-0.2-0.7C64.3,6.1,64.1,6,63.8,6c-0.2,0-0.4,0-0.6,0.2c-0.2,0.1-0.3,0.3-0.4,0.4l-0.6-0.2c0.1-0.3,0.3-0.5,0.6-0.7
			c0.3-0.2,0.7-0.2,1-0.2c0.2,0,0.4,0,0.6,0.1c0.2,0.1,0.4,0.1,0.5,0.3c0.2,0.1,0.3,0.3,0.4,0.4c0.1,0.2,0.1,0.4,0.1,0.6
			c0,0.3-0.1,0.6-0.3,0.8C65,7.8,64.8,8,64.5,8.1l0,0c0.2,0,0.3,0.1,0.5,0.2c0.1,0.1,0.3,0.2,0.3,0.3c0.1,0.1,0.2,0.3,0.2,0.4
			c0.1,0.2,0.1,0.3,0.1,0.5c0,0.2,0,0.5-0.1,0.7c-0.1,0.2-0.2,0.4-0.4,0.5c-0.2,0.1-0.4,0.2-0.6,0.3C64.3,11,64.1,11,63.8,11
			c-0.4,0-0.8-0.1-1.1-0.3c-0.4-0.2-0.6-0.5-0.8-0.9l0.7-0.2c0.1,0.2,0.2,0.5,0.4,0.6c0.2,0.1,0.5,0.2,0.7,0.2c0.1,0,0.3,0,0.4-0.1
			c0.1-0.1,0.2-0.1,0.3-0.2c0.1-0.1,0.2-0.2,0.2-0.3c0.1-0.1,0.1-0.3,0.1-0.4c0-0.2,0-0.3-0.1-0.5c-0.1-0.1-0.2-0.2-0.3-0.3
			c-0.1-0.1-0.3-0.1-0.4-0.2c-0.2,0-0.3,0-0.5-0.1h-0.2L63.3,7.8z"/>
	</g>
	<g>
		<path class="st1" d="M8.2,0C3.7,0,0,3.7,0,8.2s3.7,8.2,8.2,8.2s8.2-3.7,8.2-8.2S12.7,0,8.2,0z M8.6,10.9H8V6.3L7,7.1L6.6,6.7
			l1.5-1.2h0.6V10.9z"/>
	</g>
</g>
</svg>
