<svg id="picto_mdp" xmlns="http://www.w3.org/2000/svg" width="62" height="71" viewBox="0 0 62 71">
  <path id="Shape" d="M57.778,47.413a35.787,35.787,0,0,1-8.656,13.365,45.388,45.388,0,0,1-16.916,9.934A5.215,5.215,0,0,1,30.562,71H30.5a5.3,5.3,0,0,1-1.009-.1,5.489,5.489,0,0,1-.694-.187,45.387,45.387,0,0,1-16.936-9.929A35.719,35.719,0,0,1,3.209,47.423c-3.5-9.4-3.3-19.763-3.137-28.088l0-.128C.107,18.52.127,17.8.139,17A7.555,7.555,0,0,1,7.288,9.629c8.236-.456,14.607-3.118,20.051-8.377l.048-.043a4.619,4.619,0,0,1,6.23,0l.046.043c5.445,5.259,11.816,7.922,20.052,8.377A7.555,7.555,0,0,1,60.863,17c.011.8.032,1.524.064,2.207l0,.054C61.089,27.6,61.286,37.982,57.778,47.413Z" fill="#51b748"/>
  <path id="Shape-2" data-name="Shape" d="M27.718,47.413A35.728,35.728,0,0,1,18.9,60.778,46.414,46.414,0,0,1,1.674,70.712a5.52,5.52,0,0,1-.711.189A5.509,5.509,0,0,1,0,71V0A4.752,4.752,0,0,1,3.11,1.208l.047.043C8.7,6.511,15.191,9.173,23.579,9.629A7.621,7.621,0,0,1,30.86,17c.012.8.033,1.524.066,2.207l0,.054C31.09,27.6,31.292,37.982,27.718,47.413Z" transform="translate(31)" fill="#1e7b16"/>
  <path id="Shape-3" data-name="Shape" d="M36,18A18.022,18.022,0,0,1,18.064,36H18A18,18,0,1,1,18,0h.063A18.022,18.022,0,0,1,36,18Z" transform="translate(13 18)" fill="#fff"/>
  <path id="Shape-4" data-name="Shape" d="M17,18c0,9.9-7.621,17.965-17,18V0C9.379.035,17,8.1,17,18Z" transform="translate(31 18)" fill="#f5f3f9"/>
  <path id="Shape-5" data-name="Shape" d="M16.409,3.593,8.695,11.644l-1.667,1.74a1.959,1.959,0,0,1-2.853,0L.591,9.642a2.169,2.169,0,0,1,0-2.976,1.957,1.957,0,0,1,2.852,0L5.6,8.92l7.956-8.3a1.956,1.956,0,0,1,2.852,0A2.169,2.169,0,0,1,16.409,3.593Z" transform="translate(22 29)" fill="#0075a4"/>
  <path id="Shape-6" data-name="Shape" d="M8.36,3.394,0,11V5.376L5.27.583a2.34,2.34,0,0,1,3.09,0A1.863,1.863,0,0,1,8.36,3.394Z" transform="translate(31 29)" fill="#005070"/>
</svg>
