<?xml version="1.0" encoding="utf-8"?>
<!-- Generator: Adobe Illustrator 25.4.2, SVG Export Plug-In . SVG Version: 6.00 Build 0)  -->
<svg version="1.1" id="Calque_1" xmlns="http://www.w3.org/2000/svg" xmlns:xlink="http://www.w3.org/1999/xlink" x="0px" y="0px"
	 viewBox="0 0 40 40" style="enable-background:new 0 0 40 40;" xml:space="preserve">
<style type="text/css">
	.st0{fill:#51B748;}
</style>
<g>
	<path class="st0" d="M23.9,15.5l6.7,4.2l0,0c0.3,0.2,0.7,0.1,1-0.2c0,0,0,0,0,0c0.2-0.3,0.1-0.7-0.2-0.9l-6.7-4.2
		c-0.3-0.2-0.7-0.1-1,0.2c0,0,0,0,0,0C23.5,14.9,23.6,15.3,23.9,15.5z"/>
	<path class="st0" d="M19.1,18c-0.3-0.2-0.7-0.1-1,0.2c0,0,0,0,0,0c-0.2,0.3-0.1,0.7,0.2,0.9l6.8,4.2c0.3,0.2,0.7,0.1,0.9-0.2
		c0.2-0.3,0.1-0.7-0.2-1L19.1,18z"/>
	<path class="st0" d="M28.7,20.4l-6.8-4.2c-0.3-0.2-0.7-0.1-1,0.2c0,0,0,0,0,0c-0.2,0.3-0.1,0.7,0.2,0.9l6.8,4.2
		c0.3,0.2,0.7,0.1,1-0.2c0,0,0,0,0,0C29.1,21,29,20.6,28.7,20.4z"/>
	<path class="st0" d="M15.6,17.5c0.1,0.1,0.3,0.1,0.4,0.1c0,0,0,0,0,0c0.1,0,0.3,0,0.4-0.1l5.6-3.6c0.2-0.1,0.3-0.3,0.3-0.6
		c0,0,0,0,0,0c0,0,0,0,0,0c0-0.2-0.1-0.5-0.3-0.6l-6.7-4.2c-0.1-0.1-0.3-0.1-0.4-0.1c0,0,0,0-0.1,0c-0.1,0-0.3,0-0.4,0.1l-5.6,3.6
		c-0.2,0.1-0.3,0.3-0.3,0.6c0,0,0,0,0,0s0,0,0,0c0,0.2,0.1,0.5,0.3,0.6L15.6,17.5z M14.9,10l5.5,3.4L16,16.1l-5.5-3.4L14.9,10z"/>
	<path class="st0" d="M39.3,23.6l-2.5-1.6l2.5-1.6c0.1-0.1,0.2-0.1,0.2-0.2c0.2-0.3,0.1-0.7-0.2-0.9L14.7,3.9
		c-0.2-0.1-0.5-0.1-0.7,0L3.3,10.6c-2,1.4-3.2,3.5-3.3,5.9v0.4c0.1,2.4,1.3,4.6,3.3,5.9c0,0,20.3,12.9,20.7,13.1
		c0.3,0.2,0.7,0.3,1.1,0.3c0.7,0,1.3-0.2,1.8-0.6l11.2-7c1.1-0.8,1.8-2,1.9-3.4C40,24.6,39.8,24,39.3,23.6z M22.7,33.3
		C22.7,33.3,22.7,33.3,22.7,33.3L4,21.7c-1.5-1.1-2.5-2.9-2.6-4.7v-0.4c0.1-1.9,1.1-3.6,2.6-4.8l10.3-6.5l23.3,14.6l-11.5,7.2
		C24.1,28.5,22.8,30.8,22.7,33.3z M37.4,27.4l-11.2,7c-0.4,0.3-1,0.5-1.5,0.3c-0.4-0.3-0.6-0.9-0.6-1.4c0.1-2,1.2-3.9,2.8-5l8.6-5.4
		l1.6,1L25.8,31c0,0,0,0,0,0c-0.3,0.2-0.4,0.6-0.2,0.9c0.2,0.3,0.6,0.4,1,0.2l11.6-7.3c0.2-0.2,0.4-0.1,0.4-0.1c0,0,0.1,0.1,0.1,0.4
		C38.6,26,38.1,26.9,37.4,27.4z"/>
	<path class="st0" d="M22.7,24.2l-16-10c-0.3-0.2-0.7-0.1-1,0.2c0,0,0,0,0,0c-0.2,0.3-0.1,0.7,0.2,0.9l16,10c0.3,0.2,0.7,0.1,1-0.2
		c0,0,0,0,0,0C23.2,24.8,23.1,24.4,22.7,24.2z"/>
	<path class="st0" d="M21.1,27.5l-16-10c-0.3-0.2-0.7-0.1-1,0.2c0,0,0,0,0,0c-0.2,0.3-0.1,0.7,0.2,0.9l16,10l0,0
		c0.3,0.2,0.7,0.1,1-0.2c0,0,0,0,0,0C21.5,28.2,21.4,27.7,21.1,27.5z"/>
</g>
</svg>
