<svg xmlns="http://www.w3.org/2000/svg" viewBox="0 0 17.88 20"><defs><style>.cls-1{fill:#7a7f82;}</style></defs><g id="Calque_2" data-name="Calque 2"><g id="Calque_1-2" data-name="Calque 1"><circle class="cls-1" cx="8.94" cy="9.99" r="2.58"/><path class="cls-1" d="M17.19,12.43l-1.56-1,0,.1A6.83,6.83,0,0,0,15.78,10a6.75,6.75,0,0,0-.22-1.69l0,.07,1.63-1c.76-.49.8-1.77.07-2.82a2,2,0,0,0-2.58-.88l-1.54,1h0a6.56,6.56,0,0,0-2-1.1h0V1.59C11.17.69,10.12,0,8.84,0A2,2,0,0,0,6.71,1.69V3.53h0A6.86,6.86,0,0,0,4.58,4.72l-1.65-1C2.16,3.24,1,3.76.36,4.87a2,2,0,0,0,.33,2.7l1.57,1a.43.43,0,0,0,0,0A6.85,6.85,0,0,0,2.1,10a6.72,6.72,0,0,0,.24,1.75,1.17,1.17,0,0,1,0-.11l-1.63,1c-.75.49-.79,1.77-.07,2.82a2,2,0,0,0,2.58.88l1.54-1-.07-.07a6.9,6.9,0,0,0,2.2,1.19l-.13,0v1.94c0,.9,1,1.63,2.33,1.59a2,2,0,0,0,2.13-1.69V16.47l-.13,0a6.83,6.83,0,0,0,2.33-1.3l-.07.08,1.65,1c.77.47,1.94-.05,2.58-1.16A2,2,0,0,0,17.19,12.43Zm-8.25,2A4.41,4.41,0,1,1,13.35,10,4.41,4.41,0,0,1,8.94,14.4Z"/></g></g></svg>