<svg xmlns="http://www.w3.org/2000/svg" viewBox="0 0 100.61 74.09"><defs><style>.cls-1{fill:#fff;}</style></defs><g id="Calque_2" data-name="Calque 2"><g id="Calque_1-2" data-name="Calque 1"><path class="cls-1" d="M99.49,71.86H95V15.45a1,1,0,0,0,0-.17c0-.11,0-.22,0-.34a14.95,14.95,0,0,0-29.89,0c0,.12,0,.23,0,.34a1,1,0,0,0,0,.17V31.21l1,.55L42.51,18.88a1.14,1.14,0,0,0-1.06,0L16.3,32.39a1,1,0,0,0-.44.44L6.11,50.43a1.13,1.13,0,0,0,0,1.11,1.11,1.11,0,0,0,1,.55h3.6V71.86H1.11a1.12,1.12,0,0,0,0,2.23H99.49a1.12,1.12,0,1,0,0-2.23ZM80,2.23a12.73,12.73,0,0,1,12.66,11.6H67.35A12.72,12.72,0,0,1,80,2.23ZM45,61.81a1.11,1.11,0,0,0,.89.44,1.09,1.09,0,0,0,.67-.23l6-4.44V70.65L34.06,56H51l-5.77,4.26A1.12,1.12,0,0,0,45,61.81Zm5.48,10H34l8.42-6.39ZM40.63,64,32,70.6V57.17ZM29.79,54.49l0,.08,0,.24v17H12.91V51a1.11,1.11,0,0,0-1.11-1.11H9L17.65,34.2,42,21.12,64.74,33.57,74,49.86H72.15A1.11,1.11,0,0,0,71,51l-.3,20.9H54.85v-17a1.12,1.12,0,0,0-1.12-1.12h-23l-.17,0-.07,0-.21.1-.13.09-.11.1-.05.06-.11.15M92.72,71.86H73l.29-19.77h2.67a1.12,1.12,0,0,0,1-1.67l-9.6-16.87V16.06H92.72Z"/></g></g></svg>