<svg xmlns="http://www.w3.org/2000/svg" width="31" height="31" viewBox="0 0 31 31">
  <g id="pluie" transform="translate(0.5 0.5)">
    <path id="Union_13" data-name="Union 13" d="M10.794,29.93a.651.651,0,0,1-.291-.874l3.913-7.826a.652.652,0,1,1,1.167.583L11.67,29.639a.653.653,0,0,1-.584.361A.643.643,0,0,1,10.794,29.93Zm6.522-3.913a.651.651,0,0,1-.292-.875l3.913-7.826A.652.652,0,1,1,22.1,17.9l-3.913,7.827a.651.651,0,0,1-.584.361A.638.638,0,0,1,17.317,26.017Zm-9.131,0a.653.653,0,0,1-.292-.875l3.913-7.826a.652.652,0,1,1,1.167.583L9.061,25.726a.651.651,0,0,1-.584.361A.638.638,0,0,1,8.186,26.017Zm13.988-4.5a.652.652,0,0,1,.651-.652,5.867,5.867,0,0,0,1.9-11.419A8.48,8.48,0,0,1,24.3,11.3a.652.652,0,0,1-.615.435.642.642,0,0,1-.217-.038.652.652,0,0,1-.4-.832,7.173,7.173,0,1,0-13.531,0,.652.652,0,0,1-.4.832.642.642,0,0,1-.217.038.653.653,0,0,1-.614-.435A8.429,8.429,0,0,1,7.852,9.13H7.174a5.869,5.869,0,0,0,0,11.739.652.652,0,1,1,0,1.3,7.174,7.174,0,0,1,0-14.348H7.85a8.479,8.479,0,0,1,16.923.269,7.174,7.174,0,0,1-1.949,14.079A.652.652,0,0,1,22.174,21.521Z" fill="#0075a4" stroke="rgba(0,0,0,0)" stroke-width="1"/>
  </g>
</svg>
