<?xml version="1.0" encoding="utf-8"?>
<!-- Generator: Adobe Illustrator 26.3.1, SVG Export Plug-In . SVG Version: 6.00 Build 0)  -->
<svg version="1.1" id="Calque_1" xmlns="http://www.w3.org/2000/svg" xmlns:xlink="http://www.w3.org/1999/xlink" x="0px" y="0px"
	 viewBox="0 0 31 31" style="enable-background:new 0 0 31 31;" xml:space="preserve">
<style type="text/css">
	.st0{fill:#383F45;}
</style>
<g id="pluie" transform="translate(0.5 0.5)">
	<path id="Union_13" class="st0" d="M10.8,29.9c-0.3-0.2-0.5-0.6-0.3-0.9c0,0,0,0,0,0l3.9-7.8c0.2-0.3,0.6-0.5,0.9-0.3
		s0.5,0.6,0.3,0.9l-3.9,7.8c-0.1,0.2-0.3,0.4-0.6,0.4C11,30,10.9,30,10.8,29.9z M17.3,26c-0.3-0.2-0.5-0.6-0.3-0.9c0,0,0,0,0,0
		l3.9-7.8c0.1-0.3,0.5-0.5,0.9-0.3c0.3,0.1,0.5,0.5,0.3,0.9c0,0,0,0,0,0.1l-3.9,7.8c-0.1,0.2-0.3,0.4-0.6,0.4
		C17.5,26.1,17.4,26.1,17.3,26L17.3,26z M8.2,26c-0.3-0.2-0.5-0.6-0.3-0.9l3.9-7.8c0.2-0.3,0.6-0.5,0.9-0.3s0.5,0.6,0.3,0.9l0,0
		l-3.9,7.8c-0.1,0.2-0.3,0.4-0.6,0.4C8.4,26.1,8.3,26.1,8.2,26L8.2,26z M22.2,21.5c0-0.4,0.3-0.7,0.7-0.7c3.2,0,5.9-2.6,5.9-5.9
		c0-2.5-1.6-4.7-4-5.6c-0.1,0.6-0.2,1.3-0.4,1.9c-0.1,0.3-0.3,0.4-0.6,0.4c-0.1,0-0.1,0-0.2,0c-0.3-0.1-0.5-0.5-0.4-0.8c0,0,0,0,0,0
		c1.3-3.7-0.6-7.8-4.4-9.1s-7.8,0.6-9.1,4.4C9,7.6,9,9.3,9.5,10.9c0.1,0.3-0.1,0.7-0.4,0.8c0,0,0,0,0,0c-0.1,0-0.1,0-0.2,0
		c-0.3,0-0.5-0.2-0.6-0.4c-0.2-0.7-0.4-1.4-0.5-2.2H7.2c-3.2,0-5.9,2.6-5.9,5.9s2.6,5.9,5.9,5.9c0.4,0,0.7,0.2,0.7,0.6
		c0,0.4-0.2,0.7-0.6,0.7c0,0-0.1,0-0.1,0C3.2,22.2,0,19,0,15c0-4,3.2-7.2,7.2-7.2h0.7C8.2,3.2,12.3-0.3,17,0
		c4.3,0.3,7.6,3.8,7.8,8.1c3.8,1.1,6,5,5,8.9c-0.9,3.1-3.7,5.2-6.9,5.2C22.5,22.2,22.2,21.9,22.2,21.5L22.2,21.5z"/>
</g>
</svg>
