<svg xmlns="http://www.w3.org/2000/svg" width="30.024" height="30.023" viewBox="0 0 30.024 30.023">
  <g id="soleil" transform="translate(-1661.799 -175.202)">
    <g id="Union_32" data-name="Union 32" transform="translate(-3128 -10006)" fill="#fff" stroke-linejoin="round">
      <path d="M4804.32,10210.734v-5.593a.491.491,0,1,1,.982,0v5.593a.491.491,0,1,1-.982,0Zm7.326-1.7-2.8-4.844a.491.491,0,1,1,.851-.492l2.8,4.844a.491.491,0,0,1-.18.671.486.486,0,0,1-.245.065A.493.493,0,0,1,4811.646,10209.035Zm-14.341.179a.492.492,0,0,1-.18-.671l2.8-4.844a.492.492,0,0,1,.851.492l-2.8,4.844a.492.492,0,0,1-.426.244A.484.484,0,0,1,4797.3,10209.214Zm19.835-5.314-4.843-2.8a.491.491,0,0,1,.491-.85l4.844,2.8a.491.491,0,0,1-.491.851Zm-25.331-.18a.491.491,0,0,1,.18-.671l4.843-2.8a.491.491,0,0,1,.492.85l-4.844,2.8a.495.495,0,0,1-.671-.18Zm5.8-7.506a7.2,7.2,0,1,1,7.2,7.2A7.212,7.212,0,0,1,4797.606,10196.214Zm.982,0a6.223,6.223,0,1,0,6.222-6.224A6.23,6.23,0,0,0,4798.588,10196.214Zm15.15.49a.491.491,0,1,1,0-.981h5.593a.491.491,0,1,1,0,.981Zm-23.448,0a.491.491,0,1,1,0-.981h5.593a.491.491,0,1,1,0,.981Zm21.827-4.709a.491.491,0,0,1,.18-.671l4.843-2.8a.491.491,0,1,1,.491.851l-4.844,2.8a.492.492,0,0,1-.67-.18Zm-15.284.18-4.843-2.8a.491.491,0,1,1,.491-.851l4.844,2.8a.491.491,0,0,1-.492.851Zm12.2-3.268a.489.489,0,0,1-.18-.67l2.8-4.846a.491.491,0,1,1,.851.491l-2.8,4.845a.492.492,0,0,1-.426.246A.484.484,0,0,1,4809.029,10188.907Zm-9.108-.18-2.8-4.845a.491.491,0,0,1,.851-.491l2.8,4.846a.49.49,0,0,1-.181.67.484.484,0,0,1-.245.066A.49.49,0,0,1,4799.921,10188.728Zm4.4-1.442v-5.593a.491.491,0,0,1,.982,0v5.593a.491.491,0,1,1-.982,0Z" stroke="none"/>
      <path d="M 4804.810546875 10211.2255859375 C 4804.53955078125 10211.2255859375 4804.31982421875 10211.0048828125 4804.31982421875 10210.734375 L 4804.31982421875 10205.1416015625 C 4804.31982421875 10204.8701171875 4804.53955078125 10204.6494140625 4804.810546875 10204.6494140625 C 4805.08154296875 10204.6494140625 4805.3017578125 10204.8701171875 4805.3017578125 10205.1416015625 L 4805.3017578125 10210.734375 C 4805.3017578125 10211.0048828125 4805.08154296875 10211.2255859375 4804.810546875 10211.2255859375 Z M 4812.0712890625 10209.279296875 C 4811.90185546875 10209.279296875 4811.73681640625 10209.19140625 4811.6455078125 10209.03515625 L 4808.849609375 10204.19140625 C 4808.7138671875 10203.9560546875 4808.7939453125 10203.6552734375 4809.029296875 10203.51953125 C 4809.263671875 10203.384765625 4809.56396484375 10203.4638671875 4809.7001953125 10203.69921875 L 4812.49609375 10208.54296875 C 4812.6318359375 10208.7783203125 4812.55126953125 10209.0771484375 4812.31640625 10209.2138671875 C 4812.23876953125 10209.2587890625 4812.15478515625 10209.279296875 4812.0712890625 10209.279296875 Z M 4797.54931640625 10209.279296875 C 4797.46630859375 10209.279296875 4797.3818359375 10209.2587890625 4797.3046875 10209.2138671875 C 4797.06982421875 10209.0771484375 4796.98974609375 10208.7783203125 4797.125 10208.54296875 L 4799.92138671875 10203.69921875 C 4800.05712890625 10203.462890625 4800.35546875 10203.3837890625 4800.591796875 10203.51953125 C 4800.8271484375 10203.6552734375 4800.90771484375 10203.9560546875 4800.7724609375 10204.19140625 L 4797.9755859375 10209.03515625 C 4797.884765625 10209.19140625 4797.7197265625 10209.279296875 4797.54931640625 10209.279296875 Z M 4817.3857421875 10203.9638671875 C 4817.3017578125 10203.9638671875 4817.2177734375 10203.943359375 4817.14013671875 10203.8994140625 L 4812.296875 10201.1015625 C 4812.06201171875 10200.9677734375 4811.9814453125 10200.6669921875 4812.1171875 10200.4326171875 C 4812.25341796875 10200.197265625 4812.552734375 10200.1171875 4812.78759765625 10200.251953125 L 4817.63134765625 10203.048828125 C 4817.86669921875 10203.18359375 4817.947265625 10203.4853515625 4817.8115234375 10203.7197265625 C 4817.72021484375 10203.876953125 4817.5556640625 10203.9638671875 4817.3857421875 10203.9638671875 Z M 4792.2353515625 10203.9638671875 C 4792.06591796875 10203.9638671875 4791.90087890625 10203.876953125 4791.8095703125 10203.7197265625 C 4791.673828125 10203.4853515625 4791.7548828125 10203.18359375 4791.98974609375 10203.048828125 L 4796.8330078125 10200.251953125 C 4797.06689453125 10200.1171875 4797.3681640625 10200.1962890625 4797.50439453125 10200.4326171875 C 4797.6396484375 10200.6669921875 4797.5595703125 10200.9677734375 4797.32470703125 10201.1015625 L 4792.48046875 10203.8994140625 C 4792.4033203125 10203.943359375 4792.31884765625 10203.9638671875 4792.2353515625 10203.9638671875 Z M 4804.810546875 10203.41796875 C 4800.837890625 10203.41796875 4797.60595703125 10200.185546875 4797.60595703125 10196.2138671875 C 4797.60595703125 10192.240234375 4800.837890625 10189.0087890625 4804.810546875 10189.0087890625 C 4808.783203125 10189.0087890625 4812.015625 10192.240234375 4812.015625 10196.2138671875 C 4812.015625 10200.185546875 4808.783203125 10203.41796875 4804.810546875 10203.41796875 Z M 4804.810546875 10189.990234375 C 4801.3798828125 10189.990234375 4798.58837890625 10192.783203125 4798.58837890625 10196.2138671875 C 4798.58837890625 10199.64453125 4801.3798828125 10202.4365234375 4804.810546875 10202.4365234375 C 4808.2412109375 10202.4365234375 4811.03369140625 10199.64453125 4811.03369140625 10196.2138671875 C 4811.03369140625 10192.783203125 4808.2412109375 10189.990234375 4804.810546875 10189.990234375 Z M 4819.33154296875 10196.7041015625 L 4813.73828125 10196.7041015625 C 4813.46728515625 10196.7041015625 4813.24755859375 10196.484375 4813.24755859375 10196.2138671875 C 4813.24755859375 10195.94140625 4813.46728515625 10195.72265625 4813.73828125 10195.72265625 L 4819.33154296875 10195.72265625 C 4819.60302734375 10195.72265625 4819.82275390625 10195.94140625 4819.82275390625 10196.2138671875 C 4819.82275390625 10196.484375 4819.60302734375 10196.7041015625 4819.33154296875 10196.7041015625 Z M 4795.8828125 10196.7041015625 L 4790.2900390625 10196.7041015625 C 4790.01806640625 10196.7041015625 4789.798828125 10196.484375 4789.798828125 10196.2138671875 C 4789.798828125 10195.94140625 4790.01806640625 10195.72265625 4790.2900390625 10195.72265625 L 4795.8828125 10195.72265625 C 4796.15380859375 10195.72265625 4796.3740234375 10195.94140625 4796.3740234375 10196.2138671875 C 4796.3740234375 10196.484375 4796.15380859375 10196.7041015625 4795.8828125 10196.7041015625 Z M 4812.54296875 10192.240234375 C 4812.373046875 10192.240234375 4812.2080078125 10192.15234375 4812.1171875 10191.9951171875 C 4811.9814453125 10191.7607421875 4812.06201171875 10191.4599609375 4812.296875 10191.32421875 L 4817.14013671875 10188.5283203125 C 4817.37548828125 10188.390625 4817.6748046875 10188.47265625 4817.8115234375 10188.7080078125 C 4817.947265625 10188.9423828125 4817.86669921875 10189.2431640625 4817.63134765625 10189.37890625 L 4812.78759765625 10192.1748046875 C 4812.71044921875 10192.21875 4812.6259765625 10192.240234375 4812.54296875 10192.240234375 Z M 4797.07861328125 10192.240234375 C 4796.99462890625 10192.240234375 4796.91064453125 10192.21875 4796.8330078125 10192.1748046875 L 4791.98974609375 10189.37890625 C 4791.7548828125 10189.2431640625 4791.673828125 10188.9423828125 4791.8095703125 10188.7080078125 C 4791.9453125 10188.474609375 4792.24560546875 10188.3916015625 4792.48046875 10188.5283203125 L 4797.32470703125 10191.32421875 C 4797.5595703125 10191.4599609375 4797.6396484375 10191.7607421875 4797.50439453125 10191.9951171875 C 4797.4130859375 10192.15234375 4797.248046875 10192.240234375 4797.07861328125 10192.240234375 Z M 4809.27392578125 10188.9736328125 C 4809.19091796875 10188.9736328125 4809.10595703125 10188.9521484375 4809.029296875 10188.9072265625 C 4808.7939453125 10188.7724609375 4808.7138671875 10188.4716796875 4808.849609375 10188.2373046875 L 4811.6455078125 10183.3916015625 C 4811.78173828125 10183.1572265625 4812.0810546875 10183.0771484375 4812.31640625 10183.2119140625 C 4812.55126953125 10183.3486328125 4812.6318359375 10183.6484375 4812.49609375 10183.8828125 L 4809.7001953125 10188.7275390625 C 4809.60888671875 10188.8857421875 4809.443359375 10188.9736328125 4809.27392578125 10188.9736328125 Z M 4800.34716796875 10188.9736328125 C 4800.177734375 10188.9736328125 4800.01220703125 10188.8857421875 4799.92138671875 10188.7275390625 L 4797.125 10183.8828125 C 4796.98974609375 10183.6484375 4797.06982421875 10183.3486328125 4797.3046875 10183.2119140625 C 4797.53857421875 10183.0771484375 4797.83984375 10183.15625 4797.9755859375 10183.3916015625 L 4800.7724609375 10188.2373046875 C 4800.90771484375 10188.4716796875 4800.8271484375 10188.7724609375 4800.591796875 10188.9072265625 C 4800.51513671875 10188.9521484375 4800.43017578125 10188.9736328125 4800.34716796875 10188.9736328125 Z M 4804.810546875 10187.7763671875 C 4804.53955078125 10187.7763671875 4804.31982421875 10187.556640625 4804.31982421875 10187.28515625 L 4804.31982421875 10181.6923828125 C 4804.31982421875 10181.4208984375 4804.53955078125 10181.2021484375 4804.810546875 10181.2021484375 C 4805.08154296875 10181.2021484375 4805.3017578125 10181.4208984375 4805.3017578125 10181.6923828125 L 4805.3017578125 10187.28515625 C 4805.3017578125 10187.556640625 4805.08154296875 10187.7763671875 4804.810546875 10187.7763671875 Z" stroke="none" fill="#fff"/>
    </g>
  </g>
</svg>
