<?xml version="1.0" encoding="utf-8"?>
<!-- Generator: Adobe Illustrator 26.3.1, SVG Export Plug-In . SVG Version: 6.00 Build 0)  -->
<svg version="1.1" id="Calque_1" xmlns="http://www.w3.org/2000/svg" xmlns:xlink="http://www.w3.org/1999/xlink" x="0px" y="0px"
	 viewBox="0 0 10.3 27.8" style="enable-background:new 0 0 10.3 27.8;" xml:space="preserve">
<style type="text/css">
	.st0{fill:#383F45;}
</style>
<g id="temperature" transform="translate(0.5 0.5)">
	<path id="Union_14" class="st0" d="M0,22.7c0-1.6,0.9-3,2.3-3.7V1.7c0-1,0.8-1.7,1.8-1.7c0.9,0,1.7,0.8,1.7,1.7V19
		c2,1,2.9,3.4,1.9,5.4s-3.4,2.9-5.4,1.9C0.9,25.7,0,24.2,0,22.7z M3.5,1.7v17.6c0,0.2-0.2,0.5-0.4,0.5c-1.5,0.5-2.3,2.2-1.8,3.7
		C1.9,25.2,3.5,26,5,25.4c1.5-0.5,2.3-2.2,1.8-3.7c-0.3-0.8-0.9-1.5-1.8-1.8c-0.2-0.1-0.4-0.3-0.4-0.5V1.7c0-0.3-0.3-0.6-0.6-0.6
		C3.7,1.2,3.5,1.4,3.5,1.7z M2.5,22.2c0-0.4,0.3-0.7,0.7-0.7c0.4,0,0.7,0.3,0.7,0.7c0,0.4-0.3,0.7-0.7,0.7
		C2.9,22.9,2.5,22.6,2.5,22.2C2.5,22.2,2.5,22.2,2.5,22.2z M7.6,16.3C7.2,16.3,7,16,7,15.7c0-0.3,0.2-0.6,0.6-0.6c0,0,0,0,0,0h1.2
		c0.3,0,0.6,0.3,0.6,0.6c0,0.3-0.3,0.5-0.6,0.6H7.6z M7.6,14C7.2,14,7,13.7,7,13.4c0-0.3,0.2-0.6,0.6-0.6c0,0,0,0,0,0h1.2
		c0.3,0,0.6,0.3,0.6,0.6c0,0.3-0.3,0.5-0.6,0.6H7.6z M7.6,11.6C7.2,11.6,7,11.4,7,11s0.3-0.6,0.6-0.6h1.2c0.3,0,0.6,0.3,0.6,0.6
		S9,11.6,8.7,11.6H7.6z M7.6,9.3C7.2,9.3,7,9,7,8.7c0-0.3,0.3-0.6,0.6-0.6c0,0,0,0,0,0h1.2c0.3,0,0.6,0.3,0.6,0.6
		C9.3,9,9,9.3,8.7,9.3H7.6z M7.6,7C7.2,7,7,6.7,7,6.4c0-0.3,0.2-0.6,0.6-0.6c0,0,0,0,0,0h1.2c0.3,0,0.6,0.3,0.6,0.6
		C9.3,6.7,9,7,8.7,7H7.6z M7.6,4.6C7.2,4.6,7,4.4,7,4.1c0-0.3,0.3-0.6,0.6-0.6l0,0h1.2c0.3,0,0.6,0.3,0.6,0.6S9,4.6,8.7,4.6H7.6z"/>
</g>
</svg>
