<?xml version="1.0" encoding="utf-8"?>
<!-- Generator: Adobe Illustrator 26.2.1, SVG Export Plug-In . SVG Version: 6.00 Build 0)  -->
<svg version="1.1" id="Calque_1" xmlns="http://www.w3.org/2000/svg" xmlns:xlink="http://www.w3.org/1999/xlink" x="0px" y="0px"
	 viewBox="0 0 29 25" style="enable-background:new 0 0 29 25;" xml:space="preserve">
<style type="text/css">
	.st0{fill:#FFFFFF;}
</style>
<g id="vent" transform="translate(0.499 0.499)">
	<path id="Union_15" class="st0" d="M14.5,19.3c0-0.3,0.2-0.5,0.5-0.5s0.5,0.2,0.5,0.5c0,0,0,0,0,0c0,2,1.6,3.6,3.7,3.6
		s3.6-1.6,3.6-3.7c0-2-1.6-3.6-3.6-3.6H4.7c-0.3,0-0.5-0.2-0.5-0.5c0-0.3,0.2-0.5,0.5-0.5h14.5c2.6,0,4.7,2.1,4.7,4.7
		c0,2.6-2.1,4.7-4.7,4.7S14.5,21.9,14.5,19.3C14.5,19.3,14.5,19.3,14.5,19.3L14.5,19.3z M2.6,12.5c-0.3,0-0.5-0.3-0.5-0.5
		c0-0.3,0.2-0.5,0.5-0.5h19.7c0.3,0,0.5,0.3,0.5,0.5c0,0.3-0.2,0.5-0.5,0.5H2.6z M0.5,9.4C0.2,9.4,0,9.1,0,8.8
		c0-0.3,0.2-0.5,0.5-0.5h22.8c2,0,3.7-1.6,3.7-3.6c0-2-1.6-3.7-3.6-3.7s-3.7,1.6-3.7,3.6c0,0,0,0,0,0c0,0.3-0.2,0.5-0.5,0.5
		S18.7,5,18.7,4.7c0,0,0,0,0,0c0-2.6,2.1-4.7,4.7-4.6S28,2.2,28,4.8c0,2.6-2.1,4.6-4.7,4.6L0.5,9.4z"/>
</g>
</svg>
