<svg xmlns="http://www.w3.org/2000/svg" width="29" height="25" viewBox="0 0 29 25">
  <g id="vent" transform="translate(0.499 0.499)">
    <path id="Union_15" data-name="Union 15" d="M14.519,19.3a.519.519,0,1,1,1.037,0,3.63,3.63,0,1,0,3.63-3.652H4.667a.522.522,0,0,1,0-1.044H19.185a4.7,4.7,0,1,1-4.667,4.7ZM2.593,12.522a.522.522,0,0,1,0-1.043H22.3a.522.522,0,0,1,0,1.043ZM.519,9.391a.522.522,0,0,1,0-1.043H23.333A3.652,3.652,0,1,0,19.7,4.7a.519.519,0,1,1-1.037,0,4.667,4.667,0,1,1,4.667,4.7Z" transform="translate(0.001 0.001)" fill="#0075a4" stroke="rgba(0,0,0,0)" stroke-width="1"/>
  </g>
</svg>
